<svg width="21" height="21" viewBox="0 0 21 21" fill="none" xmlns="http://www.w3.org/2000/svg">
<path d="M12.4777 15.4556C12.4777 16.8306 11.3527 17.9556 9.9777 17.9556C8.6027 17.9556 7.4777 16.8306 7.4777 15.4556H9.14437C9.14437 15.9139 9.51937 16.2889 9.9777 16.2889C10.436 16.2889 10.811 15.9139 10.811 15.4556C10.811 14.9973 10.436 14.6223 9.9777 14.6223H2.06104V12.9556H9.9777C11.3527 12.9556 12.4777 14.0806 12.4777 15.4556ZM16.2277 6.70561C16.2277 5.09727 14.9194 3.78894 13.311 3.78894C11.7027 3.78894 10.3944 5.09727 10.3944 6.70561H12.061C12.061 6.01394 12.6194 5.45561 13.311 5.45561C14.0027 5.45561 14.561 6.01394 14.561 6.70561C14.561 7.39727 14.0027 7.95561 13.311 7.95561H2.06104V9.62227H13.311C14.9194 9.62227 16.2277 8.31394 16.2277 6.70561ZM15.811 10.4556H2.06104V12.1223H15.811C16.5027 12.1223 17.061 12.6806 17.061 13.3723C17.061 14.0639 16.5027 14.6223 15.811 14.6223V16.2889C17.4194 16.2889 18.7277 14.9806 18.7277 13.3723C18.7277 11.7639 17.4194 10.4556 15.811 10.4556Z" fill="url(#paint0_linear_3419_186455)"/>
<defs>
<linearGradient id="paint0_linear_3419_186455" x1="2.06104" y1="17.9556" x2="20.6308" y2="14.7237" gradientUnits="userSpaceOnUse">
<stop stop-color="#A6CA3B"/>
<stop offset="1" stop-color="#4E93E4"/>
</linearGradient>
</defs>
</svg>
