<svg width="15" height="15" viewBox="0 0 15 15" fill="none" xmlns="http://www.w3.org/2000/svg">
<path d="M9.53363 2.5011H5.31022L2.32666 5.48466V9.70807L5.31022 12.6916H9.53363L12.5172 9.70807V5.48466L9.53363 2.5011ZM11.3849 9.23818L9.06374 11.5594H5.78012L3.45894 9.23818V5.95456L5.78012 3.63338H9.06374L11.3849 5.95456V9.23818Z" fill="#FF0000"/>
<path d="M7.42193 10.4271C7.7346 10.4271 7.98807 10.1736 7.98807 9.86093C7.98807 9.54826 7.7346 9.29479 7.42193 9.29479C7.10926 9.29479 6.85579 9.54826 6.85579 9.86093C6.85579 10.1736 7.10926 10.4271 7.42193 10.4271Z" fill="#FF0000"/>
<path d="M6.85579 4.76566H7.98807V8.72865H6.85579V4.76566Z" fill="#FF0000"/>
</svg>
