<svg width="21" height="16" viewBox="0 0 21 16" fill="none" xmlns="http://www.w3.org/2000/svg">
<path d="M15.1211 2.12268L14.3398 2.76253L15.8242 3.73621C15.8695 3.76845 15.9312 3.81161 15.9805 3.84749L15.668 4.09787C15.1677 4.45415 15.5266 4.91526 15.707 5.04373L16.6445 5.7114V11.0249C16.6445 11.9152 16.1544 11.9152 16.0195 11.9152C15.8847 11.9152 15.3945 11.9152 15.3945 11.0249V7.46403C15.3945 6.32373 14.1445 5.68358 12.8945 5.68358V3.90313C12.8945 3.41235 12.3636 3.01291 11.6445 3.01291H4.14453C3.39548 3.01291 2.89453 3.39101 2.89453 3.90313V14.5858H12.8945V6.57381C12.8945 6.57381 14.1445 6.57381 14.1445 7.46403V11.0249C14.1445 12.8054 15.6942 12.8054 16.0195 12.8054C16.3641 12.8054 17.8945 12.8054 17.8945 11.0249V4.79336C17.8945 3.90313 17.537 3.71688 17.1133 3.4302L15.1211 2.12268ZM4.14453 4.79336H11.6445V7.46403H4.14453V4.79336Z" fill="url(#paint0_linear_3419_185538)"/>
<defs>
<linearGradient id="paint0_linear_3419_185538" x1="2.89453" y1="14.5858" x2="19.5845" y2="11.6142" gradientUnits="userSpaceOnUse">
<stop stop-color="#A6CA3B"/>
<stop offset="1" stop-color="#4E93E4"/>
</linearGradient>
</defs>
</svg>
