<svg width="21" height="21" viewBox="0 0 21 21" fill="none" xmlns="http://www.w3.org/2000/svg">
<path d="M14.7634 7.021H6.43009C5.51343 7.021 4.76343 7.771 4.76343 8.68766V17.021C4.76343 17.9377 5.51343 18.6877 6.43009 18.6877H14.7634C15.6801 18.6877 16.4301 17.9377 16.4301 17.021V8.68766C16.4301 7.771 15.6801 7.021 14.7634 7.021ZM11.4301 17.4377H9.76343V16.1877H11.4301V17.4377ZM11.4301 15.3543H9.76343C9.76343 14.1043 7.68009 12.8543 7.68009 11.1877C7.68009 9.57933 8.98843 8.271 10.5968 8.271C12.2051 8.271 13.5134 9.57933 13.5134 11.1877C13.5134 12.8543 11.4301 14.1043 11.4301 15.3543ZM15.5968 5.771H5.59676C5.59676 5.07933 6.15509 4.521 6.84676 4.521H14.3468C15.0384 4.521 15.5968 5.07933 15.5968 5.771ZM14.7634 3.271H6.43009C6.43009 2.57933 6.98843 2.021 7.68009 2.021H13.5134C14.2051 2.021 14.7634 2.57933 14.7634 3.271Z" fill="url(#paint0_linear_3419_185550)"/>
<defs>
<linearGradient id="paint0_linear_3419_185550" x1="4.76343" y1="18.6877" x2="18.0139" y2="17.3155" gradientUnits="userSpaceOnUse">
<stop stop-color="#A6CA3B"/>
<stop offset="1" stop-color="#4E93E4"/>
</linearGradient>
</defs>
</svg>
