<svg width="21" height="21" viewBox="0 0 21 21" fill="none" xmlns="http://www.w3.org/2000/svg">
<path d="M13.0968 11.1877V4.521C13.0968 3.13766 11.9802 2.021 10.5968 2.021C9.21351 2.021 8.09684 3.13766 8.09684 4.521V11.1877C7.08851 11.946 6.43018 13.1627 6.43018 14.521C6.43018 16.821 8.29684 18.6877 10.5968 18.6877C12.8968 18.6877 14.7635 16.821 14.7635 14.521C14.7635 13.1627 14.1052 11.946 13.0968 11.1877ZM9.76351 4.521C9.76351 4.06266 10.1385 3.68766 10.5968 3.68766C11.0552 3.68766 11.4302 4.06266 11.4302 4.521H10.5968V5.35433H11.4302V7.021H10.5968V7.85433H11.4302V9.521H9.76351V4.521Z" fill="url(#paint0_linear_3557_35498)"/>
<defs>
<linearGradient id="paint0_linear_3557_35498" x1="6.43018" y1="18.6877" x2="15.9443" y2="17.9839" gradientUnits="userSpaceOnUse">
<stop stop-color="#A6CA3B"/>
<stop offset="1" stop-color="#4E93E4"/>
</linearGradient>
</defs>
</svg>
