<svg width="14" height="15" viewBox="0 0 14 15" fill="none" xmlns="http://www.w3.org/2000/svg">
<path d="M6.83231 1.93494C3.70721 1.93494 1.1709 4.47125 1.1709 7.59635C1.1709 10.7214 3.70721 13.2578 6.83231 13.2578C9.95741 13.2578 12.4937 10.7214 12.4937 7.59635C12.4937 4.47125 9.95741 1.93494 6.83231 1.93494ZM6.83231 12.1255C4.33563 12.1255 2.30318 10.093 2.30318 7.59635C2.30318 5.09966 4.33563 3.06722 6.83231 3.06722C9.32899 3.06722 11.3614 5.09966 11.3614 7.59635C11.3614 10.093 9.32899 12.1255 6.83231 12.1255ZM9.4309 5.094L5.70003 8.82487L4.23372 7.36423L3.43546 8.16249L5.70003 10.4271L10.2292 5.89792L9.4309 5.094Z" fill="#00FF64"/>
</svg>
