<svg width="76" height="74" viewBox="0 0 76 74" fill="none" xmlns="http://www.w3.org/2000/svg">
<g filter="url(#filter0_d_3422_15264)">
<path d="M4 27.3645V53.2108L22.9029 64.2003V38.354L4 27.3645Z" fill="#3B3B3F"/>
<path d="M22.9031 38.3537V64.2L68.967 37.6134V11.767L22.9031 38.3537Z" fill="#48484D"/>
<path d="M4 27.3647L22.9029 38.3541L68.9669 11.7675L50.0639 0.778015L4 27.3647Z" fill="#5F5F64"/>
<path d="M67.1671 11.7542L50.0638 1.82413L5.79956 27.3769L22.9156 37.307L67.1671 11.7542Z" fill="#A09595"/>
<path d="M28.3907 37.6642L28.3779 60.9962L30.7009 62.3363L30.7137 38.9917L28.3907 37.6642Z" fill="#3B3B3F"/>
<path d="M30.7139 38.9919L30.7012 62.3366L34.3899 60.205L34.4026 36.8604L30.7139 38.9919Z" fill="#48484D"/>
<path d="M28.3906 37.6643L30.7136 38.9918L34.4023 36.8602L32.0793 35.5328L28.3906 37.6643Z" fill="#5F5F64"/>
<path d="M22.877 40.8428L22.8643 64.1875L25.2 65.5149V42.183L22.877 40.8428Z" fill="#3B3B3F"/>
<path d="M25.2 42.1829V65.5148L28.8886 63.396V40.0514L25.2 42.1829Z" fill="#48484D"/>
<path d="M22.8772 40.8429L25.2002 42.183L28.8889 40.0515L26.5659 38.7113L22.8772 40.8429Z" fill="#5F5F64"/>
<path d="M65.2654 16.3616V39.7062L67.5884 41.0464L67.6011 17.7017L65.2654 16.3616Z" fill="#3B3B3F"/>
<path d="M67.6014 17.7016L67.5886 41.0463L71.2773 38.9148L71.2901 15.5701L67.6014 17.7016Z" fill="#48484D"/>
<path d="M65.2654 16.3621L67.6011 17.7022L71.2898 15.5707L68.9668 14.2305L65.2654 16.3621Z" fill="#5F5F64"/>
<path d="M59.7645 19.5526L59.7517 42.8973L62.0747 44.2247L62.0875 20.88L59.7645 19.5526Z" fill="#3B3B3F"/>
<path d="M62.0877 20.8803L62.075 44.2249L65.7636 42.0934L65.7764 18.7487L62.0877 20.8803Z" fill="#48484D"/>
<path d="M59.7644 19.5527L62.0874 20.8801L65.7761 18.7486L63.4531 17.4212L59.7644 19.5527Z" fill="#5F5F64"/>
<path d="M36.1003 42.4127L36.1259 56.5804L40.9122 59.465L40.9761 45.259L36.1003 42.4127Z" fill="#3B3B3F"/>
<path d="M56.5735 30.5933L56.5862 44.7609L61.3854 47.6455L61.4364 33.4396L56.5735 30.5933Z" fill="#3B3B3F"/>
<path d="M36.1003 42.4131L40.9761 45.2594L61.4617 33.4275L56.586 30.5812L36.1003 42.4131Z" fill="#5F5F64"/>
<path d="M50.0636 1.82437L5.79932 27.3772L6.84592 27.9771L50.0636 3.02415L66.1202 12.3671L67.1669 11.7545L50.0636 1.82437Z" fill="#8C8080"/>
<path d="M47.907 6.30438L45.3032 7.81049L47.2433 8.92093H48.826L47.907 6.30438Z" fill="#8C8080"/>
<path d="M46.5032 6.61109V7.58112L48.8261 8.9213V7.96403L46.5032 6.61109Z" fill="#DBDBDB"/>
<path d="M48.8259 7.96403V8.9213L51.1617 7.58112V6.61109L48.8259 7.96403Z" fill="#EDEDED"/>
<path d="M46.5032 6.61098L48.8261 7.96392L51.1619 6.61098L48.8389 5.25803L46.5032 6.61098Z" fill="#F4F4F4"/>
<path d="M47.8305 5.99847C47.2944 6.31756 47.2944 6.81534 47.8305 7.13443C48.3666 7.45352 49.2473 7.45352 49.7961 7.13443C50.3322 6.81534 50.3322 6.31756 49.7961 5.99847C49.2601 5.67937 48.3794 5.67937 47.8305 5.99847Z" fill="#A09595"/>
<path d="M48.4174 6.33082C48.2004 6.45845 48.2004 6.66267 48.4174 6.79031C48.6344 6.91794 48.9917 6.91794 49.2215 6.79031C49.4512 6.66267 49.4385 6.45845 49.2215 6.33082C49.0045 6.20318 48.6471 6.20318 48.4174 6.33082Z" fill="#F4F4F4"/>
<path d="M42.3037 9.54619L39.7 11.0523L41.6273 12.1627H43.2227L42.3037 9.54619Z" fill="#8C8080"/>
<path d="M40.887 9.85272L40.8997 10.81L43.2227 12.1629V11.1929L40.887 9.85272Z" fill="#DBDBDB"/>
<path d="M43.2222 11.1929V12.1629L45.5579 10.81V9.85272L43.2222 11.1929Z" fill="#EDEDED"/>
<path d="M40.887 9.85278L43.2227 11.193L45.5585 9.85278L43.2355 8.49984L40.887 9.85278Z" fill="#F4F4F4"/>
<path d="M42.2272 9.24002C41.6912 9.55911 41.6912 10.0569 42.2272 10.376C42.7633 10.6823 43.644 10.6823 44.1929 10.376C44.7289 10.0569 44.7289 9.55911 44.1929 9.24002C43.6568 8.92093 42.7761 8.92093 42.2272 9.24002Z" fill="#A09595"/>
<path d="M42.8014 9.57211C42.5844 9.69975 42.5844 9.90397 42.8014 10.0316C43.0184 10.1592 43.3758 10.1592 43.6055 10.0316C43.8353 9.90397 43.8225 9.69975 43.6055 9.57211C43.3885 9.44447 43.0312 9.44447 42.8014 9.57211Z" fill="#F4F4F4"/>
<path d="M36.7005 12.7755L34.084 14.2816L36.0241 15.4048H37.6068L36.7005 12.7755Z" fill="#8C8080"/>
<path d="M35.2837 13.0813V14.0513L37.6067 15.4043V14.4342L35.2837 13.0813Z" fill="#DBDBDB"/>
<path d="M37.6069 14.4342V15.4043L39.9427 14.0513V13.0813L37.6069 14.4342Z" fill="#EDEDED"/>
<path d="M35.2837 13.0818L37.6067 14.4348L39.9424 13.0818L37.6194 11.7416L35.2837 13.0818Z" fill="#F4F4F4"/>
<path d="M36.624 12.4686C36.0879 12.7877 36.0879 13.2855 36.624 13.6046C37.1601 13.9109 38.0408 13.9109 38.5896 13.6046C39.1257 13.2855 39.1257 12.7877 38.5896 12.4686C38.0535 12.1495 37.1728 12.1495 36.624 12.4686Z" fill="#A09595"/>
<path d="M37.1986 12.8131C36.9816 12.9407 36.9816 13.145 37.1986 13.2726C37.4156 13.4002 37.773 13.4002 38.0027 13.2726C38.2197 13.145 38.2197 12.9407 38.0027 12.8131C37.7858 12.6855 37.4284 12.6855 37.1986 12.8131Z" fill="#F4F4F4"/>
<path d="M31.0847 16.0169L28.481 17.5231L30.4083 18.6335H32.0037L31.0847 16.0169Z" fill="#8C8080"/>
<path d="M29.6802 16.3233V17.2933L32.0032 18.6335V17.6762L29.6802 16.3233Z" fill="#DBDBDB"/>
<path d="M32.0032 17.6762V18.6335L34.3389 17.2933V16.3233L32.0032 17.6762Z" fill="#EDEDED"/>
<path d="M29.6802 16.3235L32.0032 17.6764L34.3389 16.3235L32.0159 14.9705L29.6802 16.3235Z" fill="#F4F4F4"/>
<path d="M31.0075 15.7107C30.4715 16.0298 30.4715 16.5275 31.0075 16.8466C31.5436 17.1657 32.4243 17.1657 32.9731 16.8466C33.5092 16.5275 33.5092 16.0298 32.9731 15.7107C32.437 15.3916 31.5564 15.3916 31.0075 15.7107Z" fill="#A09595"/>
<path d="M31.5946 16.0425C31.3776 16.1701 31.3776 16.3744 31.5946 16.502C31.8116 16.6296 32.169 16.6296 32.3987 16.502C32.6157 16.3744 32.6157 16.1701 32.3987 16.0425C32.1818 15.9149 31.8244 15.9149 31.5946 16.0425Z" fill="#F4F4F4"/>
<path d="M25.4812 19.2598L22.8774 20.7659L24.8048 21.8763H26.4002L25.4812 19.2598Z" fill="#8C8080"/>
<path d="M24.0645 19.5667V20.524L26.4002 21.8769L26.3874 20.9069L24.0645 19.5667Z" fill="#DBDBDB"/>
<path d="M26.3872 20.9069L26.4 21.8769L28.7357 20.524L28.723 19.5667L26.3872 20.9069Z" fill="#EDEDED"/>
<path d="M24.0645 19.5663L26.3874 20.9065L28.7232 19.5663L26.4002 18.2134L24.0645 19.5663Z" fill="#F4F4F4"/>
<path d="M25.4047 18.9542C24.8687 19.2605 24.8687 19.771 25.4047 20.0901C25.9408 20.4092 26.8215 20.4092 27.3703 20.0901C27.9064 19.771 27.9064 19.2733 27.3703 18.9542C26.8343 18.6351 25.9536 18.6351 25.4047 18.9542Z" fill="#A09595"/>
<path d="M25.9787 19.2858C25.7617 19.4134 25.7617 19.6176 25.9787 19.7453C26.1956 19.8729 26.553 19.8729 26.7828 19.7453C26.9998 19.6176 26.9998 19.4134 26.7828 19.2858C26.5658 19.1581 26.2084 19.1581 25.9787 19.2858Z" fill="#F4F4F4"/>
<path d="M19.8652 22.489L17.2615 23.9952L19.2016 25.1184H20.7842L19.8652 22.489Z" fill="#8C8080"/>
<path d="M18.4614 22.7952V23.7652L20.7844 25.1182V24.1481L18.4614 22.7952Z" fill="#DBDBDB"/>
<path d="M20.7844 24.1481V25.1182L23.1202 23.7652V22.7952L20.7844 24.1481Z" fill="#EDEDED"/>
<path d="M18.4614 22.7953L20.7844 24.1482L23.1201 22.7953L20.7972 21.4551L18.4614 22.7953Z" fill="#F4F4F4"/>
<path d="M19.7888 22.183C19.2527 22.5021 19.2527 22.9999 19.7888 23.319C20.3248 23.6381 21.2055 23.6381 21.7544 23.319C22.2905 23.0127 22.2905 22.5021 21.7544 22.183C21.2183 21.8767 20.3376 21.8767 19.7888 22.183Z" fill="#A09595"/>
<path d="M20.3759 22.5275C20.1589 22.6551 20.1589 22.8593 20.3759 22.9869C20.5929 23.1146 20.9502 23.1146 21.18 22.9869C21.3969 22.8593 21.3969 22.6551 21.18 22.5275C20.963 22.3998 20.6056 22.3998 20.3759 22.5275Z" fill="#F4F4F4"/>
<path d="M14.2617 25.7308L11.658 27.237L13.5853 28.3474H15.1807L14.2617 25.7308Z" fill="#8C8080"/>
<path d="M12.845 26.0374L12.8577 27.0074L15.1807 28.3476V27.3903L12.845 26.0374Z" fill="#DBDBDB"/>
<path d="M15.1804 27.3903V28.3476L17.5162 27.0074V26.0374L15.1804 27.3903Z" fill="#EDEDED"/>
<path d="M12.845 26.0374L15.1807 27.3904L17.5165 26.0374L15.1935 24.6845L12.845 26.0374Z" fill="#F4F4F4"/>
<path d="M14.1853 25.4248C13.6492 25.7439 13.6492 26.2417 14.1853 26.5608C14.7213 26.8799 15.602 26.8799 16.1509 26.5608C16.6869 26.2417 16.6869 25.7439 16.1509 25.4248C15.6148 25.1058 14.7341 25.1058 14.1853 25.4248Z" fill="#A09595"/>
<path d="M14.7597 25.757C14.5427 25.8847 14.5427 26.0889 14.7597 26.2165C14.9766 26.3441 15.334 26.3441 15.5638 26.2165C15.7808 26.0889 15.7808 25.8847 15.5638 25.757C15.3468 25.6294 14.9894 25.6294 14.7597 25.757Z" fill="#F4F4F4"/>
<path d="M51.8377 8.5645L49.2212 10.0706L51.1613 11.1938H52.744L51.8377 8.5645Z" fill="#8C8080"/>
<path d="M50.4211 8.87089V9.84093L52.7441 11.1939V10.2238L50.4211 8.87089Z" fill="#DBDBDB"/>
<path d="M52.7444 10.2238V11.1939L55.0801 9.84093V8.87089L52.7444 10.2238Z" fill="#EDEDED"/>
<path d="M50.4211 8.87082L52.7441 10.2238L55.0799 8.87082L52.7569 7.53064L50.4211 8.87082Z" fill="#F4F4F4"/>
<path d="M51.7485 8.25827C51.2124 8.57736 51.2124 9.07515 51.7485 9.39424C52.2846 9.71333 53.1652 9.71333 53.7141 9.39424C54.2502 9.08791 54.2502 8.57736 53.7141 8.25827C53.178 7.93918 52.2973 7.93918 51.7485 8.25827Z" fill="#A09595"/>
<path d="M52.3356 8.6025C52.1186 8.73014 52.1186 8.93436 52.3356 9.06199C52.5526 9.18963 52.91 9.18963 53.1397 9.06199C53.3567 8.93436 53.3567 8.73014 53.1397 8.6025C52.9227 8.47487 52.5653 8.47487 52.3356 8.6025Z" fill="#F4F4F4"/>
<path d="M46.222 11.806L43.6182 13.3121L45.5455 14.4226H47.1409L46.222 11.806Z" fill="#8C8080"/>
<path d="M44.8181 12.113V13.083L47.1411 14.4232V13.4659L44.8181 12.113Z" fill="#DBDBDB"/>
<path d="M47.1411 13.4659V14.4232L49.4769 13.083V12.113L47.1411 13.4659Z" fill="#EDEDED"/>
<path d="M44.8181 12.1125L47.1411 13.4655L49.4769 12.1125L47.1539 10.7596L44.8181 12.1125Z" fill="#F4F4F4"/>
<path d="M46.1455 11.5003C45.6094 11.8194 45.6094 12.3172 46.1455 12.6363C46.6815 12.9554 47.5622 12.9554 48.1111 12.6363C48.6471 12.3172 48.6471 11.8194 48.1111 11.5003C47.575 11.1812 46.6943 11.1812 46.1455 11.5003Z" fill="#A09595"/>
<path d="M46.7326 11.8319C46.5156 11.9595 46.5156 12.1638 46.7326 12.2914C46.9495 12.419 47.3069 12.419 47.5367 12.2914C47.7537 12.1638 47.7537 11.9595 47.5367 11.8319C47.3197 11.7043 46.9623 11.7043 46.7326 11.8319Z" fill="#F4F4F4"/>
<path d="M40.6184 15.0478L38.0146 16.5539L39.942 17.6644H41.5374L40.6184 15.0478Z" fill="#8C8080"/>
<path d="M39.2017 15.3545V16.3118L41.5374 17.6648L41.5246 16.6947L39.2017 15.3545Z" fill="#DBDBDB"/>
<path d="M41.5249 16.6947L41.5377 17.6648L43.8734 16.3118L43.8606 15.3545L41.5249 16.6947Z" fill="#EDEDED"/>
<path d="M39.2017 15.3543L41.5246 16.6945L43.8604 15.3543L41.5374 14.0014L39.2017 15.3543Z" fill="#F4F4F4"/>
<path d="M40.5419 14.7417C40.0059 15.0608 40.0059 15.5585 40.5419 15.8776C41.078 16.1967 41.9587 16.1967 42.5075 15.8776C43.0436 15.5585 43.0436 15.0608 42.5075 14.7417C41.9715 14.4353 41.0908 14.4353 40.5419 14.7417Z" fill="#A09595"/>
<path d="M41.1163 15.0736C40.8994 15.2012 40.8994 15.4054 41.1163 15.5331C41.3333 15.6607 41.6907 15.6607 41.9204 15.5331C42.1374 15.4054 42.1374 15.2012 41.9204 15.0736C41.7035 14.946 41.3461 14.946 41.1163 15.0736Z" fill="#F4F4F4"/>
<path d="M35.0027 18.2773L32.3989 19.7834L34.339 20.9066H35.9217L35.0027 18.2773Z" fill="#8C8080"/>
<path d="M33.5986 18.5832V19.5533L35.9216 20.9062V19.9362L33.5986 18.5832Z" fill="#DBDBDB"/>
<path d="M35.9216 19.9362V20.9062L38.2574 19.5533V18.5832L35.9216 19.9362Z" fill="#EDEDED"/>
<path d="M33.5986 18.5835L35.9216 19.9365L38.2574 18.5835L35.9344 17.2433L33.5986 18.5835Z" fill="#F4F4F4"/>
<path d="M34.9262 17.9711C34.3902 18.2902 34.3902 18.7879 34.9262 19.107C35.4623 19.4261 36.343 19.4261 36.8918 19.107C37.4279 18.7879 37.4279 18.2902 36.8918 17.9711C36.3558 17.6647 35.4751 17.6647 34.9262 17.9711Z" fill="#A09595"/>
<path d="M35.5133 18.3161C35.2963 18.4438 35.2963 18.648 35.5133 18.7756C35.7303 18.9033 36.0877 18.9033 36.3174 18.7756C36.5344 18.648 36.5344 18.4438 36.3174 18.3161C36.1004 18.1885 35.7431 18.1885 35.5133 18.3161Z" fill="#F4F4F4"/>
<path d="M29.3992 21.5191L26.7954 23.0252L28.7227 24.1356H30.3182L29.3992 21.5191Z" fill="#8C8080"/>
<path d="M27.9824 21.8254L27.9952 22.7954L30.3182 24.1356L30.3054 23.1783L27.9824 21.8254Z" fill="#DBDBDB"/>
<path d="M30.3057 23.1783L30.3184 24.1356L32.6542 22.7954V21.8254L30.3057 23.1783Z" fill="#EDEDED"/>
<path d="M27.9824 21.8257L30.3054 23.1786L32.6539 21.8257L30.3309 20.4727L27.9824 21.8257Z" fill="#F4F4F4"/>
<path d="M29.3227 21.2128C28.7866 21.5319 28.7866 22.0297 29.3227 22.3488C29.8588 22.6679 30.7395 22.6679 31.2883 22.3488C31.8244 22.0297 31.8244 21.5319 31.2883 21.2128C30.7522 20.8937 29.8715 20.8937 29.3227 21.2128Z" fill="#A09595"/>
<path d="M29.8974 21.5448C29.6804 21.6724 29.6804 21.8766 29.8974 22.0042C30.1143 22.1319 30.4717 22.1319 30.7015 22.0042C30.9185 21.8766 30.9185 21.6724 30.7015 21.5448C30.4845 21.4171 30.1271 21.4171 29.8974 21.5448Z" fill="#F4F4F4"/>
<path d="M23.7965 24.7616L21.1799 26.2677L23.12 27.3781H24.7027L23.7965 24.7616Z" fill="#8C8080"/>
<path d="M22.3799 25.0687V26.0259L24.7029 27.3789V26.4216L22.3799 25.0687Z" fill="#DBDBDB"/>
<path d="M24.7031 26.4216V27.3789L27.0389 26.0259V25.0687L24.7031 26.4216Z" fill="#EDEDED"/>
<path d="M22.3799 25.0682L24.7029 26.4211L27.0386 25.0682L24.7156 23.7152L22.3799 25.0682Z" fill="#F4F4F4"/>
<path d="M23.7072 24.456C23.1712 24.7751 23.1712 25.2728 23.7072 25.5919C24.2433 25.911 25.124 25.911 25.6728 25.5919C26.2089 25.2728 26.2089 24.7751 25.6728 24.456C25.1367 24.1369 24.2561 24.1369 23.7072 24.456Z" fill="#A09595"/>
<path d="M24.2941 24.7878C24.0771 24.9154 24.0771 25.1196 24.2941 25.2473C24.5111 25.3749 24.8685 25.3749 25.0982 25.2473C25.3152 25.1196 25.3152 24.9154 25.0982 24.7878C24.8812 24.6601 24.5238 24.6601 24.2941 24.7878Z" fill="#F4F4F4"/>
<path d="M18.1802 27.991L15.5764 29.4971L17.5037 30.6203H19.0992L18.1802 27.991Z" fill="#8C8080"/>
<path d="M16.7761 28.2973V29.2673L19.0991 30.6203V29.6502L16.7761 28.2973Z" fill="#DBDBDB"/>
<path d="M19.0991 29.6502V30.6203L21.4349 29.2673V28.2973L19.0991 29.6502Z" fill="#EDEDED"/>
<path d="M16.7761 28.2973L19.0991 29.6502L21.4349 28.2973L19.1119 26.9571L16.7761 28.2973Z" fill="#F4F4F4"/>
<path d="M18.1037 27.6846C17.5676 28.0037 17.5676 28.5014 18.1037 28.8205C18.6398 29.1269 19.5205 29.1269 20.0693 28.8205C20.6054 28.5014 20.6054 28.0037 20.0693 27.6846C19.5332 27.3655 18.6526 27.3655 18.1037 27.6846Z" fill="#A09595"/>
<path d="M18.6906 28.0287C18.4736 28.1564 18.4736 28.3606 18.6906 28.4882C18.9076 28.6159 19.2649 28.6159 19.4947 28.4882C19.7117 28.3606 19.7117 28.1564 19.4947 28.0287C19.2777 27.9011 18.9203 27.9011 18.6906 28.0287Z" fill="#F4F4F4"/>
<path d="M67.1675 11.7545L66.1209 12.3671L50.0642 3.02415V1.82437L67.1675 11.7545Z" fill="#776B6B"/>
<mask id="mask0_3422_15264" style="mask-type:luminance" maskUnits="userSpaceOnUse" x="41" y="38" width="20" height="21">
<path d="M41.8572 49.5985L41.972 58.8521L60.4793 48.1689L60.5304 38.6856L41.8572 49.5985Z" fill="white"/>
</mask>
<g mask="url(#mask0_3422_15264)">
<g style="mix-blend-mode:multiply" opacity="0.6">
<path d="M39.2146 57.9716H43.5925L43.7074 57.9078L39.2146 57.895V57.9716Z" fill="#A09595"/>
</g>
<g style="mix-blend-mode:multiply" opacity="0.6">
<path d="M63.4657 46.3955L64.04 46.0636L60.5556 38.5458C60.5556 38.5458 40.606 49.9055 39.2275 50.8627V57.3339L39.8274 56.9893H45.2775L45.3924 56.9127H39.9423L41.5122 56.0065H46.9623L47.0772 55.9299H41.6526L43.2225 55.0237H48.6471L48.762 54.9471H43.848L46.2475 53.5559H51.2126V53.4921H46.3496L48.8768 52.037H53.7653L53.8802 51.9604H48.5195L50.0639 51.067H55.4501L55.565 50.9904H50.2043L51.7487 50.0969H57.1221L57.237 50.0203H51.8763L53.4207 49.1269H58.7942L58.9091 49.0503H53.5483L55.0927 48.1569H60.4662L60.5811 48.0803H55.2204L56.7648 47.1868H62.1383L62.2531 47.1102H56.8924L58.1943 46.3572H63.4657V46.3955ZM43.6948 54.9726H43.3374L45.737 53.5814H46.0944L43.6948 54.9726ZM48.7237 52.0753L46.1965 53.5303H45.8391L48.3663 52.0753H48.7237Z" fill="#A09595"/>
</g>
<path opacity="0.7" d="M38.9212 51.3859L63.555 37.0651L63.5422 46.408L38.9084 60.7288L38.9212 51.3859Z" fill="url(#paint0_linear_3422_15264)"/>
<path d="M63.5552 42.7319L62.2788 43.4722V39.7197L63.5552 38.9794V38.8645L62.2788 39.6048V37.8179L62.1767 37.8817V39.6686L60.5812 40.6004V38.8135L60.4791 38.8773V40.6769L58.8837 41.6087V39.809L58.7816 39.8728V41.647L57.1861 42.5787V40.8046L57.084 40.8684V42.6425L55.4885 43.5743V41.8002L55.3864 41.864V43.6381L53.791 44.5699V42.7957L53.6889 42.8595V44.6081L52.0934 45.5399V43.7913L51.9913 43.8551V45.6037L50.3959 46.5355V44.7868L50.2937 44.8507V46.612L48.6983 47.5438V45.7824L48.5962 45.8462V47.5821L47.0007 48.5138V46.778L46.8986 46.8418V48.5776L45.3032 49.5094V47.7735L45.2011 47.8373V49.5732L43.6056 50.505V48.7691L43.5035 48.8329V50.5432L41.908 51.475V49.7647L41.8059 49.8285V51.5388L40.2105 52.4706V50.7475L40.1084 50.8113V52.5344L38.8958 53.2364V53.3512L40.1084 52.6492V56.4017L38.8831 57.1165V57.2314L40.1084 56.5166V60.1415L40.2105 60.0777V56.4528L41.8059 55.5211V59.1459L41.908 59.0821V55.4572L43.5035 54.5255V58.1504L43.6056 58.0865V54.4872L45.2011 53.5555V57.1676L45.3032 57.1037V53.4916L46.8986 52.5599V56.172L47.0007 56.1082V52.4961L48.5962 51.5643V55.1764L48.6983 55.1126V52.2663L51.1617 50.8496V53.6831L51.2382 53.6448V50.8113L53.6889 49.3945V52.2153L53.791 52.1515V48.5904L55.3864 47.6587V51.2325L55.4885 51.1687V47.5948L57.084 46.6631V50.2369L57.1861 50.1731V46.5993L58.7816 45.6675V49.2413L58.8837 49.1775V45.6292L60.4791 44.6975V48.2458L60.5812 48.182V44.6337L62.1767 43.7019V47.2502L62.2788 47.1864V43.6381L63.5552 42.8978V42.7829V42.7319ZM41.8315 55.2147V55.2785L40.236 56.2103V56.1465C40.236 51.9728 40.236 53.4661 40.236 52.4578L41.8315 51.526C41.8315 52.3812 41.8315 50.8368 41.8315 55.2147ZM43.529 54.2319V54.283L41.9336 55.2147V55.1509C41.9336 50.773 41.9336 52.8152 41.9336 51.4622L43.529 50.5305C43.529 52.2025 43.529 49.3562 43.529 54.2319ZM45.2266 53.2491V53.3129L43.6311 54.2447V54.2192V50.4922L45.2266 49.5604V53.2491ZM46.9241 52.3302L45.3287 53.2619V53.1981C45.3287 49.0244 45.3287 50.5177 45.3287 49.5094L46.9241 48.5776V52.3302ZM48.6217 51.3473L47.0262 52.2791V48.5266L48.6217 47.5948V51.3473ZM50.4214 46.5737L52.0168 45.642V49.3945L50.4214 50.3263V46.5737ZM48.7238 47.5565L50.3193 46.6248V50.3773L48.7238 51.3091V47.5565ZM53.7016 49.2158L48.7238 52.0876V51.4112C49.2726 51.0921 52.8592 48.9988 53.7016 48.5138V49.2031V49.2158ZM53.7016 48.3989L52.1062 49.3307V45.5782L53.7016 44.6464V48.3989ZM55.3992 47.4417L53.8037 48.3734V44.6209L55.3992 43.6892V47.4417ZM57.0968 46.4589L55.5013 47.3906V43.6381L57.0968 42.7064V46.4589ZM58.7943 45.4761L57.1989 46.4078V42.6553L58.7943 41.7236V45.4761ZM60.4919 44.5188L58.8964 45.4506V41.698L60.4919 40.7663V44.5188ZM62.1894 43.536L60.594 44.4677V40.7152L62.1894 39.7835V43.536Z" fill="#489B8D"/>
</g>
<path d="M37.045 32.585L37.0322 40.0645L55.1693 29.6239L55.1821 22.1061L37.045 32.585Z" fill="white"/>
<g style="mix-blend-mode:multiply" opacity="0.6">
<path d="M52.6678 29.6236L51.2893 30.4277H53.5357V30.5553H51.0596L49.5918 31.4105H51.8382V31.5381H49.362L47.8942 32.3933H50.1406V32.5209H47.6645L46.1966 33.3761H48.443V33.5037H45.9669L44.4991 34.3589H46.7455V34.4865H44.2693L42.8015 35.3417H45.0479V35.4693H42.5718L41.104 36.3245H43.3504V36.4521H40.8742L39.4064 37.3073H41.6528V37.4349H39.1766L37.7088 38.2901H39.9552V38.4177H37.4791L36.6877 38.8772V32.4443L55.3354 21.7739L55.1567 29.6491H52.655L52.6678 29.6236ZM36.7005 39.3622H38.2704V39.2346H36.7005V39.3622Z" fill="#A09595"/>
</g>
<path opacity="0.7" d="M37.045 32.585L55.1821 22.1061L55.1693 29.6239L37.0322 40.0645L37.045 32.585Z" fill="url(#paint1_linear_3422_15264)"/>
<path d="M36.4838 32.1637L36.4583 40.3962L37.0326 40.0643L37.0454 32.6104L55.1825 22.1314L55.1697 29.6237L55.7313 29.2535L55.7569 21.021L36.4838 32.1637Z" fill="#48484D"/>
<path d="M55.1821 25.782L53.625 26.6882V23.0378L53.5228 23.1017V26.7521L51.9274 27.6838V24.0334L51.8253 24.0972V27.7221L50.2298 28.6538V25.0162L50.1277 25.08V28.7177L48.5323 29.6494V26.0118L48.4301 26.0756V29.7132L46.8347 30.645V27.0073L46.7326 27.0712V30.6833L45.1371 31.615V28.0029L45.035 28.0667V31.6788L43.4396 32.6106V28.9985L43.3374 29.0623V32.6744L41.742 33.6061V29.994L41.6399 30.0578V33.6444L40.0444 34.5762V30.9768L39.9423 31.0406V34.64L38.3469 35.5717V31.9724L38.2448 32.0362V35.6356L37.0322 36.3375V36.4524L38.2448 35.7504V39.4264L38.3469 39.3625C38.3469 35.2016 38.3469 36.6949 38.3469 35.6866L39.9423 34.7549C39.9423 35.61 39.9423 34.0784 39.9423 38.4435L40.0444 38.3797C40.0444 34.0146 40.0444 36.0568 40.0444 34.691L41.6399 33.7593C41.6399 35.4313 41.6399 32.5978 41.6399 37.448L41.742 37.3842V33.721L43.3374 32.7893V36.4652L43.4396 36.4014C43.4396 32.2404 43.4396 33.7338 43.4396 32.7254L45.035 31.7937V35.4824L45.1371 35.4186V31.7299L46.7326 30.7981V34.4868L46.8347 34.423V30.7598L48.4301 29.8281V33.504L48.5323 33.4402V29.7643L50.1277 28.8325V32.5212L50.2298 32.4574V28.7687L51.8253 27.837V31.5257L51.9274 31.4618V27.7987L53.5228 26.8669V30.5429L53.625 30.479V26.8031L55.1821 25.8969V25.782Z" fill="#489B8D"/>
<path d="M40.9764 45.2594L40.9126 59.4653L41.972 58.8526L41.9847 49.6118L60.4282 38.8776L60.4154 48.2078L61.411 47.6334L61.4621 33.4275L40.9764 45.2594Z" fill="#48484D"/>
</g>
<defs>
<filter id="filter0_d_3422_15264" x="0" y="0.778015" width="75.29" height="72.7369" filterUnits="userSpaceOnUse" color-interpolation-filters="sRGB">
<feFlood flood-opacity="0" result="BackgroundImageFix"/>
<feColorMatrix in="SourceAlpha" type="matrix" values="0 0 0 0 0 0 0 0 0 0 0 0 0 0 0 0 0 0 127 0" result="hardAlpha"/>
<feOffset dy="4"/>
<feGaussianBlur stdDeviation="2"/>
<feComposite in2="hardAlpha" operator="out"/>
<feColorMatrix type="matrix" values="0 0 0 0 0 0 0 0 0 0 0 0 0 0 0 0 0 0 0.25 0"/>
<feBlend mode="normal" in2="BackgroundImageFix" result="effect1_dropShadow_3422_15264"/>
<feBlend mode="normal" in="SourceGraphic" in2="effect1_dropShadow_3422_15264" result="shape"/>
</filter>
<linearGradient id="paint0_linear_3422_15264" x1="38.9084" y1="48.8969" x2="63.555" y2="48.8969" gradientUnits="userSpaceOnUse">
<stop stop-color="#72C9B2"/>
<stop offset="0.57" stop-color="#60BCB0"/>
<stop offset="1" stop-color="#51B1AF"/>
</linearGradient>
<linearGradient id="paint1_linear_3422_15264" x1="37.0322" y1="31.0789" x2="55.1821" y2="31.0789" gradientUnits="userSpaceOnUse">
<stop stop-color="#72C9B2"/>
<stop offset="0.57" stop-color="#60BCB0"/>
<stop offset="1" stop-color="#51B1AF"/>
</linearGradient>
</defs>
</svg>
