<svg width="133" height="164" viewBox="0 0 133 164" fill="none" xmlns="http://www.w3.org/2000/svg">
<g filter="url(#filter0_d_3642_35111)">
<path d="M128.858 39.9519L73.835 71.7254L4.65894 31.788L59.6817 0.0144043L128.858 39.9519Z" fill="url(#paint0_linear_3642_35111)"/>
<path d="M128.858 39.9519V123.443L73.835 155.216V71.7255L128.858 39.9519Z" fill="url(#paint1_linear_3642_35111)"/>
<path d="M4.65894 31.788L73.8351 71.7255V155.216L4.65894 115.279V31.788Z" fill="url(#paint2_linear_3642_35111)"/>
<path d="M113.052 33.2295L72.0332 56.9136L20.4648 27.1407L61.4834 3.45654L113.052 33.2295Z" fill="url(#paint3_linear_3642_35111)"/>
<path d="M113.052 33.2295V39.3183L72.0332 63.0024V56.9136L113.052 33.2295Z" fill="url(#paint4_linear_3642_35111)"/>
<path d="M20.4648 27.1405L72.0332 56.9135V63.0022L20.4648 33.2293V27.1405Z" fill="url(#paint5_linear_3642_35111)"/>
<path d="M123.117 78.8581L82.9186 102.07C80.6819 103.362 77.886 101.747 77.886 99.1623V81.6415C77.886 80.4486 78.5197 79.3427 79.5635 78.7338L119.762 55.5218C121.999 54.2295 124.795 55.8449 124.795 58.4296V75.9504C124.795 77.1433 124.161 78.2492 123.117 78.8581Z" fill="#27146E"/>
<path d="M85.3912 85.0587L83.3782 86.2143V83.903L85.3912 82.735V85.0587Z" fill="#00E9FF"/>
<path d="M89.6285 82.6109L87.6279 83.7665V81.4553L89.6285 80.2872V82.6109Z" fill="#00E9FF"/>
<path d="M93.8658 80.1629L91.8652 81.3185V79.0073L93.8658 77.8392V80.1629Z" fill="#00E9FF"/>
<path d="M98.1031 77.7148L96.1025 78.8704V76.5592L98.1031 75.3911V77.7148Z" fill="#00E9FF"/>
<path d="M102.34 75.267L100.34 76.4227V74.1114L102.34 72.9434V75.267Z" fill="#00E9FF"/>
<path d="M106.59 72.8191L104.577 73.9871V71.6634L106.59 70.5078V72.8191Z" fill="#00E9FF"/>
<path d="M110.827 70.3711L108.814 71.5391V69.2154L110.827 68.0598V70.3711Z" fill="#00E9FF"/>
<path d="M115.065 67.9231L113.052 69.0911V66.7674L115.065 65.6118V67.9231Z" fill="#00E9FF"/>
<path d="M119.302 65.4752L117.289 66.6433V64.3196L119.302 63.1639V65.4752Z" fill="#00E9FF"/>
<path d="M85.3912 89.1718L83.3782 90.3275V88.0038L85.3912 86.8481V89.1718Z" fill="#00E9FF"/>
<path d="M89.6285 86.7238L87.6279 87.8795V85.5682L89.6285 84.4001V86.7238Z" fill="#00E9FF"/>
<path d="M93.8658 84.2759L91.8652 85.4316V83.1203L93.8658 81.9523V84.2759Z" fill="#00E9FF"/>
<path d="M98.1031 81.828L96.1025 82.9836V80.6723L98.1031 79.5043V81.828Z" fill="#00E9FF"/>
<path d="M102.34 79.38L100.34 80.5356V78.2243L102.34 77.0563V79.38Z" fill="#00E9FF"/>
<path d="M106.59 76.9321L104.577 78.0877V75.7765L106.59 74.6084V76.9321Z" fill="#00E9FF"/>
<path d="M110.827 74.484L108.814 75.652V73.3283L110.827 72.1727V74.484Z" fill="#00E9FF"/>
<path d="M115.065 72.0362L113.052 73.2043V70.8806L115.065 69.725V72.0362Z" fill="#00E9FF"/>
<path d="M119.302 69.5884L117.289 70.7564V68.4327L119.302 67.2771V69.5884Z" fill="#00E9FF"/>
<path d="M85.3912 93.2847L83.3782 94.4404V92.1167L85.3912 90.9611V93.2847Z" fill="#00E9FF"/>
<path d="M89.6285 90.8369L87.6279 91.9925V89.6688L89.6285 88.5132V90.8369Z" fill="#00E9FF"/>
<path d="M93.8658 88.3889L91.8652 89.5445V87.2332L93.8658 86.0652V88.3889Z" fill="#00E9FF"/>
<path d="M98.1031 85.9409L96.1025 87.0965V84.7852L98.1031 83.6172V85.9409Z" fill="#00E9FF"/>
<path d="M102.34 83.493L100.34 84.6486V82.3374L102.34 81.1693V83.493Z" fill="#00E9FF"/>
<path d="M106.59 81.0452L104.577 82.2009V79.8896L106.59 78.7216V81.0452Z" fill="#00E9FF"/>
<path d="M110.827 78.5972L108.814 79.7529V77.4416L110.827 76.2736V78.5972Z" fill="#00E9FF"/>
<path d="M115.065 76.1493L113.052 77.3173V74.9937L115.065 73.838V76.1493Z" fill="#00E9FF"/>
<path d="M119.302 73.7013L117.289 74.8693V72.5457L119.302 71.39V73.7013Z" fill="#00E9FF"/>
<path d="M122.881 91.5453L86.2611 112.682C84.8943 113.465 83.7883 112.632 83.7883 110.818C83.7883 109.004 84.8943 106.879 86.2611 106.096L122.881 84.9594C124.248 84.1766 125.354 85.0091 125.354 86.8233C125.354 88.6375 124.248 90.7624 122.881 91.5453Z" fill="#4975B2"/>
<path d="M119.439 91.1599L89.7032 108.333C89.318 108.556 89.0073 108.32 89.0073 107.798C89.0073 107.277 89.318 106.68 89.7032 106.456L119.439 89.2835C119.824 89.0599 120.135 89.2959 120.135 89.8178C120.135 90.3273 119.824 90.9362 119.439 91.1599Z" fill="url(#paint6_linear_3642_35111)"/>
<g style="mix-blend-mode:color-dodge" opacity="0.53">
<path d="M18.6758 89.8925L15.5195 88.0658V67.6995L18.6758 69.5261V89.8925Z" fill="#00E9FF"/>
<path d="M27.4858 94.9748L24.3171 93.1481V72.7817L27.4858 74.6084V94.9748Z" fill="#00E9FF"/>
<path d="M36.2834 100.057L33.1147 98.2305V77.8641L36.2834 79.6908V100.057Z" fill="#00E9FF"/>
<path d="M45.0935 105.139L41.9248 103.313V82.9463L45.0935 84.7729V105.139Z" fill="#00E9FF"/>
<path d="M53.8913 110.221L50.7227 108.395V88.0284L53.8913 89.8551V110.221Z" fill="#00E9FF"/>
<path d="M62.6887 115.304L59.5325 113.477V93.1107L62.6887 94.9374V115.304Z" fill="#00E9FF"/>
</g>
<path d="M56.5259 74.1483L55.6934 73.6637V74.6329L56.5259 75.1175V74.1483Z" fill="#00E9FF"/>
<path d="M58.2901 75.1674L57.4575 74.6827V75.652L58.2901 76.1366V75.1674Z" fill="#00E9FF"/>
<path d="M60.0547 76.1863L59.2097 75.7017V76.6709L60.0547 77.1555V76.1863Z" fill="#00E9FF"/>
<path d="M61.8069 77.2051L60.9744 76.7205V77.6897L61.8069 78.1619V77.2051Z" fill="#00E9FF"/>
<path d="M63.5713 78.2241L62.7388 77.7395V78.7087L63.5713 79.1809V78.2241Z" fill="#00E9FF"/>
<path d="M65.336 79.2429L64.5034 78.7583V79.7151L65.336 80.1997V79.2429Z" fill="#00E9FF"/>
<path d="M67.1004 80.2497L66.2678 79.7775V80.7343L67.1004 81.2189V80.2497Z" fill="#00E9FF"/>
<path d="M68.8648 81.2684L68.0198 80.7963V81.7531L68.8648 82.2377V81.2684Z" fill="#00E9FF"/>
<path d="M70.617 82.2876L69.7844 81.803V82.7722L70.617 83.2568V82.2876Z" fill="#00E9FF"/>
<path d="M56.5259 72.4459L55.6934 71.9613V72.9181L56.5259 73.4027V72.4459Z" fill="#00E9FF"/>
<path d="M58.2901 73.4524L57.4575 72.9802V73.937L58.2901 74.4217V73.4524Z" fill="#00E9FF"/>
<path d="M60.0547 74.4714L59.2097 73.9993V74.9561L60.0547 75.4407V74.4714Z" fill="#00E9FF"/>
<path d="M61.8069 75.4904L60.9744 75.0057V75.975L61.8069 76.4596V75.4904Z" fill="#00E9FF"/>
<path d="M63.5713 76.5094L62.7388 76.0248V76.994L63.5713 77.4787V76.5094Z" fill="#00E9FF"/>
<path d="M65.336 77.5282L64.5034 77.0436V78.0128L65.336 78.4974V77.5282Z" fill="#00E9FF"/>
<path d="M67.1004 78.5474L66.2678 78.0627V79.032L67.1004 79.5166V78.5474Z" fill="#00E9FF"/>
<path d="M68.8648 79.5662L68.0198 79.0815V80.0508L68.8648 80.523V79.5662Z" fill="#00E9FF"/>
<path d="M70.617 80.5852L69.7844 80.1006V81.0574L70.617 81.542V80.5852Z" fill="#00E9FF"/>
<path d="M56.5259 70.7312L55.6934 70.2466V71.2158L56.5259 71.7004V70.7312Z" fill="#00E9FF"/>
<path d="M58.2901 71.7501L57.4575 71.2655V72.2347L58.2901 72.7194V71.7501Z" fill="#00E9FF"/>
<path d="M60.0547 72.7692L59.2097 72.2845V73.2538L60.0547 73.726V72.7692Z" fill="#00E9FF"/>
<path d="M61.8069 73.788L60.9744 73.3033V74.2601L61.8069 74.7448V73.788Z" fill="#00E9FF"/>
<path d="M63.5713 74.807L62.7388 74.3224V75.2792L63.5713 75.7638V74.807Z" fill="#00E9FF"/>
<path d="M65.336 75.8135L64.5034 75.3413V76.2981L65.336 76.7827V75.8135Z" fill="#00E9FF"/>
<path d="M67.1004 76.8326L66.2678 76.348V77.3173L67.1004 77.8019V76.8326Z" fill="#00E9FF"/>
<path d="M68.8648 77.8514L68.0198 77.3668V78.3361L68.8648 78.8207V77.8514Z" fill="#00E9FF"/>
<path d="M70.617 78.8705L69.7844 78.3859V79.3551L70.617 79.8397V78.8705Z" fill="#00E9FF"/>
<path d="M40.5828 64.953L39.7502 64.4684V65.4252L40.5828 65.9098V64.953Z" fill="#00E9FF"/>
<path d="M42.3474 65.9718L41.5149 65.4872V66.444L42.3474 66.9286V65.9718Z" fill="#00E9FF"/>
<path d="M44.1121 66.9784L43.2795 66.5062V67.463L44.1121 67.9476V66.9784Z" fill="#00E9FF"/>
<path d="M45.8762 67.9973L45.0312 67.5127V68.4819L45.8762 68.9665V67.9973Z" fill="#00E9FF"/>
<path d="M47.6284 69.0164L46.7959 68.5317V69.501L47.6284 69.9856V69.0164Z" fill="#00E9FF"/>
<path d="M49.3931 70.0353L48.5605 69.5507V70.5199L49.3931 71.0045V70.0353Z" fill="#00E9FF"/>
<path d="M51.1575 71.0543L50.325 70.5697V71.5389L51.1575 72.0236V71.0543Z" fill="#00E9FF"/>
<path d="M52.9219 72.0731L52.0894 71.5885V72.5577L52.9219 73.0299V72.0731Z" fill="#00E9FF"/>
<path d="M54.6866 73.0922L53.854 72.6075V73.5644L54.6866 74.049V73.0922Z" fill="#00E9FF"/>
<path d="M40.5828 63.2383L39.7502 62.7537V63.7229L40.5828 64.2075V63.2383Z" fill="#00E9FF"/>
<path d="M42.3474 64.2571L41.5149 63.7725V64.7417L42.3474 65.2263V64.2571Z" fill="#00E9FF"/>
<path d="M44.1121 65.2761L43.2795 64.7915V65.7607L44.1121 66.2329V65.2761Z" fill="#00E9FF"/>
<path d="M45.8762 66.295L45.0312 65.8104V66.7672L45.8762 67.2518V66.295Z" fill="#00E9FF"/>
<path d="M47.6284 67.3141L46.7959 66.8295V67.7863L47.6284 68.2709V67.3141Z" fill="#00E9FF"/>
<path d="M49.3931 68.3204L48.5605 67.8483V68.8051L49.3931 69.2897V68.3204Z" fill="#00E9FF"/>
<path d="M51.1575 69.3395L50.325 68.8673V69.8241L51.1575 70.3087V69.3395Z" fill="#00E9FF"/>
<path d="M52.9219 70.3584L52.0894 69.8738V70.843L52.9219 71.3276V70.3584Z" fill="#00E9FF"/>
<path d="M54.6866 71.3774L53.854 70.8928V71.8621L54.6866 72.3467V71.3774Z" fill="#00E9FF"/>
<path d="M40.5828 61.5236L39.7502 61.0514V62.0082L40.5828 62.4928V61.5236Z" fill="#00E9FF"/>
<path d="M42.3474 62.5424L41.5149 62.0702V63.027L42.3474 63.5116V62.5424Z" fill="#00E9FF"/>
<path d="M44.1121 63.5613L43.2795 63.0767V64.0459L44.1121 64.5305V63.5613Z" fill="#00E9FF"/>
<path d="M45.8762 64.5803L45.0312 64.0957V65.0649L45.8762 65.5496V64.5803Z" fill="#00E9FF"/>
<path d="M47.6284 65.5991L46.7959 65.1145V66.0837L47.6284 66.5684V65.5991Z" fill="#00E9FF"/>
<path d="M49.3931 66.6182L48.5605 66.1335V67.1028L49.3931 67.575V66.6182Z" fill="#00E9FF"/>
<path d="M51.1575 67.6371L50.325 67.1525V68.1217L51.1575 68.5939V67.6371Z" fill="#00E9FF"/>
<path d="M52.9219 68.6561L52.0894 68.1715V69.1283L52.9219 69.6129V68.6561Z" fill="#00E9FF"/>
<path d="M54.6866 69.6625L53.854 69.1903V70.1471L54.6866 70.6317V69.6625Z" fill="#00E9FF"/>
<path d="M24.6404 55.7458L23.8079 55.2612V56.2305L24.6404 56.7151V55.7458Z" fill="#00E9FF"/>
<path d="M26.4048 56.7646L25.5723 56.28V57.2493L26.4048 57.7339V56.7646Z" fill="#00E9FF"/>
<path d="M28.1695 57.7837L27.3369 57.2991V58.2683L28.1695 58.7405V57.7837Z" fill="#00E9FF"/>
<path d="M29.9341 58.8026L29.1016 58.318V59.2872L29.9341 59.7594V58.8026Z" fill="#00E9FF"/>
<path d="M31.6983 59.8217L30.8657 59.337V60.2939L31.6983 60.7785V59.8217Z" fill="#00E9FF"/>
<path d="M33.4629 60.828L32.6179 60.3558V61.3127L33.4629 61.7973V60.828Z" fill="#00E9FF"/>
<path d="M35.2151 61.8471L34.3826 61.3749V62.3317L35.2151 62.8163V61.8471Z" fill="#00E9FF"/>
<path d="M36.9795 62.8658L36.147 62.3812V63.3505L36.9795 63.8351V62.8658Z" fill="#00E9FF"/>
<path d="M38.7442 63.8849L37.9116 63.4003V64.3695L38.7442 64.8541V63.8849Z" fill="#00E9FF"/>
<path d="M24.6404 54.0309L23.8079 53.5587V54.5155L24.6404 55.0001V54.0309Z" fill="#00E9FF"/>
<path d="M26.4048 55.05L25.5723 54.5778V55.5346L26.4048 56.0192V55.05Z" fill="#00E9FF"/>
<path d="M28.1695 56.0688L27.3369 55.5842V56.5535L28.1695 57.0381V56.0688Z" fill="#00E9FF"/>
<path d="M29.9341 57.0876L29.1016 56.603V57.5723L29.9341 58.0569V57.0876Z" fill="#00E9FF"/>
<path d="M31.6983 58.1067L30.8657 57.6221V58.5913L31.6983 59.0759V58.1067Z" fill="#00E9FF"/>
<path d="M33.4629 59.1256L32.6179 58.641V59.6102L33.4629 60.0824V59.1256Z" fill="#00E9FF"/>
<path d="M35.2151 60.1447L34.3826 59.66V60.6293L35.2151 61.1015V60.1447Z" fill="#00E9FF"/>
<path d="M36.9795 61.1635L36.147 60.6788V61.6356L36.9795 62.1203V61.1635Z" fill="#00E9FF"/>
<path d="M38.7442 62.1822L37.9116 61.6976V62.6544L38.7442 63.1391V62.1822Z" fill="#00E9FF"/>
<path d="M24.6404 52.3285L23.8079 51.8439V52.8131L24.6404 53.2853V52.3285Z" fill="#00E9FF"/>
<path d="M26.4048 53.3474L25.5723 52.8628V53.832L26.4048 54.3042V53.3474Z" fill="#00E9FF"/>
<path d="M28.1695 54.3665L27.3369 53.8818V54.8387L28.1695 55.3233V54.3665Z" fill="#00E9FF"/>
<path d="M29.9341 55.3728L29.1016 54.9006V55.8575L29.9341 56.3421V55.3728Z" fill="#00E9FF"/>
<path d="M31.6983 56.392L30.8657 55.9198V56.8766L31.6983 57.3612V56.392Z" fill="#00E9FF"/>
<path d="M33.4629 57.4109L32.6179 56.9263V57.8955L33.4629 58.3801V57.4109Z" fill="#00E9FF"/>
<path d="M35.2151 58.4299L34.3826 57.9453V58.9145L35.2151 59.3992V58.4299Z" fill="#00E9FF"/>
<path d="M36.9795 59.4487L36.147 58.9641V59.9333L36.9795 60.418V59.4487Z" fill="#00E9FF"/>
<path d="M38.7442 60.4678L37.9116 59.9832V60.9524L38.7442 61.437V60.4678Z" fill="#00E9FF"/>
<path d="M8.70999 46.5379L7.87744 46.0657V47.0225L8.70999 47.5071V46.5379Z" fill="#00E9FF"/>
<path d="M10.4744 47.5567L9.62939 47.0845V48.0413L10.4744 48.5259V47.5567Z" fill="#00E9FF"/>
<path d="M12.2268 48.5756L11.3943 48.0909V49.0602L12.2268 49.5448V48.5756Z" fill="#00E9FF"/>
<path d="M13.991 49.5945L13.1584 49.1099V50.0791L13.991 50.5637V49.5945Z" fill="#00E9FF"/>
<path d="M15.7556 50.6135L14.9231 50.1289V51.0981L15.7556 51.5828V50.6135Z" fill="#00E9FF"/>
<path d="M17.5203 51.6323L16.6877 51.1477V52.1169L17.5203 52.6016V51.6323Z" fill="#00E9FF"/>
<path d="M19.2847 52.6514L18.4397 52.1667V53.136L19.2847 53.6082V52.6514Z" fill="#00E9FF"/>
<path d="M21.0366 53.6703L20.2041 53.1857V54.1425L21.0366 54.6271V53.6703Z" fill="#00E9FF"/>
<path d="M22.8015 54.6891L21.969 54.2045V55.1613L22.8015 55.6459V54.6891Z" fill="#00E9FF"/>
<path d="M8.70999 44.8353L7.87744 44.3507V45.3199L8.70999 45.7921V44.8353Z" fill="#00E9FF"/>
<path d="M10.4744 45.8542L9.62939 45.3696V46.3389L10.4744 46.8111V45.8542Z" fill="#00E9FF"/>
<path d="M12.2268 46.8733L11.3943 46.3887V47.3455L12.2268 47.8301V46.8733Z" fill="#00E9FF"/>
<path d="M13.991 47.8921L13.1584 47.4075V48.3643L13.991 48.8489V47.8921Z" fill="#00E9FF"/>
<path d="M15.7556 48.8987L14.9231 48.4265V49.3833L15.7556 49.8679V48.8987Z" fill="#00E9FF"/>
<path d="M17.5203 49.9176L16.6877 49.433V50.4022L17.5203 50.8868V49.9176Z" fill="#00E9FF"/>
<path d="M19.2847 50.9366L18.4397 50.452V51.4213L19.2847 51.9059V50.9366Z" fill="#00E9FF"/>
<path d="M21.0366 51.9556L20.2041 51.4709V52.4402L21.0366 52.9248V51.9556Z" fill="#00E9FF"/>
<path d="M22.8015 52.9746L21.969 52.49V53.4592L22.8015 53.9438V52.9746Z" fill="#00E9FF"/>
<path d="M8.70999 43.1206L7.87744 42.636V43.6052L8.70999 44.0898V43.1206Z" fill="#00E9FF"/>
<path d="M10.4744 44.1395L9.62939 43.6549V44.6241L10.4744 45.1088V44.1395Z" fill="#00E9FF"/>
<path d="M12.2268 45.1586L11.3943 44.674V45.6432L12.2268 46.1278V45.1586Z" fill="#00E9FF"/>
<path d="M13.991 46.1774L13.1584 45.6927V46.662L13.991 47.1466V46.1774Z" fill="#00E9FF"/>
<path d="M15.7556 47.1964L14.9231 46.7118V47.681L15.7556 48.1532V47.1964Z" fill="#00E9FF"/>
<path d="M17.5203 48.2153L16.6877 47.7307V48.6875L17.5203 49.1721V48.2153Z" fill="#00E9FF"/>
<path d="M19.2847 49.2344L18.4397 48.7498V49.7066L19.2847 50.1912V49.2344Z" fill="#00E9FF"/>
<path d="M21.0366 50.2407L20.2041 49.7686V50.7254L21.0366 51.21V50.2407Z" fill="#00E9FF"/>
<path d="M22.8015 51.2596L21.969 50.7874V51.7442L22.8015 52.2288V51.2596Z" fill="#00E9FF"/>
<path d="M56.5259 83.4806L55.6934 83.0084V83.9652L56.5259 84.4499V83.4806Z" fill="#00E9FF"/>
<path d="M58.2901 84.4995L57.4575 84.0273V84.9842L58.2901 85.4688V84.4995Z" fill="#00E9FF"/>
<path d="M60.0547 85.5186L59.2097 85.0339V86.0032L60.0547 86.4878V85.5186Z" fill="#00E9FF"/>
<path d="M61.8069 86.5375L60.9744 86.0529V87.0221L61.8069 87.5067V86.5375Z" fill="#00E9FF"/>
<path d="M63.5713 87.5565L62.7388 87.0719V88.0412L63.5713 88.5258V87.5565Z" fill="#00E9FF"/>
<path d="M65.336 88.5753L64.5034 88.0907V89.0599L65.336 89.5445V88.5753Z" fill="#00E9FF"/>
<path d="M67.1004 89.5944L66.2678 89.1097V90.079L67.1004 90.5512V89.5944Z" fill="#00E9FF"/>
<path d="M68.8648 90.6133L68.0198 90.1287V91.0855L68.8648 91.5701V90.6133Z" fill="#00E9FF"/>
<path d="M70.617 91.6323L69.7844 91.1477V92.1045L70.617 92.5891V91.6323Z" fill="#00E9FF"/>
<path d="M56.5259 81.7783L55.6934 81.2937V82.2629L56.5259 82.7476V81.7783Z" fill="#00E9FF"/>
<path d="M58.2901 82.7972L57.4575 82.3126V83.2819L58.2901 83.754V82.7972Z" fill="#00E9FF"/>
<path d="M60.0547 83.8163L59.2097 83.3317V84.2885L60.0547 84.7731V83.8163Z" fill="#00E9FF"/>
<path d="M61.8069 84.8351L60.9744 84.3505V85.3073L61.8069 85.7919V84.8351Z" fill="#00E9FF"/>
<path d="M63.5713 85.8417L62.7388 85.3695V86.3263L63.5713 86.8109V85.8417Z" fill="#00E9FF"/>
<path d="M65.336 86.8605L64.5034 86.3759V87.3451L65.336 87.8297V86.8605Z" fill="#00E9FF"/>
<path d="M67.1004 87.8795L66.2678 87.3949V88.3641L67.1004 88.8487V87.8795Z" fill="#00E9FF"/>
<path d="M68.8648 88.8983L68.0198 88.4137V89.3829L68.8648 89.8675V88.8983Z" fill="#00E9FF"/>
<path d="M70.617 89.9174L69.7844 89.4327V90.402L70.617 90.8866V89.9174Z" fill="#00E9FF"/>
<path d="M56.5259 80.0634L55.6934 79.5787V80.548L56.5259 81.0326V80.0634Z" fill="#00E9FF"/>
<path d="M58.2901 81.0823L57.4575 80.5977V81.5669L58.2901 82.0515V81.0823Z" fill="#00E9FF"/>
<path d="M60.0547 82.1013L59.2097 81.6167V82.586L60.0547 83.0706V82.1013Z" fill="#00E9FF"/>
<path d="M61.8069 83.1201L60.9744 82.6355V83.6047L61.8069 84.0893V83.1201Z" fill="#00E9FF"/>
<path d="M63.5713 84.1393L62.7388 83.6547V84.6239L63.5713 85.0961V84.1393Z" fill="#00E9FF"/>
<path d="M65.336 85.1581L64.5034 84.6735V85.6427L65.336 86.1149V85.1581Z" fill="#00E9FF"/>
<path d="M67.1004 86.1771L66.2678 85.6925V86.6493L67.1004 87.1339V86.1771Z" fill="#00E9FF"/>
<path d="M68.8648 87.1835L68.0198 86.7113V87.6681L68.8648 88.1527V87.1835Z" fill="#00E9FF"/>
<path d="M70.617 88.2026L69.7844 87.7305V88.6873L70.617 89.1719V88.2026Z" fill="#00E9FF"/>
<path d="M40.5828 74.2853L39.7502 73.8007V74.7699L40.5828 75.2545V74.2853Z" fill="#00E9FF"/>
<path d="M42.3474 75.3041L41.5149 74.8195V75.7887L42.3474 76.2609V75.3041Z" fill="#00E9FF"/>
<path d="M44.1121 76.3231L43.2795 75.8385V76.7953L44.1121 77.2799V76.3231Z" fill="#00E9FF"/>
<path d="M45.8762 77.342L45.0312 76.8574V77.8142L45.8762 78.2988V77.342Z" fill="#00E9FF"/>
<path d="M47.6284 78.3487L46.7959 77.8765V78.8333L47.6284 79.3179V78.3487Z" fill="#00E9FF"/>
<path d="M49.3931 79.3674L48.5605 78.8953V79.8521L49.3931 80.3367V79.3674Z" fill="#00E9FF"/>
<path d="M51.1575 80.3864L50.325 79.9017V80.871L51.1575 81.3556V80.3864Z" fill="#00E9FF"/>
<path d="M52.9219 81.4051L52.0894 80.9205V81.8898L52.9219 82.3744V81.4051Z" fill="#00E9FF"/>
<path d="M54.6866 82.4243L53.854 81.9397V82.9089L54.6866 83.3935V82.4243Z" fill="#00E9FF"/>
<path d="M40.5828 72.5704L39.7502 72.0983V73.0551L40.5828 73.5397V72.5704Z" fill="#00E9FF"/>
<path d="M42.3474 73.5891L41.5149 73.1045V74.0737L42.3474 74.5583V73.5891Z" fill="#00E9FF"/>
<path d="M44.1121 74.6082L43.2795 74.1235V75.0928L44.1121 75.5774V74.6082Z" fill="#00E9FF"/>
<path d="M45.8762 75.6271L45.0312 75.1425V76.1117L45.8762 76.5963V75.6271Z" fill="#00E9FF"/>
<path d="M47.6284 76.6461L46.7959 76.1615V77.1307L47.6284 77.6029V76.6461Z" fill="#00E9FF"/>
<path d="M49.3931 77.6649L48.5605 77.1803V78.1495L49.3931 78.6217V77.6649Z" fill="#00E9FF"/>
<path d="M51.1575 78.684L50.325 78.1993V79.1562L51.1575 79.6408V78.684Z" fill="#00E9FF"/>
<path d="M52.9219 79.6905L52.0894 79.2183V80.1751L52.9219 80.6597V79.6905Z" fill="#00E9FF"/>
<path d="M54.6866 80.7093L53.854 80.2371V81.1939L54.6866 81.6785V80.7093Z" fill="#00E9FF"/>
<path d="M40.5828 70.868L39.7502 70.3834V71.3527L40.5828 71.8249V70.868Z" fill="#00E9FF"/>
<path d="M42.3474 71.887L41.5149 71.4023V72.3591L42.3474 72.8438V71.887Z" fill="#00E9FF"/>
<path d="M44.1121 72.8935L43.2795 72.4213V73.3781L44.1121 73.8627V72.8935Z" fill="#00E9FF"/>
<path d="M45.8762 73.9122L45.0312 73.4401V74.3969L45.8762 74.8815V73.9122Z" fill="#00E9FF"/>
<path d="M47.6284 74.9314L46.7959 74.4468V75.416L47.6284 75.9006V74.9314Z" fill="#00E9FF"/>
<path d="M49.3931 75.9502L48.5605 75.4656V76.4348L49.3931 76.9194V75.9502Z" fill="#00E9FF"/>
<path d="M51.1575 76.9692L50.325 76.4846V77.4539L51.1575 77.9385V76.9692Z" fill="#00E9FF"/>
<path d="M52.9219 77.9882L52.0894 77.5035V78.4728L52.9219 78.9574V77.9882Z" fill="#00E9FF"/>
<path d="M54.6866 79.0072L53.854 78.5226V79.4918L54.6866 79.964V79.0072Z" fill="#00E9FF"/>
<path d="M24.6404 65.0776L23.8079 64.6055V65.5623L24.6404 66.0469V65.0776Z" fill="#00E9FF"/>
<path d="M26.4048 66.0966L25.5723 65.6119V66.5812L26.4048 67.0658V66.0966Z" fill="#00E9FF"/>
<path d="M28.1695 67.1154L27.3369 66.6307V67.6L28.1695 68.0846V67.1154Z" fill="#00E9FF"/>
<path d="M29.9341 68.1344L29.1016 67.6498V68.619L29.9341 69.1036V68.1344Z" fill="#00E9FF"/>
<path d="M31.6983 69.1533L30.8657 68.6687V69.6379L31.6983 70.1101V69.1533Z" fill="#00E9FF"/>
<path d="M33.4629 70.1724L32.6179 69.6877V70.657L33.4629 71.1292V70.1724Z" fill="#00E9FF"/>
<path d="M35.2151 71.1912L34.3826 70.7065V71.6634L35.2151 72.148V71.1912Z" fill="#00E9FF"/>
<path d="M36.9795 72.2102L36.147 71.7256V72.6824L36.9795 73.167V72.2102Z" fill="#00E9FF"/>
<path d="M38.7442 73.2167L37.9116 72.7445V73.7013L38.7442 74.1859V73.2167Z" fill="#00E9FF"/>
<path d="M24.6404 63.3751L23.8079 62.8905V63.8597L24.6404 64.3319V63.3751Z" fill="#00E9FF"/>
<path d="M26.4048 64.3939L25.5723 63.9093V64.8661L26.4048 65.3507V64.3939Z" fill="#00E9FF"/>
<path d="M28.1695 65.4005L27.3369 64.9283V65.8852L28.1695 66.3698V65.4005Z" fill="#00E9FF"/>
<path d="M29.9341 66.4195L29.1016 65.9473V66.9041L29.9341 67.3887V66.4195Z" fill="#00E9FF"/>
<path d="M31.6983 67.4386L30.8657 66.954V67.9232L31.6983 68.4078V67.4386Z" fill="#00E9FF"/>
<path d="M33.4629 68.4574L32.6179 67.9728V68.942L33.4629 69.4266V68.4574Z" fill="#00E9FF"/>
<path d="M35.2151 69.4764L34.3826 68.9918V69.9611L35.2151 70.4457V69.4764Z" fill="#00E9FF"/>
<path d="M36.9795 70.4952L36.147 70.0106V70.9799L36.9795 71.4645V70.4952Z" fill="#00E9FF"/>
<path d="M38.7442 71.5144L37.9116 71.0298V71.999L38.7442 72.4712V71.5144Z" fill="#00E9FF"/>
<path d="M24.6404 61.6603L23.8079 61.1757V62.1449L24.6404 62.6295V61.6603Z" fill="#00E9FF"/>
<path d="M26.4048 62.6794L25.5723 62.1948V63.1641L26.4048 63.6487V62.6794Z" fill="#00E9FF"/>
<path d="M28.1695 63.6982L27.3369 63.2136V64.1829L28.1695 64.6675V63.6982Z" fill="#00E9FF"/>
<path d="M29.9341 64.7172L29.1016 64.2325V65.2018L29.9341 65.674V64.7172Z" fill="#00E9FF"/>
<path d="M31.6983 65.7362L30.8657 65.2516V66.2084L31.6983 66.693V65.7362Z" fill="#00E9FF"/>
<path d="M33.4629 66.755L32.6179 66.2704V67.2272L33.4629 67.7118V66.755Z" fill="#00E9FF"/>
<path d="M35.2151 67.7616L34.3826 67.2894V68.2462L35.2151 68.7309V67.7616Z" fill="#00E9FF"/>
<path d="M36.9795 68.7805L36.147 68.2959V69.2651L36.9795 69.7498V68.7805Z" fill="#00E9FF"/>
<path d="M38.7442 69.7997L37.9116 69.3151V70.2843L38.7442 70.7689V69.7997Z" fill="#00E9FF"/>
<path d="M8.70999 55.8821L7.87744 55.3975V56.3667L8.70999 56.8389V55.8821Z" fill="#00E9FF"/>
<path d="M10.4744 56.9011L9.62939 56.4165V57.3733L10.4744 57.8579V56.9011Z" fill="#00E9FF"/>
<path d="M12.2268 57.92L11.3943 57.4354V58.3922L12.2268 58.8769V57.92Z" fill="#00E9FF"/>
<path d="M13.991 58.9264L13.1584 58.4542V59.411L13.991 59.8957V58.9264Z" fill="#00E9FF"/>
<path d="M15.7556 59.9456L14.9231 59.4609V60.4302L15.7556 60.9148V59.9456Z" fill="#00E9FF"/>
<path d="M17.5203 60.9644L16.6877 60.4797V61.449L17.5203 61.9336V60.9644Z" fill="#00E9FF"/>
<path d="M19.2847 61.9834L18.4397 61.4988V62.468L19.2847 62.9526V61.9834Z" fill="#00E9FF"/>
<path d="M21.0366 63.0023L20.2041 62.5177V63.4869L21.0366 63.9716V63.0023Z" fill="#00E9FF"/>
<path d="M22.8015 64.0214L21.969 63.5367V64.506L22.8015 64.9782V64.0214Z" fill="#00E9FF"/>
<path d="M8.70999 54.1674L7.87744 53.6827V54.652L8.70999 55.1366V54.1674Z" fill="#00E9FF"/>
<path d="M10.4744 55.1864L9.62939 54.7018V55.671L10.4744 56.1556V55.1864Z" fill="#00E9FF"/>
<path d="M12.2268 56.2053L11.3943 55.7207V56.6899L12.2268 57.1746V56.2053Z" fill="#00E9FF"/>
<path d="M13.991 57.2241L13.1584 56.7395V57.7087L13.991 58.1809V57.2241Z" fill="#00E9FF"/>
<path d="M15.7556 58.2432L14.9231 57.7585V58.7154L15.7556 59.2V58.2432Z" fill="#00E9FF"/>
<path d="M17.5203 59.2621L16.6877 58.7775V59.7343L17.5203 60.2189V59.2621Z" fill="#00E9FF"/>
<path d="M19.2847 60.2687L18.4397 59.7965V60.7533L19.2847 61.2379V60.2687Z" fill="#00E9FF"/>
<path d="M21.0366 61.2875L20.2041 60.8153V61.7721L21.0366 62.2567V61.2875Z" fill="#00E9FF"/>
<path d="M22.8015 62.3066L21.969 61.822V62.7913L22.8015 63.2759V62.3066Z" fill="#00E9FF"/>
<path d="M8.70999 52.4651L7.87744 51.9805V52.9373L8.70999 53.4219V52.4651Z" fill="#00E9FF"/>
<path d="M10.4744 53.4715L9.62939 52.9993V53.9561L10.4744 54.4407V53.4715Z" fill="#00E9FF"/>
<path d="M12.2268 54.4905L11.3943 54.0183V54.9751L12.2268 55.4597V54.4905Z" fill="#00E9FF"/>
<path d="M13.991 55.5094L13.1584 55.0248V55.994L13.991 56.4786V55.5094Z" fill="#00E9FF"/>
<path d="M15.7556 56.5284L14.9231 56.0438V57.0131L15.7556 57.4977V56.5284Z" fill="#00E9FF"/>
<path d="M17.5203 57.5474L16.6877 57.0627V58.032L17.5203 58.5166V57.5474Z" fill="#00E9FF"/>
<path d="M19.2847 58.5664L18.4397 58.0818V59.051L19.2847 59.5232V58.5664Z" fill="#00E9FF"/>
<path d="M21.0366 59.5852L20.2041 59.1006V60.0698L21.0366 60.542V59.5852Z" fill="#00E9FF"/>
<path d="M22.8015 60.6042L21.969 60.1196V61.0764L22.8015 61.561V60.6042Z" fill="#00E9FF"/>
<path d="M89.3054 119.056L85.3042 121.368V116.745L89.3054 114.434V119.056Z" fill="url(#paint7_linear_3642_35111)"/>
<path d="M97.7551 114.185L93.7539 116.484V111.874L97.7551 109.563V114.185Z" fill="url(#paint8_linear_3642_35111)"/>
<path d="M106.192 109.302L102.191 111.613V106.991L106.192 104.692V109.302Z" fill="url(#paint9_linear_3642_35111)"/>
<path d="M114.63 104.431L110.628 106.742V102.12L114.63 99.8083V104.431Z" fill="url(#paint10_linear_3642_35111)"/>
</g>
<defs>
<filter id="filter0_d_3642_35111" x="0.658936" y="0.0144043" width="132.199" height="163.202" filterUnits="userSpaceOnUse" color-interpolation-filters="sRGB">
<feFlood flood-opacity="0" result="BackgroundImageFix"/>
<feColorMatrix in="SourceAlpha" type="matrix" values="0 0 0 0 0 0 0 0 0 0 0 0 0 0 0 0 0 0 127 0" result="hardAlpha"/>
<feOffset dy="4"/>
<feGaussianBlur stdDeviation="2"/>
<feComposite in2="hardAlpha" operator="out"/>
<feColorMatrix type="matrix" values="0 0 0 0 0 0 0 0 0 0 0 0 0 0 0 0 0 0 0.25 0"/>
<feBlend mode="normal" in2="BackgroundImageFix" result="effect1_dropShadow_3642_35111"/>
<feBlend mode="normal" in="SourceGraphic" in2="effect1_dropShadow_3642_35111" result="shape"/>
</filter>
<linearGradient id="paint0_linear_3642_35111" x1="124.857" y1="38.0507" x2="4.67136" y2="33.54" gradientUnits="userSpaceOnUse">
<stop stop-color="#B9C7D0"/>
<stop offset="1" stop-color="#8290AB"/>
</linearGradient>
<linearGradient id="paint1_linear_3642_35111" x1="125.304" y1="37.156" x2="79.551" y2="152.545" gradientUnits="userSpaceOnUse">
<stop stop-color="#2C3987"/>
<stop offset="1" stop-color="#27146E"/>
</linearGradient>
<linearGradient id="paint2_linear_3642_35111" x1="72.2197" y1="63.5491" x2="6.18736" y2="123.53" gradientUnits="userSpaceOnUse">
<stop stop-color="#2E5F97"/>
<stop offset="1" stop-color="#292A7A"/>
</linearGradient>
<linearGradient id="paint3_linear_3642_35111" x1="110.069" y1="31.8005" x2="20.4648" y2="28.4454" gradientUnits="userSpaceOnUse">
<stop stop-color="white"/>
<stop offset="1" stop-color="#8290AB"/>
</linearGradient>
<linearGradient id="paint4_linear_3642_35111" x1="100.588" y1="27.8241" x2="85.2297" y2="66.5687" gradientUnits="userSpaceOnUse">
<stop stop-color="#2C3987"/>
<stop offset="1" stop-color="#27146E"/>
</linearGradient>
<linearGradient id="paint5_linear_3642_35111" x1="55.3698" y1="36.7832" x2="37.1034" y2="53.372" gradientUnits="userSpaceOnUse">
<stop stop-color="#2E5F97"/>
<stop offset="1" stop-color="#292A7A"/>
</linearGradient>
<linearGradient id="paint6_linear_3642_35111" x1="89.0073" y1="98.8143" x2="120.147" y2="98.8143" gradientUnits="userSpaceOnUse">
<stop stop-color="#0064FF" stop-opacity="0.4"/>
<stop offset="1" stop-color="#44FFFF"/>
</linearGradient>
<linearGradient id="paint7_linear_3642_35111" x1="114.381" y1="101.958" x2="84.4965" y2="119.553" gradientUnits="userSpaceOnUse">
<stop stop-color="#44FFFF"/>
<stop offset="1" stop-color="#0064FF" stop-opacity="0.4"/>
</linearGradient>
<linearGradient id="paint8_linear_3642_35111" x1="114.419" y1="102.033" x2="84.5461" y2="119.628" gradientUnits="userSpaceOnUse">
<stop stop-color="#44FFFF"/>
<stop offset="1" stop-color="#0064FF" stop-opacity="0.4"/>
</linearGradient>
<linearGradient id="paint9_linear_3642_35111" x1="114.456" y1="102.107" x2="84.5834" y2="119.703" gradientUnits="userSpaceOnUse">
<stop stop-color="#44FFFF"/>
<stop offset="1" stop-color="#0064FF" stop-opacity="0.4"/>
</linearGradient>
<linearGradient id="paint10_linear_3642_35111" x1="114.505" y1="102.169" x2="84.6206" y2="119.777" gradientUnits="userSpaceOnUse">
<stop stop-color="#44FFFF"/>
<stop offset="1" stop-color="#0064FF" stop-opacity="0.4"/>
</linearGradient>
</defs>
</svg>
