<svg width="68" height="98" viewBox="0 0 68 98" fill="none" xmlns="http://www.w3.org/2000/svg">
<g style="mix-blend-mode:multiply" opacity="0.15">
<path d="M59.124 84.5889C64.094 87.463 64.094 92.1114 59.124 94.9855C54.154 97.8596 46.092 97.8596 41.122 94.9855C36.152 92.1114 36.152 87.463 41.122 84.5889C46.092 81.7148 54.154 81.7148 59.124 84.5889Z" fill="#3D87D4"/>
</g>
<g style="mix-blend-mode:multiply" opacity="0.15">
<path d="M21.7295 79.6397C26.6995 82.5138 26.6995 87.1621 21.7295 90.0362C16.7595 92.9103 8.69751 92.9103 3.7275 90.0362C-1.2425 87.1621 -1.2425 82.5138 3.7275 79.6397C8.69751 76.7656 16.7595 76.7656 21.7295 79.6397Z" fill="#3D87D4"/>
</g>
<path d="M63.5232 53.7519C63.5232 53.7519 64.0939 57.2174 63.876 57.9956C63.6685 58.7737 61.9669 61.3884 61.9669 61.3884L58.9268 61.2432C58.9268 61.2432 60.6284 57.0617 60.4831 54.3018C60.3379 51.5418 63.5232 53.7311 63.5232 53.7311V53.7519Z" fill="#FEC9C9"/>
<path d="M64.2082 54.1773C64.229 54.5819 63.9799 54.9866 63.4404 55.2979C62.4236 55.8789 60.7531 55.8789 59.7466 55.2979C59.2175 54.9866 58.9685 54.6027 58.9788 54.198C58.9788 54.198 59.1552 53.8556 59.4042 53.2435C60.8153 49.944 64.9864 38.8211 61.4068 30.4167V28.2689C61.4171 25.3222 61.4586 20.4144 61.718 20.5597C63.6894 21.7944 66.9889 27.0446 67.2691 34.0067C67.5804 41.5499 64.3535 53.6377 64.2186 54.1773H64.2082Z" fill="#5779BF"/>
<path d="M61.7593 53.15C61.7593 53.15 60.535 53.1915 59.4041 53.2434C60.8152 49.9439 64.9862 38.821 61.4066 30.4166V28.2688L62.7451 27.8434C62.7451 27.8434 66.4596 40.7094 61.7593 53.15Z" fill="#3A4C84"/>
<path d="M26.0354 39.34C26.0354 39.4334 25.2677 40.6058 25.2677 40.6681L21.9993 41.3944C21.9993 41.3944 21.8644 38.4788 21.2937 35.5943C20.9928 34.0794 20.5778 32.5646 20.0071 31.4855C18.3262 28.3313 19.3223 13.5042 19.3223 13.5042C19.3223 13.5042 23.4207 20.0306 26.0354 39.34Z" fill="#5779BF"/>
<path d="M5.30485 84.4328C5.30485 84.4328 4.96247 85.8336 5.00398 86.8815L6.6226 87.7946L7.34889 87.3899C7.34889 87.3899 10.4305 90.1084 12.8896 90.7932C14.4978 91.2394 16.4485 90.9073 17.5898 90.6168C18.1397 90.4819 18.3473 89.8075 17.9737 89.3821C16.6975 87.9399 13.4084 85.7506 12.5472 85.1384C11.4162 84.3187 11.1776 83.4679 11.1776 83.4679L5.30485 84.4328Z" fill="#23314B"/>
<path d="M15.3795 78.6226C15.3795 78.6226 14.8918 80.0025 14.8918 81.092L16.5935 81.8183L17.3198 81.4966C17.3198 81.4966 18.6894 82.5342 19.4157 83.2294C20.142 83.9142 24.4168 85.9479 25.3402 85.5847C25.8694 85.3772 25.9524 83.3124 25.5893 82.6276C25.2261 81.9428 21.6257 79.9922 20.8475 78.4254L15.3795 78.6329V78.6226Z" fill="#23314B"/>
<path d="M22.0926 56.9581C21.8436 61.2537 21.1069 78.0729 21.1069 78.0729C21.1069 78.5398 20.7956 79.0067 20.1835 79.3491C19.7788 79.5878 19.3223 79.733 18.8242 79.816C17.9942 79.9509 17.0811 79.8887 16.3237 79.6189C16.1058 79.5359 15.9086 79.4425 15.7323 79.3491C15.1201 79.0067 14.8088 78.5398 14.8088 78.0729L14.9126 61.8555C14.9126 61.8555 14.3627 59.5002 13.7505 56.7091C13.1487 53.9595 12.4846 50.8053 12.2252 49.0518C11.6961 45.5033 11.8725 40.3672 11.8725 40.3672L18.3885 40.305L20.6608 40.2842C20.6608 40.2842 22.352 52.6833 22.103 56.9581H22.0926Z" fill="#344471"/>
<path d="M16.3963 62.3742L16.3237 79.6291C16.1058 79.5461 15.9087 79.4527 15.7323 79.3593C15.1201 79.0169 14.8088 78.55 14.8088 78.0831L14.9126 61.8657C14.9126 61.8657 14.3627 59.5104 13.7505 56.7194L14.8607 52.8699L16.3963 62.3845V62.3742Z" fill="#23314B"/>
<path d="M15.4731 40.8652V48.1698C15.4731 48.1698 14.5289 59.9567 13.8337 62.8204C13.1385 65.6737 11.4265 83.821 11.4265 83.821C11.4265 84.2879 11.1152 84.7548 10.5031 85.1076C10.3786 85.1802 10.254 85.2425 10.0984 85.3048C9.17495 85.6783 7.95061 85.7509 6.93379 85.4604C6.61214 85.3774 6.30088 85.2529 6.04148 85.1076C5.42931 84.7445 5.11803 84.2776 5.12841 83.8106C5.0039 79.1 5.55381 72.418 5.99997 67.8942C6.32162 64.6154 6.25937 61.3263 5.81321 58.0787C5.29442 54.1877 4.69262 49.2385 4.56811 47.0596C4.5266 46.1672 4.55774 45.2542 4.64074 44.4034C4.87939 41.9754 5.4708 39.9625 5.4708 39.9625L15.4731 40.8652Z" fill="#344471"/>
<path d="M17.6312 48.1695C11.9453 49.2278 5.56419 47.1734 5.56419 47.1734L6.0415 47.8271C5.52271 47.6922 5.07656 47.5677 4.7134 47.4328C4.6719 47.4224 4.61999 47.4017 4.58887 47.3809C4.7445 49.6947 5.3152 54.3638 5.81324 58.0784C6.25939 61.3364 6.31127 64.6151 5.99999 67.8939C5.55383 72.4177 5.00392 79.0894 5.12843 83.8103C5.11805 84.2773 5.42933 84.7442 6.0415 85.1073C6.3009 85.2526 6.61216 85.3771 6.93381 85.4601C7.39034 79.5148 8.30342 67.9458 8.50056 65.6216C8.6977 63.2974 8.03365 53.7828 7.66013 48.9269C13.6262 49.2797 17.6416 48.1695 17.6416 48.1695H17.6312Z" fill="#23314B"/>
<path d="M15.193 48.4704C11.9661 48.6675 9.45521 48.4704 7.58756 48.1591C6.99614 48.0554 6.47734 47.9412 6.02081 47.8271C5.50202 47.7026 5.07662 47.5677 4.70309 47.4432C4.66159 47.4328 4.60972 47.4121 4.57859 47.3913C3.85228 47.0904 3.3646 46.3849 3.35422 45.5859L3.08447 18.9098V17.6958C3.08447 17.6958 5.02473 15.382 8.44874 14.0124C8.94678 13.7945 9.49669 13.6077 10.0674 13.4625C13.0971 12.6635 16.3344 12.9644 18.0671 13.2238C18.8557 13.3483 19.3226 13.4625 19.3226 13.4625C19.4263 13.7011 19.5197 13.9294 19.6131 14.1576C19.7999 14.6142 19.9659 15.0396 20.1112 15.4546C22.3835 21.7838 21.4392 24.7825 21.1383 26.0172C21.1072 26.1313 21.0968 26.3699 21.0761 26.6916C20.9723 29.2959 21.3666 37.8456 21.5222 41.2281C21.5534 41.9025 21.6364 42.5769 21.7298 43.2514C21.7298 43.2825 21.7401 43.324 21.7401 43.3551C21.9165 44.8492 21.5326 48.0969 15.1723 48.4808L15.193 48.4704Z" fill="#4568AB"/>
<path d="M19.6235 14.1473C16.3447 13.8049 8.45913 15.0292 7.81583 15.216C7.17253 15.4235 4.10128 18.5051 4.10128 18.5051L3.08447 18.889V17.675C3.08447 17.675 5.02473 15.3612 8.44874 13.9916C8.94678 13.7737 9.49669 13.587 10.0674 13.4417C13.0971 12.6428 16.3344 12.9437 18.0671 13.2031C18.8557 13.3276 19.3226 13.4417 19.3226 13.4417C19.4263 13.6803 19.5197 13.9086 19.6131 14.1369L19.6235 14.1473Z" fill="#475C91"/>
<path d="M15.9918 14.1474C16.0229 14.8011 14.7571 18.2666 14.5911 18.6816L15.141 15.1227L15.4108 13.5975C15.7532 13.805 15.9814 14.0021 15.9814 14.1474H15.9918Z" fill="#5779BF"/>
<path d="M15.421 13.6078L15.1513 15.133L14.6014 18.6919C13.8958 18.3599 13.1695 17.8203 12.4536 17.1459C10.3161 15.1226 9.00879 13.7945 9.00879 13.7945L9.62096 12.2174C10.3888 11.9891 11.1151 11.8646 11.3226 11.9165C11.3226 11.9165 14.1759 12.8607 15.4314 13.6078H15.421Z" fill="#943E0E"/>
<path d="M26.0669 39.2985C26.0669 39.3815 26.0565 39.4749 26.0565 39.5476C25.9008 40.8445 24.9566 42.2556 23.9191 42.8056C23.8983 42.8159 23.8775 42.8367 23.8464 42.8367C23.8257 42.8574 23.8049 42.8574 23.7738 42.8678C23.7531 42.8782 23.7427 42.8886 23.7116 42.8989C23.2758 43.0857 22.9022 43.0857 22.6117 42.9301C22.4768 42.8471 22.3627 42.7433 22.2589 42.6084C22.207 42.5254 22.1655 42.4631 22.1344 42.3905C22.0203 42.1415 21.9788 41.8302 21.9995 41.4671C21.9995 41.3841 21.9995 41.3218 22.0099 41.2388V41.1973C22.041 41.0105 22.0825 40.8342 22.1344 40.6474C22.1448 40.6059 22.1656 40.554 22.1759 40.5021C22.3316 40.0352 22.5495 39.5787 22.84 39.1844C23.1409 38.7486 23.504 38.3855 23.8879 38.1364C23.8983 38.1261 23.9087 38.1157 23.9294 38.1053C23.9917 38.0638 24.0436 38.0223 24.1058 37.9912C24.1888 37.9601 24.2511 37.9186 24.3237 37.8874C24.6454 37.7525 24.9359 37.7214 25.1849 37.7733C25.2887 37.794 25.3821 37.8355 25.4547 37.877C25.5688 37.9497 25.6726 38.0327 25.7659 38.1468C25.8282 38.2195 25.8697 38.2817 25.9112 38.3751C25.9527 38.4892 25.9942 38.6137 26.015 38.7382C26.0461 38.8939 26.0565 39.091 26.0461 39.2882L26.0669 39.2985Z" fill="#002436"/>
<path d="M15.7532 11.7093L15.4212 13.6081L15.2759 14.4071L15.1825 15.1956L14.5911 18.6923C13.8856 18.3602 13.1592 17.8207 12.4433 17.1463C11.1048 15.8804 10.0776 14.874 9.50697 14.3137C9.42396 14.2203 9.35131 14.1477 9.28906 14.0958C9.2683 14.075 9.25794 14.0543 9.23719 14.0232C9.08155 13.8675 8.99854 13.7845 8.99854 13.7845L9.1542 13.3799L9.61073 12.2074L9.69373 11.9895L9.75598 11.865L12.4537 11.7093L15.2655 11.5537L15.7636 11.7093H15.7532Z" fill="#FEC9C9"/>
<path d="M21.0655 40.3674L20.0176 42.0068L18.6583 44.1442L17.9528 45.1921C17.9528 45.1921 7.577 36.6321 5.80274 33.5713C4.01811 30.5104 -1.14905 21.3901 3.13616 17.6237C3.13616 17.6237 3.76908 17.551 4.59915 17.9557C5.86499 18.5679 7.59775 20.3006 8.23068 25.1046C9.27863 33.0525 21.0759 40.3674 21.0759 40.3674H21.0655Z" fill="#5779BF"/>
<path d="M21.6155 41.3221C21.6259 41.4362 21.6259 41.5608 21.6155 41.6853C21.6155 41.7683 21.6051 41.8409 21.5948 41.9239C21.5844 41.955 21.5844 42.0069 21.574 42.038C21.3976 43.1068 20.6817 44.3103 19.7686 44.964C19.6545 45.047 19.5403 45.1093 19.4366 45.1612C19.3224 45.2338 19.2083 45.2753 19.0942 45.3064C18.9593 45.3583 18.8348 45.3894 18.6895 45.3998H18.5547C18.3368 45.3998 18.1396 45.3272 17.984 45.2234C17.7142 45.0366 17.5378 44.7046 17.4963 44.2377C17.4859 44.0821 17.4859 43.9161 17.4963 43.7501C17.5171 43.6152 17.5378 43.4803 17.5689 43.3246C17.5689 43.3143 17.5793 43.2935 17.5793 43.2831C17.6208 43.0964 17.6935 42.8992 17.7765 42.7125C17.8284 42.5257 17.9217 42.3597 18.0151 42.1833C18.2434 41.7475 18.5443 41.3429 18.8867 41.0005C18.9697 40.9278 19.0319 40.8656 19.1149 40.793C19.1979 40.7203 19.2706 40.6684 19.3536 40.5958C19.4262 40.5543 19.4885 40.5024 19.5611 40.4713C20.5987 39.8384 21.5014 40.1704 21.6155 41.2806C21.6259 41.291 21.6259 41.3014 21.6259 41.3117L21.6155 41.3221Z" fill="#23314B"/>
<path d="M22.9436 39.0805C23.2134 38.707 23.5454 38.3749 23.8982 38.1467C23.9086 38.1363 23.919 38.1259 23.9397 38.1155C24.002 38.074 24.0538 38.0325 24.1161 38.0014C24.1991 37.9703 24.2613 37.9288 24.334 37.8976C24.3651 37.8873 24.4066 37.8769 24.4377 37.8665C24.5311 37.8354 24.6245 37.8043 24.6971 37.7835C24.5 37.8458 24.3132 37.9288 24.1161 38.0429C23.6803 38.2919 23.2756 38.6551 22.9436 39.0805Z" fill="#FEC9C9"/>
<path d="M27.7373 42.5564C27.7373 42.5564 27.7373 42.6601 27.7166 42.6913C27.6543 42.7846 27.5298 42.8261 27.4468 42.7639C27.2497 42.6498 26.8658 42.1725 26.5752 41.7056C26.5545 41.6744 26.5441 41.6641 26.5441 41.6641C26.5026 41.5811 26.3885 41.6433 26.4092 41.7159L27.1044 44.7457C27.1667 45.0051 27.0733 45.2748 26.8762 45.472C26.4922 45.8248 25.7763 46.3954 24.9566 46.4888C24.6557 46.5303 24.3652 46.4058 24.1681 46.1672C24.1577 46.1464 24.1369 46.1257 24.1162 46.0945C23.7842 45.6587 23.3069 44.9947 23.1409 44.6315C23.0371 44.3721 22.8192 43.677 22.6221 42.9403C22.6117 42.878 22.6013 42.8365 22.5909 42.7847C22.5598 42.6809 22.5287 42.5771 22.508 42.4838C22.4665 42.3489 22.4353 42.2244 22.4146 42.1102C22.3731 41.9338 22.3316 41.7886 22.3004 41.6433C22.29 41.6018 22.29 41.5603 22.29 41.5292C22.29 40.419 23.1927 39.0182 24.3029 38.3749C24.6453 38.1674 24.9774 38.0637 25.2575 38.0637C25.4339 38.0637 25.5792 38.0948 25.7037 38.1778C25.7348 38.1985 25.7556 38.2089 25.7867 38.2504L25.9216 38.3853L25.9942 38.4683L26.4819 38.8833L26.596 38.9975C26.9073 39.2465 27.1148 39.5993 27.1978 39.9936L27.7373 42.5668V42.5564Z" fill="#FEC9C9"/>
<g style="mix-blend-mode:color-burn" opacity="0.15">
<path d="M23.369 41.2488C23.4002 42.7118 23.7841 44.6314 24.1161 46.084C23.7841 45.6482 23.3068 44.9841 23.1408 44.621C23.037 44.3616 22.8191 43.6664 22.622 42.9297C22.5908 42.7845 22.539 42.6184 22.5078 42.4732C22.4041 42.0582 22.3107 41.6846 22.2588 41.3837C22.2588 41.3007 22.1758 40.8649 22.1862 40.7923V40.7508C22.1966 40.6886 22.1966 40.6055 22.1966 40.4914C22.4975 39.5368 23.1511 38.6341 23.8982 38.1361C23.9086 38.1257 23.919 38.1153 23.9397 38.105C24.002 38.0635 24.0538 38.022 24.1161 37.9908C24.1991 37.9597 24.2613 37.9182 24.334 37.8871C24.3651 37.8767 24.4066 37.8663 24.4377 37.856C23.9189 38.5408 23.3275 39.6821 23.369 41.2488Z" fill="#CF3838"/>
</g>
<path d="M14.5909 18.6923C14.3004 18.6715 12.329 18.547 10.9594 17.2397C8.77008 15.1541 5.81299 15.3928 5.81299 15.3928C5.81299 15.3928 6.40441 13.9609 7.14109 13.1308C7.44199 12.7884 8.63518 12.1036 9.74539 12.0725C9.73502 12.0829 9.52751 12.4564 9.52751 12.4564C9.52751 12.4564 9.08135 13.8675 9.23699 14.0335C9.25774 14.0543 9.2681 14.075 9.28885 14.1062C9.36149 14.1684 9.42376 14.2411 9.50677 14.3241C10.0774 14.8844 11.1046 15.8908 12.4431 17.1567C13.1279 17.8 13.9165 18.3706 14.5909 18.7026C14.5805 18.7026 14.6013 18.7026 14.5909 18.7026V18.6923Z" fill="#5779BF"/>
<path d="M14.5909 18.6923C14.3004 18.6715 12.329 18.547 10.9594 17.2397C8.77008 15.1541 5.81299 15.3928 5.81299 15.3928C5.81299 15.3928 6.40441 13.9609 7.14109 13.1308C7.44199 12.7884 8.63518 12.1036 9.74539 12.0725C9.61051 12.1866 8.64556 13.0167 8.64556 13.7949C8.64556 14.5731 10.4924 15.7352 11.0424 16.5134C11.5923 17.2812 12.993 18.6196 14.6013 18.7026C14.5702 18.7026 14.6324 18.713 14.6013 18.7026L14.5909 18.6923Z" fill="#475C91"/>
<path d="M15.8049 14.3863C15.6492 15.3927 14.7258 18.298 14.6013 18.6819C14.6739 18.132 15.2861 14.3967 15.2861 14.3967C15.4832 14.3967 15.6493 14.3967 15.8153 14.3863H15.8049Z" fill="#475C91"/>
<path d="M17.4857 44.2371C17.5169 44.5898 17.6206 44.87 17.797 45.0567C16.5415 44.0295 7.44197 36.4137 5.80259 33.5707C5.69883 33.384 5.58471 33.1972 5.46021 32.9689C4.81691 31.8691 3.96607 30.2816 3.19826 28.5281C1.53813 24.7202 0.36569 20.0615 3.12565 17.6231C3.12565 17.6231 3.75855 17.5505 4.58861 17.9552V18.0485C4.58861 18.0485 4.39148 18.2249 4.17358 18.5985C3.45766 19.7502 2.27481 22.811 4.55748 28.4658C4.79613 29.0469 5.04515 29.6072 5.33567 30.1571C6.58076 32.6265 8.27202 34.8366 10.2642 36.7457C12.4638 38.8416 15.5351 41.7157 17.548 43.3344C17.5272 43.4796 17.5065 43.6249 17.4754 43.7598C17.465 43.9258 17.465 44.0918 17.4754 44.2474L17.4857 44.2371Z" fill="#475C91"/>
<path d="M17.9425 45.202C17.9425 45.202 17.901 45.1709 17.8284 45.0982C17.8595 45.1294 17.901 45.1709 17.9425 45.202Z" fill="#002436"/>
<path d="M22.85 39.1946C22.5595 39.5785 22.352 40.0351 22.1963 40.4916C22.1756 40.5642 22.1549 40.6058 22.1445 40.6473C22.0926 40.834 22.0511 41.0104 22.02 41.1972V41.2387C22.0096 41.2906 22.0096 41.3424 22.0096 41.3839C22.0096 41.3839 21.8747 38.4683 21.304 35.5839C21.1588 32.0768 21.0343 28.2585 21.0965 26.6711C21.5842 30.1262 22.4869 36.6214 22.85 39.1843V39.1946Z" fill="#475C91"/>
<g style="mix-blend-mode:color-burn" opacity="0.15">
<path d="M12.6611 14.7698C12.8686 16.7723 14.591 18.6815 14.591 18.6815C13.8854 18.3495 13.1591 17.8099 12.4432 17.1355C11.1047 15.8697 10.0775 14.8632 9.50683 14.3029C9.42383 14.2095 9.35117 14.1369 9.28892 14.085C9.26817 14.0643 9.2578 14.0435 9.23705 14.0124C9.08141 13.8567 8.9984 13.7737 8.9984 13.7737L9.15406 13.3691L9.6106 12.1966L9.69359 11.9787L9.75584 11.8542C9.75584 11.8542 9.6936 10.7855 9.67285 10.7544C9.6521 10.7233 9.63135 10.6818 9.6106 10.6299C9.38233 9.82056 9.00878 9.04238 8.71826 8.24344L8.83241 6.72858L11.8103 7.13323C11.8103 7.13323 12.1215 10.4639 12.4432 11.6986C12.4847 11.8853 12.5366 12.0099 12.5781 12.0825C12.9412 12.7154 15.2758 14.3859 15.2758 14.3859L12.6611 14.7491V14.7698Z" fill="#CF3838"/>
</g>
<path d="M6.03095 47.8271C5.51216 47.7026 5.08676 47.5677 4.71323 47.4432C4.67173 47.4328 4.61982 47.4121 4.5887 47.3913C3.86239 47.0904 3.37473 46.3849 3.36436 45.5859L3.18799 28.5385C3.9558 30.292 4.8066 31.8795 5.4499 32.9794C5.64704 38.1569 5.89605 44.7144 6.02056 47.8271H6.03095Z" fill="#475C91"/>
<path d="M20.2977 8.03617C20.0072 9.02188 19.2913 9.76893 18.9696 10.7235C18.2848 12.7883 17.2784 15.1332 16.0956 15.7661C16.0956 15.7661 15.8258 15.7558 15.4211 15.6831C15.2966 15.6624 15.1721 15.6416 15.0165 15.6001C14.8608 15.5794 14.6948 15.5379 14.4977 15.4964L14.3939 15.4756C13.2837 15.2162 11.8933 14.7182 11.1048 13.857C11.084 13.8466 11.084 13.8259 11.0633 13.8155C11.0633 13.8155 10.7001 13.4938 10.5964 12.1865C10.5964 12.1865 9.77669 12.0516 9.70406 11.7715C9.70406 11.73 9.90118 10.7131 9.88043 10.682C9.87005 10.6509 9.84931 10.599 9.85969 10.5471C9.81819 9.70668 9.63142 8.86624 9.53804 8.0258C9.49654 7.66265 9.4654 7.29949 9.49653 6.92597C9.49653 6.66657 9.51729 6.37605 9.56917 6.10628C9.6833 5.51486 9.94269 4.94419 10.4096 4.53953C10.9906 4.06225 11.8 3.95849 12.5781 3.92736C14.4147 3.84435 16.2616 4.06225 18.0254 4.58104C18.7829 4.79893 19.5507 5.09982 20.0072 5.70162C20.4949 6.36567 20.5364 7.25799 20.2977 8.04655V8.03617Z" fill="#FEC9C9"/>
<g style="mix-blend-mode:color-burn" opacity="0.15">
<path d="M16.0956 15.7559C16.0956 15.7559 15.8258 15.7455 15.4211 15.6729C15.2966 15.6521 15.1721 15.6314 15.0165 15.5899C14.8608 15.5691 14.6948 15.5276 14.4977 15.4861L14.3939 15.4654C13.2837 15.206 11.8933 14.7079 11.1048 13.8467C11.084 13.8364 11.084 13.8156 11.0633 13.8052C11.0633 13.8052 10.7001 13.4836 10.5964 12.1762C10.5964 12.1762 9.77669 12.0413 9.70406 11.7612C9.70406 11.7197 9.90118 10.7029 9.88043 10.6717C9.87005 10.6406 9.84931 10.5887 9.85969 10.5369C9.81819 9.69642 9.63142 8.85598 9.53804 8.01554C9.49654 7.65239 9.4654 7.28924 9.49653 6.91571L10.8246 4.78867L14.1138 4.97543C14.1138 4.97543 13.7298 6.97796 13.6676 7.87028C13.6053 8.77297 11.4575 12.3215 12.1735 13.5562C12.8894 14.7806 16.0956 15.7455 16.0956 15.7455V15.7559Z" fill="#CF3838"/>
</g>
<path d="M20.0488 5.90906C20.0488 5.90906 19.779 8.8454 19.1046 10.4018C19.1046 10.4018 21.0863 9.0218 21.1278 4.93373C21.1693 0.845669 13.8544 -0.679574 11.6444 0.274999C9.43432 1.2192 8.05434 2.8897 8.01283 5.45252C7.97133 8.02572 10.005 10.8272 9.52769 12.0515C9.52769 12.0515 10.4511 11.5016 10.2436 9.04255C10.0361 6.57311 12.0075 7.42392 11.8415 8.27474C11.6755 9.12555 11.385 10.0594 11.385 10.0594L12.0283 10.6197C12.0283 10.6197 12.9932 8.84541 12.8064 7.1749C12.6197 5.5044 12.9413 5.13087 13.5328 5.45252C14.1242 5.77417 18.3056 8.36812 20.0591 5.90906H20.0488Z" fill="#23314B"/>
<path d="M26.4816 38.8729L25.994 38.4579L25.9628 38.4267C25.9628 38.4267 25.9525 38.3956 25.9317 38.3852C25.9006 38.3334 25.8487 38.2815 25.7968 38.2504C25.7761 38.2192 25.7553 38.2088 25.7138 38.1777C25.5893 38.0947 25.4441 38.0636 25.2677 38.0636C24.9771 38.0636 24.6555 38.1673 24.3131 38.3749C23.2029 39.0182 22.3002 40.4189 22.3002 41.5291C22.3002 41.5602 22.3002 41.6017 22.3106 41.6225C22.3106 41.83 22.352 41.9856 22.4247 42.1101C22.4454 42.2243 22.4662 42.3488 22.5077 42.4733C22.5388 42.5771 22.5596 42.6808 22.6011 42.7846C22.5803 42.7846 22.57 42.7742 22.5388 42.7638C22.1342 42.5459 21.937 42.0998 21.937 41.5291C21.937 40.7717 22.3106 39.8897 22.8916 39.153C22.902 39.1323 22.9123 39.1115 22.9539 39.0804C23.2859 38.655 23.7009 38.2919 24.1263 38.0428C24.3235 37.9287 24.5102 37.8353 24.7074 37.7834C25.1535 37.6486 25.5789 37.6693 25.8902 37.8665C26.2326 38.0636 26.4505 38.4164 26.4816 38.8833V38.8729Z" fill="#004E75"/>
<path d="M18.5857 45.441C18.3574 45.441 18.1603 45.3995 17.9943 45.2958C17.6104 45.0675 17.4028 44.6421 17.4028 44.0818C17.4028 43.646 17.5273 43.1791 17.766 42.7122C17.683 42.899 17.6207 43.0961 17.5688 43.2829C17.5377 43.4385 17.517 43.6045 17.4859 43.7498C17.5792 43.895 17.683 44.0507 17.7764 44.2063C17.7971 44.5695 17.9216 44.8392 18.1603 44.9741C18.2018 44.9949 18.2537 45.0156 18.2952 45.026C18.3885 45.1609 18.4819 45.2854 18.5442 45.3891C18.5546 45.3995 18.5649 45.4203 18.5753 45.4306L18.5857 45.441Z" fill="#004E75"/>
<path d="M21.8022 41.353C21.7296 41.3322 21.6673 41.3115 21.5947 41.2803C21.5221 41.2596 21.4598 41.2492 21.3872 41.2388C21.3145 41.0521 21.2211 40.9172 21.0655 40.8342C20.941 40.7616 20.7958 40.7304 20.6297 40.7304C20.36 40.7304 20.0383 40.8238 19.6959 41.0209C19.6751 41.0313 19.6544 41.0417 19.6233 41.0625L19.063 41.0209C19.2082 40.9068 19.3639 40.8031 19.5195 40.7097C20.1732 40.3362 20.7957 40.2635 21.2315 40.5229C21.5324 40.6786 21.7088 40.9691 21.7918 41.3426L21.8022 41.353Z" fill="#004E75"/>
<path d="M25.4025 46.5823C25.2988 47.1322 25.029 48.0453 24.3857 48.6367C24.2716 48.7301 24.1471 48.7924 24.0122 48.8235C23.8566 48.8857 23.6802 48.865 23.5142 48.8235C22.9746 48.6678 22.0823 48.3773 21.7192 48.149C21.1796 47.7963 19.0941 46.105 18.6894 45.5966C18.6687 45.5655 18.6376 45.5032 18.5857 45.4513C18.5753 45.441 18.5649 45.4202 18.5545 45.4098C18.4819 45.3061 18.3989 45.1816 18.3055 45.0467C18.1499 44.808 17.9631 44.5071 17.7764 44.227C17.683 44.0714 17.5792 43.9157 17.4858 43.7705C17.5066 43.6252 17.5273 43.4592 17.5688 43.3036C17.6103 43.1168 17.683 42.9196 17.766 42.7329C17.7764 42.7018 17.7867 42.6499 17.8075 42.6187C17.849 42.4735 17.932 42.349 18.0046 42.2037C18.2329 41.7679 18.5338 41.3633 18.8762 41.0209L19.0837 41.0416L19.644 41.0831L21.2522 41.2284C21.3145 41.2284 21.356 41.2388 21.3975 41.2491C21.4701 41.2595 21.5324 41.2699 21.605 41.2906C21.6777 41.3114 21.7399 41.3321 21.8125 41.3633C22.02 41.4463 22.1964 41.5604 22.3624 41.7161L24.3857 43.5837C24.5206 43.7082 24.4376 43.9261 24.2612 43.9468C24.0226 43.9572 23.3585 43.7497 22.819 43.5318C22.7256 43.5007 22.6737 43.6044 22.7256 43.6563L25.1639 45.8145C25.3714 46.022 25.4648 46.3022 25.4025 46.5823Z" fill="#FEC9C9"/>
<g style="mix-blend-mode:color-burn" opacity="0.15">
<path d="M24.0123 48.8232C23.8567 48.8855 23.6803 48.8647 23.5143 48.8232C22.9748 48.6676 22.0824 48.377 21.7193 48.1488C21.1798 47.796 19.0942 46.1047 18.6896 45.5963C18.6585 45.5548 18.6066 45.4822 18.5547 45.3992C18.2953 45.0257 17.8699 44.3512 17.4963 43.7598C17.5171 43.6145 17.5379 43.4485 17.5794 43.2929C17.6209 43.1061 17.6935 42.909 17.7765 42.7222C17.8284 42.5355 17.9217 42.3695 18.0151 42.1931C18.2434 41.7573 18.5443 41.3526 18.8867 41.0102C18.8867 41.0102 19.862 47.6611 24.0227 48.8336L24.0123 48.8232Z" fill="#CF3838"/>
</g>
<path d="M19.6336 41.0725L19.0733 41.031C18.5545 41.446 18.098 42.0167 17.8075 42.6081C17.7867 42.6393 17.7764 42.6911 17.766 42.7223C17.683 42.909 17.6207 43.1062 17.5688 43.2929C17.5377 43.4486 17.517 43.6146 17.4858 43.7598C17.5792 43.9051 17.683 44.0607 17.7764 44.2164C17.766 44.1852 17.766 44.1334 17.766 44.0919C17.766 43.0543 18.596 41.7158 19.6336 41.0829V41.0725Z" fill="#004E75"/>
<path d="M21.5219 41.052C21.5219 41.052 21.4493 41.052 21.439 41.052L20.8579 41.0105L22.5803 40.2635L22.4454 40.5955C22.269 41.0209 21.7191 41.0624 21.5116 41.0624L21.5219 41.052Z" fill="#004E75"/>
<path d="M38.9016 88.5416C38.9016 88.4378 38.9224 88.3652 38.9535 88.3341C39.2129 87.753 40.4787 87.2031 41.8276 87.9917C42.4294 88.3444 42.9689 88.635 43.384 88.8529C44.3385 89.133 45.2931 89.3509 45.9053 89.3198C46.1854 89.3094 46.4967 89.382 46.8287 89.5377C48.2813 90.181 49.9933 92.059 49.9933 92.059C49.9933 92.059 50.7508 95.0576 50.3772 95.4519C50.0556 95.7839 48.9454 96.5309 47.9078 96.4998C47.7522 96.4998 47.6069 96.4791 47.4616 96.4376C47.0985 96.3338 46.3411 96.0122 45.428 95.5867L45.3346 94.8397C45.3346 94.8397 44.6083 94.9642 43.7886 94.7774C41.9521 93.8332 40.1052 92.7542 39.8666 92.225C39.4723 91.3638 38.8809 89.2679 38.9224 88.552L38.9016 88.5416Z" fill="#23314B"/>
<path d="M62.2367 86.1969L58.5948 84.9103C58.5948 84.9103 58.5118 84.8688 58.3873 84.8065C57.6921 84.433 55.4094 83.219 54.8906 83.0634C53.3862 82.2852 51.7987 82.6587 51.3629 82.8559C51.311 82.8663 51.2799 82.887 51.2695 82.9078C51.0516 83.0634 50.9997 83.5822 51.1346 84.2255C51.2591 84.8584 53.8531 86.9647 54.7765 87.359C54.7973 87.3694 54.818 87.3797 54.8491 87.3901C55.1293 87.5042 55.3887 87.5872 55.617 87.6391C56.0735 87.7533 56.3952 88.1787 56.3952 88.6456V88.7078C56.3952 88.7078 56.4159 88.739 56.4366 88.7493C56.4678 88.7805 56.4885 88.8116 56.5197 88.8427C56.6857 89.0191 56.8309 89.1747 56.9658 89.2681C57.6921 89.7869 58.2732 90.0671 58.8542 90.2123C59.456 90.3576 60.0474 90.3576 60.753 90.3368C61.8528 90.3057 62.3924 89.4134 62.5584 89.0502C62.5999 88.9568 62.6206 88.8635 62.5999 88.7597L62.2575 86.1969H62.2367Z" fill="#23314B"/>
<path d="M63.2743 51.6972C63.2743 51.6972 62.5895 61.1807 62.631 64.6359C62.6725 68.0806 62.88 70.1558 62.9838 70.9236C63.0875 71.681 62.6621 85.6365 62.6621 85.6365C62.6621 86.0826 62.3509 86.5392 61.7491 86.892C60.8256 87.4315 59.4767 87.556 58.3458 87.2759C58.242 87.2551 58.1486 87.224 58.0553 87.1825C57.8062 87.1098 57.578 87.0165 57.3601 86.8816C56.7583 86.5288 56.4574 86.0723 56.4574 85.6261C56.4367 85.6261 56.5819 72.0234 56.4366 69.8341C56.3329 68.3089 55.3991 62.9342 54.8595 59.9253L50.3668 71.6603V91.7582C50.3668 92.2251 50.0659 92.6816 49.4641 93.024C48.5925 93.5428 47.3267 93.6777 46.2373 93.4495C45.8118 93.3665 45.4279 93.2316 45.0855 93.024C44.4837 92.6816 44.1828 92.2251 44.1828 91.7582L43.5188 71.432C43.5188 71.432 43.6537 56.6673 46.2269 48.045L49.2774 47.5988L49.4641 47.5781L62.1433 45.7208C62.1433 45.7208 63.6063 49.591 63.2743 51.6869V51.6972Z" fill="#4568AB"/>
<path d="M36.5047 46.2916L35.2908 48.2215C35.2908 48.2215 34.9795 48.3564 34.5126 48.5535C33.226 49.1138 30.6839 50.1722 30.0925 50.2552C29.2728 50.3693 26.2846 49.9543 25.8488 49.311C25.413 48.6469 25.4338 47.8169 25.4338 47.8169C25.4338 47.8169 26.6166 46.8208 28.5984 46.385C28.7851 46.3435 28.9615 46.302 29.1483 46.2709L29.5322 46.2294C29.5322 46.2294 28.3701 46.0219 27.7475 46.0841C27.1146 46.136 27.9862 45.3059 28.837 45.0465C29.6671 44.7975 31.9082 44.6211 31.9082 44.6211L35.1144 44.4862L35.9548 45.5964L36.4943 46.302L36.5047 46.2916Z" fill="#FEC9C9"/>
<path d="M63.1497 48.9684C59.7879 53.0357 48.3227 52.2783 48.3227 52.2783C48.3227 52.2783 45.6146 68.3504 45.2722 70.8821C44.9402 73.4138 46.1334 93.5532 46.2475 93.4598C45.8221 93.3768 45.4382 93.2419 45.0958 93.0344C44.494 92.692 44.1931 92.2355 44.1931 91.7685L43.5291 71.4424C43.5291 71.4424 43.6432 58.6179 45.7391 49.9022C46.2164 50.4002 47.1502 50.9087 48.8 51.2303C49.2461 51.3237 49.7442 51.3859 50.2941 51.4482C51.2798 51.552 52.4315 51.6038 53.7803 51.5935C58.024 51.552 61.7178 49.7673 63.1497 48.9684Z" fill="#3A4C84"/>
<path d="M55.6687 51.6354C52.0475 52.0193 49.7441 51.8533 48.2707 51.4797C45.988 50.9194 45.739 49.9026 45.739 49.9026L45.8532 48.5123L45.8739 48.3048L45.8946 48.0039L45.9362 47.4747L63.3779 46.7899L63.1185 48.9792C63.1185 48.9792 60.7632 51.0751 55.6583 51.6354H55.6687Z" fill="#344471"/>
<path d="M63.3884 46.8C63.3884 46.8 63.2536 46.9245 63.0979 47.0282C62.9008 47.1631 62.6206 47.3499 62.2264 47.5678C60.7945 48.3667 58.0138 49.508 53.7701 49.5495C52.4212 49.5599 51.2695 49.508 50.2838 49.4043C49.7339 49.342 49.2358 49.2798 48.7897 49.1864C48.5822 49.1449 48.3746 49.1034 48.1983 49.0619C46.922 48.7402 46.1543 48.2941 45.7288 47.8583C45.4591 47.5574 45.3242 47.2772 45.3034 46.9971C45.2723 46.4576 45.6666 45.1917 46.0297 43.708C46.4032 42.162 46.7457 40.3981 46.507 38.9974C46.3099 37.939 45.6251 36.3515 45.044 34.5565C44.878 34.0377 45.4798 33.851 45.3449 33.3114C44.9091 31.5787 44.712 29.7421 45.2515 28.0613C45.4591 27.3972 44.8365 26.6087 45.3138 26.0172C45.3138 26.0172 47.2956 24.0873 50.9893 22.614C51.4251 22.4376 51.8713 22.282 52.3382 22.1263C52.4005 22.1056 52.4523 22.0952 52.4939 22.0744C53.6144 21.7009 54.8699 21.3689 56.2603 21.0991C56.7376 21.0057 57.2356 20.9331 57.744 20.8605C58.958 20.6841 60.2653 20.5699 61.6557 20.5388C61.6764 20.5699 61.7802 20.7152 61.9151 20.9435C61.9773 21.0472 62.0396 21.1717 62.1122 21.317C62.6621 22.4168 63.5026 24.5543 63.2743 27.2831C63.1498 28.7876 62.963 30.2091 62.797 31.6202C62.4961 33.9651 62.2575 36.2789 62.382 38.9974C62.5065 41.6328 62.8281 42.6289 63.0668 44.621C63.2224 45.9388 63.3573 46.7896 63.3573 46.7896L63.3884 46.8Z" fill="#4568AB"/>
<path d="M63.3571 46.8314C63.0977 47.1531 60.4934 49.9442 51.2693 49.6433C48.8414 49.5603 47.0879 49.1245 45.8635 48.5123L45.905 48.0143C46.4238 48.4708 47.3369 48.9066 48.7999 49.1867C49.2461 49.2801 49.7441 49.3424 50.294 49.4046C51.2797 49.5084 52.4314 49.5603 53.7803 49.5499C58.024 49.5084 60.815 48.367 62.2365 47.5681C62.6204 47.3502 62.911 47.1634 63.1081 47.0286C63.2326 46.9455 63.3156 46.8833 63.3571 46.8314Z" fill="#003A57"/>
<path d="M62.133 21.3172C56.3225 21.1616 48.0426 26.1212 48.0426 26.1212C48.0426 26.1212 49.7339 29.2859 50.2527 31.6412C50.7922 34.0068 48.1049 43.8846 47.9908 46.2503C47.8974 48.0349 48.0945 48.782 48.1983 49.0518C46.922 48.7301 46.1543 48.2839 45.7288 47.8482C45.4591 47.5473 45.3242 47.2671 45.3034 46.987C45.2723 46.4474 45.6666 45.1816 46.0297 43.6978C46.4032 42.1518 46.7457 40.388 46.507 38.9872C46.3099 37.9289 45.6251 36.3414 45.044 34.5464C44.878 34.0276 45.4798 33.8408 45.3449 33.3013C44.9091 31.5685 44.712 29.732 45.2515 28.0511C45.4591 27.3871 44.8365 26.5985 45.3138 26.0071C45.3138 26.0071 47.2956 24.0772 50.9893 22.6038C51.4251 22.4275 51.8713 22.2718 52.3382 22.1162C52.4005 22.0954 52.4523 22.0851 52.4939 22.0643C53.6144 21.6908 54.8699 21.3588 56.2603 21.089C56.7376 20.9956 57.2356 20.923 57.744 20.8503C58.958 20.6739 60.2653 20.5598 61.6557 20.5287C61.6764 20.5598 61.7802 20.7051 61.9151 20.9333C61.9773 21.0371 62.0396 21.1616 62.1122 21.3069H62.1018L62.133 21.3172Z" fill="#3A4C84"/>
<path d="M57.7957 19.9581C57.775 20.3731 57.775 20.8504 57.7646 21.2965C57.7646 21.4418 57.7646 21.5456 57.7542 21.6182C57.7439 21.8153 57.6608 22.2719 57.0902 22.5935C56.0733 23.1434 54.8075 23.3094 53.6973 23.3406H53.2511C52.9917 23.3406 52.7531 23.3094 52.5248 23.2472C51.6636 23.0604 51.0722 22.6454 51.0203 22.635C51.0411 22.5209 51.093 21.7946 51.1552 20.342C51.1656 20.1552 51.0515 19.9892 50.8855 19.9373C50.3563 19.7609 49.3394 19.377 48.7273 18.1008C48.2811 17.1877 48.0321 12.5394 48.0217 12.4875C48.0217 12.4149 48.1047 12.4252 48.2707 12.5186C48.4886 12.6224 48.8414 12.8506 49.2772 13.1619C49.3602 13.2034 49.4225 13.2657 49.5158 13.3175C50.6261 14.1165 52.2239 15.3512 53.718 16.534C55.8658 18.2564 57.8061 19.875 57.8061 19.9684L57.7957 19.9581Z" fill="#FEC9C9"/>
<path d="M48.2812 51.4797C45.9985 50.9194 45.7495 49.9026 45.7495 49.9026L45.8636 48.5122L45.8844 48.3047L46.2476 48.3877L48.2293 49.2489L48.2708 51.4901L48.2812 51.4797Z" fill="#23314B"/>
<path d="M58.491 71.1624C58.3665 73.7044 58.1486 83.2398 58.0656 87.193C57.8166 87.1203 57.5883 87.027 57.3704 86.8921C56.7686 86.5393 56.4677 86.0828 56.4677 85.6366C56.447 85.6366 56.5922 72.0339 56.447 69.8446C56.3432 68.3194 55.4094 62.9447 54.8699 59.9358L56.5923 57.4352C56.5923 57.4352 58.6467 67.9251 58.491 71.152V71.1624Z" fill="#3A4C84"/>
<g style="mix-blend-mode:color-burn" opacity="0.15">
<path d="M53.8425 20.3728L53.6973 23.3299H53.2511C52.9917 23.3299 52.7531 23.2988 52.5248 23.2365C51.6636 23.0498 51.0722 22.6347 51.0203 22.6244C51.0411 22.5102 51.093 21.7839 51.1552 20.3313C51.1656 20.1445 51.0515 19.9785 50.8855 19.9267C50.3563 19.7503 49.3394 19.3664 48.7273 18.0901C48.2811 17.1771 48.0321 12.5287 48.0217 12.4768C48.0217 12.4042 48.1047 12.4146 48.2707 12.508C48.4886 12.6117 48.8414 12.84 49.2772 13.1513C49.3602 13.1928 49.4225 13.255 49.5158 13.3069C50.6261 14.1058 52.2239 15.3406 53.718 16.5234L53.8529 20.3728H53.8425Z" fill="#CF3838"/>
</g>
<path d="M60.5247 14.3239C60.2757 14.9153 59.9541 15.486 59.6013 16.0255C59.3004 16.5028 59.0929 16.8037 58.9891 17.3433C58.875 17.9347 58.5222 18.4846 58.2628 19.0241C57.9619 19.6363 57.6507 20.3522 56.9659 20.6013C56.5197 20.7569 56.0217 20.7465 55.5548 20.705C54.953 20.6531 54.0918 20.705 53.5833 20.3419C53.1476 20.0202 52.7533 19.6156 52.359 19.242C52.2345 19.1279 50.6159 17.5612 50.8026 17.4367C51.145 17.2084 51.4459 16.8867 51.5912 16.5028C51.7365 16.1189 51.7157 15.652 51.4771 15.3096C51.2384 14.9672 50.7819 14.7804 50.3876 14.9257C49.9933 15.071 49.7547 15.5586 49.9415 15.9322C49.6613 15.901 49.3708 15.8699 49.0906 15.8492C49.3085 15.8699 49.018 14.2305 48.9661 14.0956C48.8416 13.7429 48.4058 12.7468 47.9285 12.7364C47.7729 12.7364 47.638 12.809 47.5031 12.8921C47.2334 12.4666 46.9947 12.0101 46.8183 11.5432C46.1335 9.77931 47.4305 7.69378 48.9246 6.80146C50.3461 5.95064 52.0789 5.77426 53.7286 5.92989C55.5548 6.10628 57.3913 6.6977 58.8024 7.88054C60.2135 9.06338 61.1369 10.8999 60.9502 12.726C60.8983 13.2863 60.7426 13.8259 60.5247 14.3343V14.3239Z" fill="#23314B"/>
<g style="mix-blend-mode:color-burn" opacity="0.15">
<path d="M34.5231 48.5535C33.2365 49.1138 30.6944 50.1721 30.103 50.2551C29.2833 50.3692 26.2951 49.9542 25.8593 49.3109C25.4235 48.6469 25.4442 47.8168 25.4442 47.8168C25.4442 47.8168 28.3391 49.7986 32.3545 48.5742C33.3091 48.2733 34.025 48.3252 34.5231 48.5639V48.5535Z" fill="#CF3838"/>
</g>
<path d="M50.7713 32.7097L50.5223 33.1559C50.5223 33.1559 48.1358 39.0182 43.8714 43.5524C41.5161 46.0322 37.2516 48.3356 34.2738 49.4355C34.2115 49.4562 34.1596 49.477 34.0974 49.4874C34.087 49.4977 34.0663 49.5081 34.0455 49.5081C32.9146 49.8609 32.0845 49.3213 32.0845 48.1074C32.0845 47.2254 32.5203 46.2086 33.174 45.3578C33.6097 44.7871 34.1285 44.2995 34.7199 43.9674C35.0208 43.7911 35.301 43.6977 35.5604 43.6354C36.7121 43.1062 38.8599 41.9027 40.7275 39.5473C42.7716 36.9534 44.7118 32.3258 44.8363 27.6256C44.8363 27.5841 44.8259 27.5218 44.8259 27.4803C44.8259 25.6957 46.2786 25.0939 48.0528 26.1211C49.8375 27.1483 50.9788 29.2338 50.9788 31.0081C50.9788 31.724 51.0618 32.1805 50.7817 32.7097H50.7713Z" fill="#5779BF"/>
<path d="M48.0528 26.1211C48.0528 26.1211 46.3512 36.4761 41.4435 40.3774C37.7808 43.3034 34.5643 44.7975 33.1636 45.3578C33.5994 44.7871 34.1181 44.2995 34.7096 43.9674C35.0105 43.7911 35.2906 43.6977 35.55 43.6354C36.7017 43.1063 38.8495 41.9027 40.7172 39.5474C42.7612 36.9534 44.7014 32.3258 44.826 27.6256C44.826 27.5841 44.8156 27.5218 44.8156 27.4803C44.8156 25.6957 46.2682 25.0939 48.0425 26.1211H48.0528Z" fill="#3A4C84"/>
<path d="M48.7793 12.477C48.7793 12.477 48.5925 12.4252 48.3435 12.311C47.2955 11.8649 44.6393 10.5783 44.0687 9.36431C43.83 8.83514 43.7159 6.97788 45.2723 6.06481C45.542 5.89879 45.8533 5.77428 46.2372 5.67053C46.3617 5.64977 47.7728 5.54602 47.9077 5.52527C49.2254 5.31775 48.5199 9.74821 48.6963 11.6262C48.7481 12.145 48.7689 12.477 48.7689 12.477H48.7793Z" fill="#232E4C"/>
<path d="M62.5272 10.1526C62.4857 10.2148 60.9293 13.3691 60.9293 13.3691C60.286 14.0642 58.9372 14.4793 58.9372 14.4793C57.2251 15.0396 55.4094 14.749 53.7908 14.3963C53.3135 14.2925 52.8673 14.1784 52.4212 14.0331C52.1618 13.9397 51.892 13.8463 51.6534 13.753C51.5392 13.7115 51.4355 13.6803 51.3317 13.6388C51.2695 13.6181 51.2176 13.587 51.1553 13.5662C50.5743 13.3276 50.0762 13.0993 49.6508 12.871C48.6859 12.3626 48.0426 11.7712 48.0426 11.7712C47.7209 11.3873 47.503 11.1383 47.2644 10.6921C47.0257 10.2252 46.9427 9.71678 46.9531 9.20836L46.7249 7.40297C46.7249 7.40297 46.9946 7.40297 47.42 7.44448C47.4511 7.3926 47.4615 7.34072 47.4927 7.28884C47.7936 6.71817 48.2086 6.19938 48.6755 5.81548C48.7066 5.79473 48.717 5.77397 48.7481 5.75322C48.7585 5.73247 48.7896 5.71172 48.8104 5.69097C50.1281 4.67414 51.8609 4.29023 53.521 4.26948C55.3886 4.22798 57.2874 4.59113 58.8438 5.63909C60.1304 6.50028 61.1264 7.86989 61.4377 9.37438L61.6349 9.20836C61.583 9.30175 62.5583 10.1007 62.5272 10.1733V10.1526Z" fill="#4568AB"/>
<path d="M50.46 71.6918C50.294 71.6918 50.1488 71.5777 50.1073 71.4117L44.9816 48.3982C44.9401 48.201 45.0646 48.0143 45.2514 47.9727C45.4485 47.9312 45.6353 48.0558 45.6768 48.2425L50.8024 71.256C50.8439 71.4532 50.7194 71.6399 50.5327 71.6814C50.5015 71.6814 50.4808 71.6814 50.46 71.6814V71.6918Z" fill="#002436"/>
<path d="M61.9255 29.649L52.2449 33.156V30.0122L61.9255 26.5155V29.649Z" fill="#8FA6D9"/>
</svg>
