<svg width="76" height="74" viewBox="0 0 76 74" fill="none" xmlns="http://www.w3.org/2000/svg">
<g filter="url(#filter0_d_3382_180071)">
<path d="M25.7199 65.0823L20.0515 61.8136V59.1448L25.7199 62.4135V65.0823Z" fill="#DBDBDB"/>
<path d="M31.965 61.4752L25.7197 65.0824V62.4136L31.965 58.8064V61.4752Z" fill="#EDEDED"/>
<path d="M25.7199 62.4138L20.0515 59.145L26.2967 55.5379L31.9651 58.8066L25.7199 62.4138Z" fill="#F4F4F4"/>
<path d="M46.0014 53.3771L40.333 50.1007V47.4318L46.0014 50.7083V53.3771Z" fill="#DBDBDB"/>
<path d="M52.239 49.7698L46.0015 53.377V50.7081L52.239 47.101V49.7698Z" fill="#EDEDED"/>
<path d="M46.0014 50.708L40.333 47.4316L46.5705 43.8321L52.2389 47.1009L46.0014 50.708Z" fill="#F4F4F4"/>
<path d="M49.1472 45.4935V47.4393L49.4164 47.2855V45.3397L49.1472 45.4935Z" fill="#48484D"/>
<path d="M49.1319 44.0938C48.9703 43.7324 48.7473 43.3786 48.4935 43.0863C48.2781 42.8402 48.032 42.6248 47.7705 42.4787C47.3091 42.2095 46.8937 42.1864 46.5861 42.3633L46.3169 42.5171C46.6168 42.3402 47.0399 42.3633 47.5013 42.6325C47.7628 42.7786 48.009 42.994 48.2243 43.2401C48.4858 43.5324 48.7012 43.8862 48.8627 44.2477C49.0473 44.663 49.1549 45.0937 49.1472 45.4936L49.4164 45.3398C49.4164 44.9399 49.3088 44.5015 49.1319 44.0938Z" fill="#5F5F64"/>
<path d="M47.4937 42.6326C46.5784 42.1019 45.8324 42.525 45.8247 43.5786V45.5245L49.1396 47.4396V45.4937C49.1396 44.4401 48.4012 43.1556 47.486 42.6249L47.4937 42.6326Z" fill="#3B3B3F"/>
<path style="mix-blend-mode:screen" d="M48.4857 43.0864L48.2166 43.2402C48.4781 43.5325 48.6934 43.8863 48.8549 44.2478L49.1241 44.0939C48.9626 43.7324 48.7396 43.3787 48.4857 43.0864Z" fill="url(#paint0_linear_3382_180071)"/>
<path d="M46.8706 21.9588L48.7319 20.8744V47.1012L46.8706 48.178V21.9588Z" fill="#48484D"/>
<path d="M48.4166 19.5052C48.2397 19.0976 47.9936 18.713 47.709 18.39C47.4706 18.1131 47.1937 17.8824 46.9091 17.7132C46.4015 17.4209 45.94 17.3902 45.6016 17.5824L43.748 18.6592C44.0788 18.4669 44.5402 18.49 45.0555 18.7899C45.3401 18.9592 45.617 19.1899 45.8554 19.4668C46.14 19.7898 46.3861 20.182 46.563 20.582C46.763 21.0358 46.8784 21.5126 46.8784 21.9587L48.7396 20.8819C48.7396 20.4435 48.6242 19.959 48.4243 19.5052H48.4166Z" fill="#5F5F64"/>
<path style="mix-blend-mode:screen" d="M45.8477 19.4669L47.7012 18.3901C47.9858 18.7132 48.2319 19.1054 48.4088 19.5053L46.5552 20.5821C46.3783 20.1745 46.1322 19.7899 45.8477 19.4669Z" fill="url(#paint1_linear_3382_180071)"/>
<path d="M45.0401 18.79C46.0553 19.3745 46.8706 20.7897 46.8706 21.9588V48.1779L43.2019 46.0629V19.836C43.2019 18.6746 44.0325 18.2055 45.0478 18.79H45.0401Z" fill="#39393D"/>
<path d="M46.2092 47.1932V49.1314L46.4784 48.9776V47.0317L46.2092 47.1932Z" fill="#48484D"/>
<path d="M46.1939 45.7859C46.0324 45.4244 45.8093 45.0706 45.5555 44.7783C45.3402 44.5322 45.094 44.3169 44.8325 44.1707C44.3711 43.9015 43.9557 43.8785 43.6481 44.0554L43.3789 44.2092C43.6789 44.0323 44.1019 44.0554 44.5633 44.3245C44.8248 44.4707 45.071 44.686 45.2863 44.9321C45.5478 45.2244 45.7632 45.5782 45.9247 45.9397C46.1093 46.355 46.2169 46.7857 46.2093 47.1857L46.4784 47.0318C46.4784 46.6319 46.3708 46.1935 46.1939 45.7859Z" fill="#5F5F64"/>
<path d="M44.5633 44.3247C43.648 43.794 42.902 44.217 42.8943 45.2707V47.2165L46.2092 49.1316V47.1858C46.2092 46.1321 45.4708 44.8477 44.5556 44.317L44.5633 44.3247Z" fill="#3B3B3F"/>
<path style="mix-blend-mode:screen" d="M45.5553 44.7784L45.2861 44.9322C45.5476 45.2245 45.763 45.5783 45.9245 45.9398L46.1937 45.786C46.0322 45.4245 45.8091 45.0707 45.5553 44.7784Z" fill="url(#paint2_linear_3382_180071)"/>
<path d="M28.9424 57.1609V59.1068L29.2116 58.9529V57.0071L28.9424 57.1609Z" fill="#48484D"/>
<path d="M28.9195 55.7613C28.7579 55.3998 28.5349 55.046 28.2811 54.7537C28.0657 54.5076 27.8196 54.2922 27.5581 54.1461C27.0967 53.8769 26.6813 53.8539 26.3737 54.0307L26.1045 54.1846C26.4044 54.0077 26.8275 54.0307 27.2889 54.2999C27.5504 54.4461 27.7965 54.6614 28.0119 54.9075C28.2734 55.1998 28.4888 55.5536 28.6503 55.9151C28.8349 56.3304 28.9425 56.7611 28.9348 57.1611L29.204 57.0072C29.204 56.6073 29.0964 56.1689 28.9195 55.7613Z" fill="#5F5F64"/>
<path d="M27.2889 54.3C26.3736 53.7694 25.6276 54.1924 25.6199 55.2461V57.1919L28.9348 59.107V57.1612C28.9348 56.1075 28.1964 54.8231 27.2812 54.2924L27.2889 54.3Z" fill="#3B3B3F"/>
<path style="mix-blend-mode:screen" d="M28.2809 54.7538L28.0117 54.9076C28.2732 55.1999 28.4886 55.5537 28.6501 55.9152L28.9193 55.7614C28.7578 55.3999 28.5347 55.0461 28.2809 54.7538Z" fill="url(#paint3_linear_3382_180071)"/>
<path d="M26.666 33.6181L28.5273 32.5413L28.5196 58.7605L26.666 59.845V33.6181Z" fill="#48484D"/>
<path d="M28.212 31.1647C28.0351 30.7571 27.789 30.3725 27.5044 30.0495C27.266 29.7726 26.9891 29.5418 26.7045 29.3726C26.1969 29.0804 25.7354 29.0496 25.397 29.2419L23.5435 30.3187C23.8742 30.1264 24.3356 30.1495 24.851 30.4494C25.1355 30.6186 25.4124 30.8493 25.6508 31.1262C25.9354 31.4493 26.1815 31.8415 26.3584 32.2414C26.5584 32.6952 26.6738 33.1721 26.6738 33.6182L28.535 32.5414C28.535 32.103 28.4197 31.6185 28.2197 31.1647H28.212Z" fill="#5F5F64"/>
<path style="mix-blend-mode:screen" d="M25.6431 31.1264L27.4966 30.0496C27.7812 30.3726 28.0273 30.7649 28.2042 31.1648L26.3507 32.2416C26.1738 31.8339 25.9276 31.4494 25.6431 31.1264Z" fill="url(#paint4_linear_3382_180071)"/>
<path d="M24.8355 30.4572C25.8507 31.0417 26.666 32.4569 26.666 33.6259V59.8451L22.9973 57.73V31.5109C22.9973 30.3495 23.828 29.8803 24.8432 30.4649L24.8355 30.4572Z" fill="#39393D"/>
<path d="M26.0044 58.8527V60.7985L26.2736 60.6447V58.6988L26.0044 58.8527Z" fill="#48484D"/>
<path d="M25.989 57.453C25.8275 57.0915 25.6045 56.7377 25.3507 56.4455C25.1353 56.1994 24.8892 55.984 24.6277 55.8379C24.1662 55.5687 23.7509 55.5456 23.4433 55.7225L23.1741 55.8763C23.474 55.6994 23.897 55.7225 24.3585 55.9917C24.62 56.1378 24.8661 56.3532 25.0815 56.5993C25.343 56.8916 25.5583 57.2454 25.7198 57.6068C25.9044 58.0222 26.0121 58.4529 26.0044 58.8528L26.2736 58.699C26.2736 58.2991 26.1659 57.8607 25.989 57.453Z" fill="#5F5F64"/>
<path d="M24.3509 55.9918C23.4356 55.4611 22.6896 55.8841 22.6819 56.9378V58.8837L25.9968 60.7988V58.8529C25.9968 57.7992 25.2584 56.5148 24.3432 55.9841L24.3509 55.9918Z" fill="#3B3B3F"/>
<path style="mix-blend-mode:screen" d="M25.3507 56.4456L25.0815 56.5994C25.343 56.8917 25.5584 57.2455 25.7199 57.6069L25.9891 57.4531C25.8276 57.0916 25.6045 56.7378 25.3507 56.4456Z" fill="url(#paint5_linear_3382_180071)"/>
<path d="M28.0425 46.908L60.6069 28.0185L62.1836 22.6962L29.6192 41.578L28.0425 46.908Z" fill="#B8B8B8"/>
<path d="M47.6319 10.0982L62.1836 22.6963L29.6192 41.5781L15.0598 28.9877L47.6319 10.0982Z" fill="#F4F4F4"/>
<path d="M61.499 22.5577L47.6318 10.5518L15.8442 28.9876L29.7114 40.9935L61.499 22.5577Z" fill="#345E7A"/>
<path d="M15.0598 28.9877L13.4832 34.31L28.0425 46.9081L29.6192 41.5782L15.0598 28.9877Z" fill="#C7C7C7"/>
<path d="M36.0337 49.162L70.9746 28.8034L71.29 27.719L36.349 48.0852L36.0337 49.162Z" fill="#EDEDED"/>
<path d="M39.2564 0L71.2901 27.719L36.3491 48.0852L4.31543 20.3585L39.2564 0Z" fill="#F4F4F4"/>
<path d="M69.7749 27.4188L39.2487 0.999701L6.03052 20.3584L36.5567 46.7852L69.7749 27.4188Z" fill="#345E7A"/>
<path d="M4.31534 20.3587L4 21.4431L36.0337 49.1621L36.349 48.0853L4.31534 20.3587Z" fill="#DBDBDB"/>
<path opacity="0.7" d="M17.7442 24.7501C17.5827 24.7501 17.4366 24.7886 17.3135 24.8578L14.96 26.2191C14.8293 26.296 14.7447 26.4114 14.737 26.5345C14.7216 26.6729 14.7908 26.8036 14.9293 26.919L17.1212 28.788C17.2904 28.9341 17.5366 29.0187 17.7904 29.0187C17.9519 29.0187 18.1057 28.9802 18.2211 28.911L20.5746 27.5497C20.7053 27.4728 20.7822 27.3651 20.7976 27.242C20.813 27.1036 20.7361 26.9652 20.5976 26.8421L18.4057 24.9731C18.2365 24.827 17.9903 24.7424 17.7442 24.7424V24.7501Z" fill="#47A7D5"/>
<path opacity="0.7" d="M25.4121 20.3125C25.2505 20.3125 25.0967 20.3509 24.9737 20.4202L22.6202 21.7815C22.4894 21.8584 22.4125 21.9661 22.3971 22.0891C22.3817 22.2276 22.451 22.366 22.5894 22.4814L24.7814 24.3503C24.9506 24.4965 25.2044 24.5811 25.4505 24.5811C25.612 24.5811 25.7582 24.5426 25.8812 24.4734L28.2347 23.1121C28.3655 23.0352 28.4501 22.9275 28.4578 22.7967C28.4731 22.6583 28.4039 22.5198 28.2655 22.4045L26.0735 20.5355C25.9043 20.3971 25.6582 20.3125 25.4121 20.3125Z" fill="#47A7D5"/>
<path opacity="0.7" d="M21.582 22.5275C21.4128 22.5275 21.2666 22.5659 21.1436 22.6351L18.7901 23.9965C18.6593 24.0734 18.5747 24.1887 18.5671 24.3118C18.5517 24.4502 18.6209 24.581 18.7593 24.6964L20.9513 26.5653C21.1205 26.7114 21.3666 26.796 21.6204 26.796C21.782 26.796 21.9358 26.7576 22.0511 26.6884L24.4046 25.327C24.5354 25.2501 24.62 25.1424 24.6277 25.0117C24.6431 24.8733 24.5739 24.7348 24.4354 24.6194L22.2434 22.7505C22.0819 22.6121 21.8281 22.5275 21.582 22.5275Z" fill="#47A7D5"/>
<path opacity="0.7" d="M46.4322 24.0885C46.5937 24.0885 46.7475 24.0501 46.8629 23.9809L49.2164 22.6195C49.3472 22.5426 49.4241 22.4349 49.4318 22.3119C49.4471 22.1734 49.3702 22.035 49.2395 21.9119L47.0475 20.043C46.8783 19.8969 46.6322 19.8123 46.3861 19.8123C46.2246 19.8123 46.0784 19.8507 45.9554 19.9199L43.6019 21.2813C43.4711 21.3582 43.3865 21.4736 43.3788 21.5966C43.3634 21.7351 43.4327 21.8658 43.5711 21.9812L45.7631 23.8501C45.9323 23.9963 46.1784 24.0809 46.4322 24.0809V24.0885Z" fill="#47A7D5"/>
<path opacity="0.7" d="M42.602 26.3116C42.7635 26.3116 42.9173 26.2731 43.0327 26.2039L45.3862 24.8426C45.517 24.7657 45.5939 24.658 45.6016 24.5349C45.6169 24.3965 45.54 24.2581 45.4093 24.1427L43.2173 22.2737C43.0481 22.1276 42.802 22.043 42.5559 22.043C42.3943 22.043 42.2482 22.0815 42.1252 22.1507L39.7717 23.512C39.6332 23.5889 39.5563 23.7043 39.5409 23.8273C39.5255 23.9581 39.5948 24.0965 39.7332 24.2119L41.9252 26.0809C42.0944 26.227 42.3405 26.3116 42.5943 26.3116H42.602Z" fill="#47A7D5"/>
<path opacity="0.7" d="M29.2424 18.0896C29.0809 18.0896 28.927 18.1281 28.804 18.1973L26.4505 19.5586C26.3197 19.6356 26.2428 19.7432 26.2275 19.8663C26.2121 20.0047 26.2813 20.1432 26.4197 20.2585L28.6117 22.1275C28.7809 22.2736 29.0347 22.3582 29.2808 22.3582C29.4424 22.3582 29.5885 22.3198 29.7039 22.2506L32.0574 20.8892C32.1958 20.8123 32.2727 20.6969 32.2804 20.5816C32.2958 20.4431 32.2189 20.3047 32.0804 20.1893L29.8884 18.3204C29.7192 18.1819 29.4731 18.0896 29.2347 18.0896H29.2424Z" fill="#47A7D5"/>
<path opacity="0.7" d="M37.4412 29.3034C37.6028 29.3034 37.7489 29.2649 37.8643 29.2034L40.2178 27.8421C40.3485 27.7652 40.4331 27.6575 40.4408 27.5344C40.4562 27.4037 40.3793 27.2575 40.2485 27.1422L38.0565 25.2732C37.8873 25.1271 37.6412 25.0425 37.4028 25.0425C37.2413 25.0425 37.0875 25.0809 36.9644 25.1502L34.6109 26.5115C34.4801 26.5884 34.4032 26.6961 34.3879 26.8191C34.3725 26.9576 34.4417 27.096 34.5801 27.2114L36.7721 29.0803C36.9413 29.2265 37.1951 29.3111 37.4412 29.3111V29.3034Z" fill="#47A7D5"/>
<path opacity="0.7" d="M34.4033 15.0977C34.2418 15.0977 34.0956 15.1361 33.9726 15.2053L31.6191 16.5667C31.4806 16.6436 31.4037 16.759 31.3883 16.882C31.373 17.0128 31.4422 17.1512 31.5806 17.2666L33.7726 19.1355C33.9418 19.2817 34.1879 19.3663 34.434 19.3663C34.5956 19.3663 34.7494 19.3278 34.8724 19.2586L37.2259 17.8972C37.3567 17.8203 37.4336 17.7127 37.449 17.5896C37.4644 17.4512 37.3874 17.3127 37.249 17.1974L35.057 15.3284C34.8878 15.1823 34.6417 15.0977 34.3956 15.0977H34.4033Z" fill="#47A7D5"/>
<path opacity="0.7" d="M38.8949 13.1059C38.7257 12.9598 38.4796 12.8752 38.2335 12.8752C38.072 12.8752 37.9258 12.9136 37.8028 12.9829L35.4493 14.3442C35.3185 14.4211 35.2339 14.5365 35.2262 14.6595C35.2108 14.798 35.2801 14.9287 35.4185 15.0441L37.6105 16.9131C37.7797 17.0592 38.0258 17.1438 38.2796 17.1438C38.4411 17.1438 38.595 17.1053 38.7103 17.0361L41.0638 15.6748C41.1946 15.5979 41.2715 15.4902 41.2869 15.3671C41.3022 15.2287 41.2253 15.0902 41.0869 14.9749L38.8949 13.1059Z" fill="#47A7D5"/>
<path opacity="0.7" d="M42.4635 16.1516C42.2943 16.0055 42.0405 15.9209 41.7944 15.9209C41.6329 15.9209 41.4867 15.9593 41.3714 16.0285L39.0179 17.3899C38.8871 17.4668 38.8025 17.5745 38.7948 17.7052C38.7795 17.8437 38.8487 17.9821 38.9871 18.0975L41.1791 19.9664C41.3483 20.1049 41.5944 20.1895 41.8405 20.1895C42.002 20.1895 42.1559 20.151 42.2789 20.0818L44.6324 18.7204C44.7632 18.6435 44.8401 18.5359 44.8555 18.4128C44.8709 18.2744 44.8016 18.1359 44.6632 18.0205L42.4712 16.1516H42.4635Z" fill="#47A7D5"/>
<path opacity="0.7" d="M33.3342 36.7867C33.5034 36.7867 33.6495 36.7482 33.7726 36.679L36.1261 35.3177C36.2568 35.2407 36.3414 35.1254 36.3491 35.0023C36.3645 34.8639 36.2953 34.7331 36.1568 34.6178L33.9649 32.7488C33.7957 32.6027 33.5495 32.5181 33.2957 32.5181C33.1342 32.5181 32.9804 32.5565 32.865 32.6258L30.5115 33.9871C30.3808 34.064 30.2962 34.1794 30.2885 34.3024C30.2731 34.4409 30.3423 34.5793 30.4808 34.6947L32.6727 36.5636C32.8343 36.7021 33.0881 36.7867 33.3342 36.7867Z" fill="#47A7D5"/>
<path opacity="0.7" d="M29.5039 39.0095C29.6654 39.0095 29.8192 38.9711 29.9423 38.9019L32.2958 37.5405C32.4265 37.4636 32.5034 37.3559 32.5188 37.2329C32.5342 37.1021 32.465 36.956 32.3265 36.8406L30.1345 34.9717C29.9653 34.8255 29.7115 34.7409 29.4654 34.7409C29.3039 34.7409 29.1578 34.7794 29.0347 34.8486L26.6812 36.2099C26.5505 36.2869 26.4659 36.3945 26.4582 36.5253C26.4428 36.6637 26.512 36.8022 26.6504 36.9175L28.8424 38.7865C29.0116 38.9249 29.2577 39.0095 29.5039 39.0095Z" fill="#47A7D5"/>
<path opacity="0.7" d="M38.0104 22.4044C38.1719 22.4044 38.3258 22.366 38.4488 22.2967L40.8023 20.9354C40.9331 20.8585 41.01 20.7508 41.0253 20.6278C41.0407 20.4893 40.9715 20.3509 40.8331 20.2355L38.6411 18.3666C38.4719 18.2204 38.2181 18.1358 37.972 18.1358C37.8104 18.1358 37.6643 18.1743 37.5413 18.2435L35.1878 19.6048C35.0493 19.6818 34.9724 19.7971 34.957 19.9202C34.9416 20.0586 35.0185 20.1971 35.157 20.3124L37.349 22.1814C37.5182 22.3198 37.7643 22.4121 38.0027 22.4121L38.0104 22.4044Z" fill="#47A7D5"/>
<path opacity="0.7" d="M28.9809 23.3503C28.8194 23.3503 28.6655 23.3887 28.5502 23.4579L26.1967 24.8193C26.0659 24.8962 25.989 25.0039 25.9736 25.1269C25.9582 25.2654 26.0351 25.4038 26.1736 25.5192L28.3656 27.3881C28.5348 27.5343 28.7809 27.6189 29.027 27.6189C29.1885 27.6189 29.3347 27.5804 29.4577 27.5112L31.8112 26.1499C31.942 26.0729 32.0266 25.9576 32.0343 25.8345C32.0496 25.6961 31.9804 25.5653 31.842 25.45L29.65 23.581C29.4808 23.4349 29.2347 23.3503 28.9809 23.3503Z" fill="#47A7D5"/>
<path opacity="0.7" d="M32.8111 21.1278C32.6496 21.1278 32.4957 21.1662 32.3727 21.2355L30.0192 22.5968C29.8884 22.6737 29.8115 22.7814 29.7961 22.9045C29.7807 23.0429 29.8577 23.1813 29.9961 23.2967L32.1881 25.1657C32.3573 25.3118 32.6034 25.3964 32.8495 25.3964C33.011 25.3964 33.1572 25.3579 33.2802 25.2887L35.6337 23.9274C35.7722 23.8505 35.8491 23.7351 35.8645 23.612C35.8798 23.4813 35.8106 23.3428 35.6722 23.2275L33.4802 21.3585C33.311 21.2124 33.0649 21.1278 32.8188 21.1278H32.8111Z" fill="#47A7D5"/>
<path opacity="0.7" d="M25.1431 25.5731C24.9816 25.5731 24.8278 25.6116 24.7124 25.6808L22.3589 27.0421C22.2282 27.119 22.1436 27.2267 22.1359 27.3575C22.1205 27.4959 22.1897 27.6344 22.3282 27.7497L24.5202 29.6187C24.6894 29.7571 24.9355 29.8417 25.1816 29.8417C25.3431 29.8417 25.4969 29.8033 25.62 29.734L27.9735 28.3727C28.1042 28.2958 28.1888 28.1804 28.1965 28.0574C28.2119 27.9189 28.1427 27.7882 28.0043 27.6728L25.8123 25.8039C25.6431 25.6577 25.397 25.5731 25.1431 25.5731Z" fill="#47A7D5"/>
<path opacity="0.7" d="M21.3053 27.796C21.1437 27.796 20.9976 27.8344 20.8745 27.9036L18.5211 29.265C18.3903 29.3419 18.3057 29.4496 18.298 29.5803C18.2826 29.7188 18.3518 29.8572 18.4903 29.9726L20.6823 31.8415C20.8438 31.98 21.0899 32.0646 21.3437 32.0646C21.5052 32.0646 21.659 32.0261 21.7821 31.9569L24.1356 30.5956C24.2664 30.5186 24.3433 30.411 24.3586 30.2879C24.374 30.1495 24.3048 30.011 24.1664 29.8957L21.9744 28.0267C21.8052 27.8806 21.5514 27.796 21.3053 27.796Z" fill="#47A7D5"/>
<path opacity="0.7" d="M58.1843 23.2426C58.1689 23.3811 58.2458 23.5195 58.3766 23.6426L60.5686 25.5115C60.7378 25.6577 60.9839 25.7423 61.23 25.7423C61.3915 25.7423 61.5377 25.7038 61.6607 25.6346L64.0142 24.2733C64.1527 24.1963 64.2296 24.081 64.245 23.9579C64.2603 23.8272 64.1911 23.6887 64.0527 23.5734L61.8607 21.7044C61.6915 21.5583 61.4454 21.4737 61.1916 21.4737C61.0301 21.4737 60.8762 21.5121 60.7609 21.5813L58.4074 22.9427C58.2766 23.0196 58.1997 23.1273 58.192 23.2503L58.1843 23.2426Z" fill="#47A7D5"/>
<path opacity="0.7" d="M29.773 33.7487C29.9345 33.7487 30.0884 33.7103 30.2037 33.641L32.5572 32.2797C32.688 32.2028 32.7649 32.0951 32.7803 31.972C32.7957 31.8336 32.7187 31.6952 32.588 31.5798L30.396 29.7108C30.2268 29.5724 29.9807 29.4878 29.7346 29.4878C29.5731 29.4878 29.4192 29.5263 29.2962 29.5955L26.9427 30.9568C26.8119 31.0337 26.7273 31.1491 26.7196 31.2722C26.7043 31.4106 26.7735 31.549 26.9119 31.6567L29.1039 33.5257C29.2731 33.6718 29.5192 33.7564 29.773 33.7564V33.7487Z" fill="#47A7D5"/>
<path opacity="0.7" d="M25.943 35.964C26.1045 35.964 26.2583 35.9256 26.3737 35.8564L28.7272 34.495C28.8579 34.4181 28.9348 34.3104 28.9425 34.1874C28.9579 34.0489 28.881 33.9105 28.7502 33.7874L26.5582 31.9185C26.389 31.7723 26.1429 31.6877 25.8968 31.6877C25.7353 31.6877 25.5892 31.7262 25.4661 31.7954L23.1126 33.1568C22.9819 33.2337 22.8973 33.349 22.8896 33.4721C22.8742 33.6105 22.9434 33.7413 23.0818 33.8567L25.2738 35.7256C25.443 35.8717 25.6891 35.9563 25.943 35.9563V35.964Z" fill="#47A7D5"/>
<path opacity="0.7" d="M37.172 34.5642C37.3335 34.5642 37.4797 34.5257 37.6027 34.4565L39.9562 33.0952C40.087 33.0183 40.1716 32.9029 40.1793 32.7798C40.1947 32.6414 40.1254 32.5107 39.987 32.3953L37.795 30.5263C37.6258 30.3802 37.3797 30.2956 37.1259 30.2956C36.9644 30.2956 36.8105 30.3341 36.6952 30.4033L34.3417 31.7646C34.2109 31.8415 34.134 31.9492 34.1186 32.0723C34.1033 32.2107 34.1802 32.3491 34.3186 32.4645L36.5106 34.3335C36.6798 34.4796 36.9259 34.5642 37.172 34.5642Z" fill="#47A7D5"/>
<path opacity="0.7" d="M33.611 31.5262C33.7726 31.5262 33.9187 31.4878 34.0341 31.4262L36.3876 30.0649C36.5183 29.988 36.5952 29.8803 36.6106 29.7496C36.626 29.6111 36.5491 29.4727 36.4183 29.3573L34.2263 27.4884C34.0648 27.3499 33.811 27.2653 33.5649 27.2653C33.4034 27.2653 33.2496 27.3038 33.1265 27.373L30.773 28.7343C30.6423 28.8112 30.5653 28.9189 30.55 29.042C30.5346 29.1804 30.6038 29.3189 30.7422 29.4342L32.9342 31.3032C33.1034 31.4493 33.3572 31.5339 33.6034 31.5339L33.611 31.5262Z" fill="#47A7D5"/>
<path opacity="0.7" d="M38.1412 6.3914C38.3104 6.53753 38.5565 6.62214 38.8027 6.62214C38.9642 6.62214 39.1103 6.58368 39.2334 6.51446L41.5869 5.15312C41.7253 5.07621 41.8022 4.96085 41.8176 4.83779C41.833 4.70704 41.7638 4.5686 41.6253 4.45323L39.4333 2.58428C39.2641 2.43814 39.018 2.35354 38.7642 2.35354C38.6027 2.35354 38.4489 2.392 38.3335 2.46122L35.98 3.82255C35.8492 3.89947 35.7723 4.00714 35.7646 4.1302C35.7493 4.26864 35.8262 4.40708 35.9569 4.53014L38.1489 6.3991L38.1412 6.3914Z" fill="#47A7D5"/>
<path opacity="0.7" d="M30.473 10.829C30.6345 10.9675 30.8883 11.0521 31.1344 11.0521C31.296 11.0521 31.4498 11.0136 31.5728 10.9444L33.9263 9.58306C34.0571 9.50614 34.134 9.39847 34.1494 9.27541C34.1648 9.13697 34.0955 8.99853 33.9571 8.88316L31.7651 7.01421C31.5959 6.86807 31.3421 6.78347 31.096 6.78347C30.9345 6.78347 30.7883 6.82193 30.673 6.88345L28.3195 8.24479C28.1887 8.3217 28.1118 8.42938 28.0964 8.55244C28.081 8.69088 28.158 8.82932 28.2887 8.94469L30.4807 10.8136L30.473 10.829Z" fill="#47A7D5"/>
<path opacity="0.7" d="M34.311 8.60637C34.4802 8.7525 34.7263 8.8371 34.9725 8.8371C35.134 8.8371 35.2801 8.79865 35.4032 8.72943L37.7567 7.36809C37.8874 7.29118 37.972 7.17581 37.9797 7.05275C37.9951 6.91431 37.9259 6.78356 37.7874 6.66819L35.5954 4.79924C35.4262 4.65311 35.1801 4.56851 34.9263 4.56851C34.7648 4.56851 34.611 4.60696 34.4956 4.67618L32.1421 6.03752C32.0114 6.11443 31.9344 6.22211 31.9268 6.34516C31.9114 6.4836 31.9883 6.62205 32.119 6.7451L34.311 8.61406V8.60637Z" fill="#47A7D5"/>
<path opacity="0.7" d="M26.6428 13.0521C26.812 13.1905 27.0581 13.2828 27.2965 13.2828C27.4581 13.2828 27.6119 13.2443 27.7349 13.1751L30.0884 11.8138C30.2192 11.7369 30.2961 11.6292 30.3115 11.5061C30.3269 11.3677 30.2576 11.237 30.1192 11.1139L27.9272 9.24494C27.758 9.09881 27.5119 9.01421 27.2581 9.01421C27.0966 9.01421 26.9504 9.05267 26.8351 9.1142L24.4816 10.4755C24.3508 10.5524 24.2662 10.6601 24.2585 10.7832C24.2432 10.9216 24.3201 11.0601 24.4508 11.1754L26.6428 13.0444V13.0521Z" fill="#47A7D5"/>
<path opacity="0.7" d="M13.8139 20.4892C13.9755 20.6276 14.2293 20.7122 14.4754 20.7122C14.6446 20.7122 14.7907 20.6738 14.9138 20.6045L17.2673 19.2432C17.398 19.1663 17.4826 19.0509 17.4903 18.9279C17.5057 18.7894 17.4365 18.6587 17.298 18.5433L15.1061 16.6744C14.9369 16.5282 14.6907 16.4436 14.4369 16.4436C14.2754 16.4436 14.1216 16.4821 14.0062 16.5513L11.6527 17.9126C11.522 17.9895 11.4451 18.0972 11.4297 18.2203C11.4143 18.3587 11.4912 18.4972 11.622 18.6125L13.8139 20.4815V20.4892Z" fill="#47A7D5"/>
<path opacity="0.7" d="M17.6518 18.259C17.821 18.4051 18.0672 18.4897 18.3133 18.4897C18.4748 18.4897 18.6209 18.4513 18.744 18.3821L21.0975 17.0207C21.2282 16.9438 21.3128 16.8284 21.3205 16.7054C21.3359 16.5669 21.2667 16.4362 21.1282 16.3208L18.9363 14.4519C18.7671 14.3057 18.5209 14.2211 18.2671 14.2211C18.1056 14.2211 17.9518 14.2596 17.8364 14.3288L15.4829 15.6902C15.3522 15.7671 15.2753 15.8747 15.2676 15.9978C15.2522 16.1362 15.3291 16.2747 15.4598 16.3977L17.6518 18.2667V18.259Z" fill="#47A7D5"/>
<path opacity="0.7" d="M21.482 16.0437C21.6512 16.1898 21.8974 16.2744 22.1435 16.2744C22.305 16.2744 22.4511 16.2359 22.5742 16.1667L24.9277 14.8054C25.0661 14.7285 25.143 14.6131 25.1584 14.49C25.1738 14.3593 25.1046 14.2209 24.9661 14.1055L22.7741 12.2365C22.6049 12.0904 22.3588 12.0058 22.105 12.0058C21.9435 12.0058 21.7897 12.0443 21.6743 12.1135L19.3208 13.4748C19.1901 13.5517 19.1132 13.6594 19.1055 13.7825C19.0901 13.9209 19.167 14.0593 19.2977 14.1824L21.4897 16.0514L21.482 16.0437Z" fill="#47A7D5"/>
<path opacity="0.7" d="M46.4629 13.2518C46.4475 13.3903 46.5244 13.5287 46.6629 13.6441L48.8548 15.513C49.024 15.6592 49.2702 15.7438 49.5163 15.7438C49.6778 15.7438 49.8239 15.7053 49.947 15.6361L52.3005 14.2747C52.4389 14.1978 52.5158 14.0825 52.5312 13.9594C52.5466 13.8287 52.4774 13.6902 52.3389 13.5748L50.1469 11.7059C49.9777 11.5598 49.7316 11.4752 49.4855 11.4752C49.324 11.4752 49.1702 11.5136 49.0471 11.5828L46.6936 12.9442C46.5629 13.0211 46.486 13.1288 46.4706 13.2518H46.4629Z" fill="#47A7D5"/>
<path opacity="0.7" d="M54.6155 20.2047C54.6001 20.3431 54.677 20.4815 54.8154 20.5969L57.0074 22.4659C57.1766 22.612 57.4227 22.6966 57.6689 22.6966C57.8304 22.6966 57.9765 22.6581 58.0996 22.5889L60.4531 21.2276C60.5915 21.1507 60.6684 21.0353 60.6838 20.9122C60.6992 20.7815 60.63 20.6431 60.4915 20.5277L58.2995 18.6587C58.1303 18.5126 57.8842 18.428 57.6381 18.428C57.4766 18.428 57.3228 18.4665 57.1997 18.5357L54.8462 19.897C54.7155 19.9739 54.6385 20.0816 54.6232 20.2047H54.6155Z" fill="#47A7D5"/>
<path opacity="0.7" d="M51.0468 17.1588C51.0314 17.2972 51.1006 17.4357 51.2391 17.5511L53.431 19.42C53.6003 19.5661 53.8541 19.6507 54.1002 19.6507C54.2617 19.6507 54.4078 19.6123 54.5232 19.5508L56.8767 18.1894C57.0074 18.1125 57.092 18.0048 57.0997 17.8818C57.1151 17.7433 57.0382 17.6049 56.9075 17.4895L54.7155 15.6206C54.5463 15.4744 54.3001 15.3898 54.0617 15.3898C53.9002 15.3898 53.7464 15.4283 53.6233 15.4975L51.2698 16.8589C51.1391 16.9358 51.0622 17.0434 51.0468 17.1665V17.1588Z" fill="#47A7D5"/>
<path opacity="0.7" d="M57.3997 27.9497C57.5612 27.9497 57.7073 27.9113 57.8304 27.842L60.1839 26.4807C60.3146 26.4038 60.3992 26.2884 60.4069 26.1654C60.4223 26.0269 60.3531 25.8962 60.2147 25.7808L58.0227 23.9119C57.8535 23.7657 57.6074 23.6811 57.3535 23.6811C57.192 23.6811 57.0382 23.7196 56.9228 23.7888L54.5693 25.1501C54.4386 25.2271 54.3617 25.3347 54.354 25.4578C54.3386 25.5962 54.4155 25.7347 54.5463 25.8577L56.7383 27.7267C56.9075 27.8728 57.1536 27.9574 57.3997 27.9574V27.9497Z" fill="#47A7D5"/>
<path opacity="0.7" d="M39.3256 7.17569C39.3102 7.31413 39.3794 7.44488 39.5179 7.56794L41.7099 9.43689C41.8791 9.58302 42.1252 9.66763 42.379 9.66763C42.5405 9.66763 42.6866 9.62917 42.802 9.56764L45.1555 8.20631C45.2862 8.12939 45.3708 8.02172 45.3785 7.89866C45.3939 7.76022 45.317 7.62178 45.1863 7.50641L42.9943 5.63746C42.8251 5.49902 42.579 5.40672 42.3405 5.40672C42.179 5.40672 42.0252 5.44518 41.9021 5.5144L39.5486 6.87574C39.4179 6.95265 39.341 7.06032 39.3256 7.18338V7.17569Z" fill="#47A7D5"/>
<path opacity="0.7" d="M42.8942 10.2138C42.8788 10.3523 42.948 10.4907 43.0864 10.6061L45.2784 12.475C45.4476 12.6212 45.7014 12.7058 45.9476 12.7058C46.1091 12.7058 46.2552 12.6673 46.3706 12.5981L48.7241 11.2368C48.8625 11.1598 48.9394 11.0445 48.9471 10.9214C48.9625 10.783 48.8856 10.6445 48.7471 10.5292L46.5552 8.66022C46.386 8.52178 46.1398 8.42949 45.9014 8.42949C45.7399 8.42949 45.5861 8.46794 45.463 8.53716L43.1095 9.8985C42.9788 9.97541 42.9019 10.0831 42.8865 10.2061L42.8942 10.2138Z" fill="#47A7D5"/>
<path opacity="0.7" d="M9.98374 22.7041C10.1529 22.8426 10.3991 22.9272 10.6452 22.9272C10.8067 22.9272 10.9605 22.8887 11.0836 22.8195L13.4371 21.4582C13.5678 21.3813 13.6447 21.2736 13.6601 21.1505C13.6755 21.0198 13.6063 20.8813 13.4678 20.7583L11.2759 18.8893C11.1067 18.7432 10.8528 18.6586 10.6067 18.6586C10.4452 18.6586 10.2991 18.697 10.1837 18.7586L7.83021 20.1199C7.69946 20.1968 7.62255 20.3045 7.60717 20.4276C7.59179 20.566 7.6687 20.7044 7.79945 20.8198L9.99143 22.6888L9.98374 22.7041Z" fill="#47A7D5"/>
<path opacity="0.7" d="M57.7536 29.1804C57.5844 29.0343 57.3306 28.9496 57.0845 28.9496C56.923 28.9496 56.7769 28.9881 56.6615 29.0496L54.308 30.411C54.1772 30.4879 54.1003 30.5956 54.085 30.7263C54.0696 30.8648 54.1465 31.0032 54.2772 31.1186L56.4692 32.9875C56.6384 33.1336 56.8845 33.2182 57.1383 33.2182C57.2999 33.2182 57.4537 33.1798 57.5691 33.1106L59.9225 31.7492C60.0533 31.6723 60.1302 31.5646 60.1379 31.4416C60.1533 31.3031 60.0764 31.1647 59.9456 31.0416L57.7536 29.1727V29.1804Z" fill="#47A7D5"/>
<path opacity="0.7" d="M41.1021 38.8326C40.9329 38.6865 40.6868 38.6019 40.433 38.6019C40.2715 38.6019 40.1177 38.6404 40.0023 38.7096L37.6488 40.0709C37.5181 40.1478 37.4412 40.2555 37.4258 40.3863C37.4104 40.5247 37.4873 40.6631 37.6181 40.7785L39.81 42.6475C39.9792 42.7936 40.2254 42.8782 40.4792 42.8782C40.6407 42.8782 40.7945 42.8397 40.9099 42.7705L43.2634 41.4092C43.3941 41.3323 43.471 41.2246 43.4864 41.1015C43.5018 40.9631 43.4249 40.8247 43.2941 40.7093L41.1021 38.8403V38.8326Z" fill="#47A7D5"/>
<path opacity="0.7" d="M44.9324 36.6098C44.7631 36.4637 44.517 36.3791 44.2632 36.3791C44.1017 36.3791 43.9479 36.4175 43.8325 36.4867L41.479 37.8481C41.3483 37.925 41.2714 38.0327 41.2637 38.1557C41.2483 38.2942 41.3252 38.4326 41.4559 38.5557L43.6479 40.4246C43.8171 40.5707 44.0709 40.6553 44.3171 40.6553C44.4786 40.6553 44.6247 40.6169 44.7401 40.5554L47.0936 39.194C47.2243 39.1171 47.3012 39.0094 47.3166 38.8787C47.332 38.7402 47.2551 38.6018 47.1243 38.4864L44.9324 36.6175V36.6098Z" fill="#47A7D5"/>
<path opacity="0.7" d="M48.7627 34.3948C48.5935 34.2487 48.3473 34.1641 48.0935 34.1641C47.932 34.1641 47.7782 34.2026 47.6628 34.2718L45.3093 35.6331C45.1786 35.71 45.1017 35.8177 45.094 35.9408C45.0786 36.0792 45.1555 36.2176 45.2863 36.3407L47.4782 38.2096C47.6475 38.3558 47.9013 38.4404 48.1474 38.4404C48.3089 38.4404 48.455 38.4019 48.5704 38.3404L50.9239 36.9791C51.0546 36.9022 51.1392 36.7945 51.1469 36.6714C51.1623 36.533 51.0854 36.3945 50.9547 36.2792L48.7627 34.4102V34.3948Z" fill="#47A7D5"/>
<path opacity="0.7" d="M67.6136 26.6036L65.4216 24.7347C65.2524 24.5885 65.0063 24.5039 64.7525 24.5039C64.591 24.5039 64.4371 24.5424 64.3218 24.6116L61.9683 25.973C61.8375 26.0499 61.7606 26.1575 61.7529 26.2806C61.7375 26.419 61.8145 26.5575 61.9452 26.6805L64.1372 28.5495C64.3064 28.6956 64.5602 28.7802 64.8063 28.7802C64.9678 28.7802 65.114 28.7418 65.2293 28.6802L67.5828 27.3189C67.7136 27.242 67.7982 27.1343 67.8059 27.0113C67.8213 26.8805 67.7443 26.7344 67.6136 26.619V26.6036Z" fill="#47A7D5"/>
<path opacity="0.7" d="M61.5913 26.9575C61.4221 26.8114 61.176 26.7268 60.9221 26.7268C60.7606 26.7268 60.6068 26.7653 60.4914 26.8345L58.138 28.1958C58.0072 28.2727 57.9303 28.3804 57.9226 28.5035C57.9072 28.6419 57.9841 28.7803 58.1149 28.9034L60.3069 30.7723C60.4761 30.9185 60.7299 31.0031 60.976 31.0031C61.1375 31.0031 61.2836 30.9646 61.399 30.9031L63.7525 29.5418C63.8832 29.4649 63.9602 29.3572 63.9755 29.2264C63.9909 29.088 63.914 28.9495 63.7833 28.8342L61.5913 26.9652V26.9575Z" fill="#47A7D5"/>
<path opacity="0.7" d="M53.5619 30.1726C53.7234 30.1726 53.8773 30.1341 54.0003 30.0649L56.3538 28.7036C56.4846 28.6266 56.5615 28.519 56.5769 28.3959C56.5922 28.2575 56.523 28.119 56.3846 28.0037L54.1926 26.1347C54.0234 25.9886 53.7696 25.904 53.5235 25.904C53.362 25.904 53.2158 25.9424 53.1005 26.004L50.747 27.3653C50.6162 27.4422 50.5393 27.5499 50.5239 27.6806C50.5085 27.8191 50.5854 27.9575 50.7162 28.0729L52.9082 29.9418C53.0774 30.0803 53.3235 30.1649 53.5696 30.1649L53.5619 30.1726Z" fill="#47A7D5"/>
<path opacity="0.7" d="M53.9233 31.4029C53.7541 31.2567 53.5003 31.1721 53.2542 31.1721C53.0927 31.1721 52.9465 31.2106 52.8312 31.2721L50.4777 32.6334C50.3469 32.7104 50.2623 32.818 50.2546 32.9411C50.2392 33.0718 50.3162 33.218 50.4469 33.3333L52.6389 35.2023C52.8081 35.3484 53.0542 35.433 53.308 35.433C53.4695 35.433 53.6234 35.3946 53.7387 35.3254L56.0922 33.964C56.223 33.8871 56.2999 33.7794 56.3076 33.6564C56.323 33.5179 56.246 33.3795 56.1153 33.2564L53.9233 31.3875V31.4029Z" fill="#47A7D5"/>
<path opacity="0.7" d="M37.2641 41.0555C37.0949 40.9094 36.8411 40.8248 36.595 40.8248C36.4335 40.8248 36.2874 40.8632 36.172 40.9247L33.8185 42.2861C33.6877 42.363 33.6108 42.4707 33.5955 42.6014C33.5801 42.7399 33.657 42.8783 33.7877 42.9937L35.9797 44.8626C36.1489 45.0088 36.395 45.0934 36.6488 45.0934C36.8104 45.0934 36.9642 45.0549 37.0795 44.9857L39.433 43.6243C39.5638 43.5474 39.6407 43.4398 39.6484 43.3167C39.6638 43.1783 39.5869 43.0398 39.4561 42.9168L37.2641 41.0478V41.0555Z" fill="#47A7D5"/>
<path opacity="0.7" d="M30.8344 12.0599C30.6729 12.0599 30.5268 12.0983 30.4037 12.1676L28.0502 13.5289C27.9118 13.6058 27.8349 13.7212 27.8195 13.8442C27.8041 13.975 27.8733 14.1134 28.0118 14.2365L30.2038 16.1054C30.373 16.2516 30.6191 16.3362 30.8729 16.3362C31.0344 16.3362 31.1882 16.2977 31.3036 16.2285L33.6571 14.8672C33.7878 14.7902 33.8647 14.6826 33.8724 14.5595C33.8878 14.4211 33.8109 14.2826 33.6802 14.1596L31.4882 12.2906C31.319 12.1445 31.0729 12.0599 30.8267 12.0599H30.8344Z" fill="#47A7D5"/>
<path opacity="0.7" d="M39.1641 7.84511C39.0026 7.70666 38.7488 7.62206 38.5026 7.62206C38.3334 7.62206 38.1873 7.66052 38.0642 7.72974L35.7107 9.09108C35.58 9.16799 35.5031 9.27566 35.4877 9.39872C35.4723 9.53716 35.5415 9.6756 35.68 9.79097L37.872 11.6599C38.0412 11.8061 38.295 11.8907 38.5411 11.8907C38.7026 11.8907 38.8487 11.8522 38.9641 11.7907L41.3176 10.4293C41.4484 10.3524 41.5253 10.2447 41.5407 10.114C41.556 9.97556 41.4791 9.83712 41.3484 9.72175L39.1564 7.8528L39.1641 7.84511Z" fill="#47A7D5"/>
<path opacity="0.7" d="M25.6735 15.0515C25.512 15.0515 25.3582 15.0899 25.2351 15.1591L22.8816 16.5205C22.7509 16.5974 22.674 16.7051 22.6586 16.8281C22.6432 16.9666 22.7124 17.105 22.8509 17.2204L25.0429 19.0893C25.2121 19.2355 25.4582 19.3201 25.712 19.3201C25.8735 19.3201 26.0196 19.2816 26.135 19.2201L28.4885 17.8587C28.6193 17.7818 28.7039 17.6742 28.7115 17.5511C28.7269 17.4204 28.65 17.2742 28.5193 17.1589L26.3273 15.2899C26.1581 15.1438 25.912 15.0592 25.6735 15.0592V15.0515Z" fill="#47A7D5"/>
<path opacity="0.7" d="M34.6646 9.83683C34.5031 9.83683 34.357 9.87529 34.2339 9.94451L31.8804 11.3058C31.7497 11.3828 31.6651 11.4981 31.6574 11.6212C31.642 11.7596 31.7112 11.8904 31.8497 12.0057L34.0416 13.8747C34.2108 14.0208 34.457 14.1054 34.7108 14.1054C34.8723 14.1054 35.0261 14.067 35.1415 13.9978L37.495 12.6364C37.6257 12.5595 37.7026 12.4518 37.7103 12.3288C37.7257 12.1903 37.6488 12.0519 37.518 11.9288L35.3261 10.0599C35.1569 9.91374 34.9107 9.82914 34.6646 9.82914V9.83683Z" fill="#47A7D5"/>
<path opacity="0.7" d="M21.8435 17.2743C21.6743 17.2743 21.5281 17.3128 21.4051 17.382L19.0516 18.7433C18.9208 18.8202 18.8439 18.9279 18.8285 19.051C18.8131 19.1894 18.8824 19.3279 19.0208 19.4432L21.2128 21.3122C21.382 21.4583 21.6358 21.5429 21.8819 21.5429C22.0434 21.5429 22.1896 21.5045 22.3049 21.4429L24.6584 20.0816C24.7892 20.0047 24.8661 19.897 24.8815 19.7663C24.8969 19.6278 24.8199 19.4894 24.6892 19.374L22.4972 17.5051C22.3357 17.3666 22.0819 17.282 21.8358 17.282L21.8435 17.2743Z" fill="#47A7D5"/>
<path opacity="0.7" d="M14.1754 21.7123C14.0139 21.7123 13.8677 21.7508 13.7447 21.82L11.3912 23.1813C11.2604 23.2582 11.1758 23.3736 11.1681 23.4967C11.1527 23.6351 11.222 23.7659 11.3604 23.8812L13.5524 25.7502C13.7216 25.8963 13.9677 25.9809 14.2215 25.9809C14.383 25.9809 14.5369 25.9425 14.6522 25.8732L17.0057 24.5119C17.1365 24.435 17.2134 24.3273 17.2211 24.2043C17.2365 24.0658 17.1595 23.9274 17.0288 23.8043L14.8368 21.9354C14.6676 21.7892 14.4215 21.7046 14.1754 21.7046V21.7123Z" fill="#47A7D5"/>
<path opacity="0.7" d="M18.0134 19.4893C17.8519 19.4893 17.698 19.5277 17.575 19.597L15.2215 20.9583C15.0907 21.0352 15.0061 21.1506 14.9984 21.2736C14.9831 21.4121 15.0523 21.5428 15.1907 21.6582L17.3827 23.5272C17.5519 23.6733 17.798 23.7579 18.0518 23.7579C18.2134 23.7579 18.3672 23.7194 18.4825 23.6502L20.836 22.2889C20.9668 22.212 21.0437 22.1043 21.0591 21.9812C21.0745 21.8428 20.9976 21.7043 20.8668 21.589L18.6748 19.72C18.5056 19.5816 18.2595 19.497 18.0134 19.497V19.4893Z" fill="#47A7D5"/>
<path opacity="0.7" d="M53.831 24.9116C53.9925 24.9116 54.1386 24.8731 54.2617 24.8039L56.6152 23.4426C56.7459 23.3656 56.8305 23.2503 56.8382 23.1272C56.8536 22.9888 56.7844 22.858 56.6459 22.7427L54.454 20.8737C54.2847 20.7276 54.0386 20.643 53.7848 20.643C53.6233 20.643 53.4695 20.6814 53.3541 20.7506L51.0006 22.112C50.8699 22.1889 50.793 22.2966 50.7776 22.4196C50.7622 22.5581 50.8391 22.6965 50.9775 22.8119L53.1695 24.6808C53.3387 24.827 53.5849 24.9116 53.831 24.9116Z" fill="#47A7D5"/>
<path opacity="0.7" d="M49.9931 27.1344C50.1546 27.1344 50.3085 27.096 50.4315 27.0267L52.785 25.6654C52.9158 25.5885 52.9927 25.4808 53.0081 25.3578C53.0234 25.2193 52.9542 25.0809 52.8158 24.9655L50.6238 23.0966C50.4546 22.9504 50.2008 22.8658 49.9547 22.8658C49.7932 22.8658 49.647 22.9043 49.524 22.9735L47.1705 24.3348C47.0397 24.4117 46.9551 24.5194 46.9474 24.6502C46.932 24.7886 47.0013 24.927 47.1397 25.0424L49.3317 26.9114C49.4932 27.0498 49.747 27.1344 49.9931 27.1344Z" fill="#47A7D5"/>
<path opacity="0.7" d="M46.1629 29.3573C46.3244 29.3573 46.4782 29.3188 46.6013 29.2496L48.9548 27.8883C49.0855 27.8113 49.1624 27.7037 49.1778 27.5806C49.1932 27.4422 49.124 27.3037 48.9855 27.1884L46.7936 25.3194C46.6243 25.1733 46.3705 25.0887 46.1244 25.0887C45.9629 25.0887 45.8168 25.1271 45.6937 25.1963L43.3402 26.5577C43.2018 26.6346 43.1249 26.7423 43.1172 26.8653C43.1018 27.0038 43.1787 27.1422 43.3171 27.2576L45.5091 29.1265C45.6783 29.265 45.9244 29.3573 46.1629 29.3573Z" fill="#47A7D5"/>
<path opacity="0.7" d="M46.3014 13.9287C46.1322 13.7826 45.886 13.698 45.6322 13.698C45.4707 13.698 45.3169 13.7365 45.2015 13.8057L42.848 15.167C42.7173 15.2439 42.6404 15.3516 42.625 15.4747C42.6096 15.6131 42.6865 15.7515 42.825 15.8669L45.0169 17.7359C45.1861 17.882 45.4323 17.9666 45.6784 17.9666C45.8399 17.9666 45.986 17.9281 46.1091 17.8589L48.4626 16.4976C48.5933 16.4207 48.6779 16.3053 48.6856 16.1823C48.701 16.0438 48.6318 15.9131 48.4933 15.7977L46.3014 13.9287Z" fill="#47A7D5"/>
<path opacity="0.7" d="M42.7251 10.8829C42.5559 10.7445 42.3098 10.6598 42.0637 10.6598C41.9022 10.6598 41.7483 10.6983 41.6253 10.7675L39.2718 12.1289C39.141 12.2058 39.0641 12.3134 39.0487 12.4365C39.0334 12.5749 39.1026 12.7134 39.241 12.8288L41.433 14.6977C41.6022 14.8438 41.856 14.9284 42.1021 14.9284C42.2636 14.9284 42.4098 14.89 42.5251 14.8208L44.8786 13.4594C45.0094 13.3825 45.094 13.2672 45.1017 13.1441C45.1171 13.0057 45.0478 12.8672 44.9094 12.7518L42.7174 10.8829H42.7251Z" fill="#47A7D5"/>
<path opacity="0.7" d="M50.8853 17.8282C50.7238 17.6898 50.4699 17.6052 50.2238 17.6052C50.0546 17.6052 49.9085 17.6436 49.7854 17.7129L47.4319 19.0742C47.3012 19.1511 47.2243 19.2588 47.2089 19.3818C47.1935 19.5203 47.2627 19.6587 47.4012 19.7741L49.5932 21.643C49.7624 21.7892 50.0162 21.8738 50.2623 21.8738C50.4238 21.8738 50.5699 21.8353 50.6853 21.7738L53.0388 20.4125C53.1695 20.3355 53.2465 20.2279 53.2618 20.0971C53.2772 19.9587 53.2003 19.8202 53.0696 19.7049L50.8776 17.8359L50.8853 17.8282Z" fill="#47A7D5"/>
<path opacity="0.7" d="M36.9029 39.8248C37.0644 39.8248 37.2182 39.7864 37.3413 39.7172L39.6948 38.3558C39.8255 38.2789 39.9101 38.1635 39.9178 38.0405C39.9332 37.902 39.864 37.7713 39.7255 37.6559L37.5335 35.787C37.3643 35.6408 37.1182 35.5562 36.8644 35.5562C36.7029 35.5562 36.5491 35.5947 36.4337 35.6639L34.0802 37.0252C33.9495 37.1022 33.8726 37.2098 33.8572 37.3406C33.8418 37.479 33.9187 37.6175 34.0494 37.7328L36.2414 39.6018C36.4029 39.7402 36.6491 39.8248 36.9029 39.8248Z" fill="#47A7D5"/>
<path opacity="0.7" d="M49.7316 32.3951C49.8931 32.3951 50.0469 32.3566 50.17 32.2874L52.5235 30.926C52.6542 30.8491 52.7312 30.7415 52.7465 30.6184C52.7619 30.48 52.6927 30.3415 52.5543 30.2261L50.3623 28.3572C50.1931 28.2111 49.9393 28.1265 49.6932 28.1265C49.5316 28.1265 49.3855 28.1649 49.2701 28.2264L46.9166 29.5878C46.7859 29.6647 46.7013 29.7724 46.6936 29.8954C46.6782 30.0262 46.7551 30.1723 46.8859 30.2877L49.0779 32.1566C49.2471 32.2951 49.4932 32.3874 49.7316 32.3874V32.3951Z" fill="#47A7D5"/>
<path opacity="0.7" d="M44.571 35.387C44.7325 35.387 44.8786 35.3486 45.0017 35.2793L47.3552 33.918C47.4936 33.8411 47.5705 33.7257 47.5859 33.6027C47.6013 33.4719 47.5321 33.3335 47.3936 33.2181L45.2016 31.3492C45.0324 31.203 44.7863 31.1184 44.5325 31.1184C44.371 31.1184 44.2172 31.1569 44.1018 31.2261L41.7483 32.5874C41.6176 32.6643 41.5406 32.772 41.533 32.8951C41.5176 33.0335 41.5945 33.172 41.7252 33.295L43.9172 35.164C44.0864 35.3101 44.3325 35.3947 44.5787 35.3947L44.571 35.387Z" fill="#47A7D5"/>
<path opacity="0.7" d="M40.7408 37.6099C40.9023 37.6099 41.0484 37.5714 41.1715 37.5022L43.525 36.1409C43.6557 36.0639 43.7403 35.9486 43.748 35.8255C43.7634 35.6871 43.6942 35.5563 43.5557 35.441L41.3637 33.572C41.1945 33.4259 40.9484 33.3413 40.6946 33.3413C40.5331 33.3413 40.3793 33.3797 40.2639 33.449L37.9104 34.8103C37.7797 34.8872 37.7028 34.9949 37.6951 35.1179C37.6797 35.2564 37.7566 35.3948 37.8873 35.5179L40.0793 37.3868C40.2485 37.533 40.4946 37.6176 40.7408 37.6176V37.6099Z" fill="#47A7D5"/>
<path opacity="0.7" d="M33.0727 42.0477C33.2342 42.0477 33.388 42.0092 33.5111 41.94L35.8646 40.5787C35.9953 40.5018 36.0722 40.3941 36.0876 40.271C36.103 40.1326 36.0338 39.9941 35.8953 39.8788L33.7033 38.0098C33.5341 37.8637 33.2803 37.7791 33.0342 37.7791C32.8727 37.7791 32.7266 37.8175 32.6112 37.8791L30.2577 39.2404C30.127 39.3173 30.05 39.425 30.0347 39.5557C30.0193 39.6942 30.0962 39.8326 30.2269 39.948L32.4189 41.8169C32.5804 41.9554 32.8266 42.04 33.0804 42.04L33.0727 42.0477Z" fill="#47A7D5"/>
<path opacity="0.7" d="M41.0022 32.3489C41.1637 32.3489 41.3099 32.3104 41.4329 32.2412L43.7864 30.8798C43.9249 30.8029 44.0018 30.6876 44.0172 30.5645C44.0325 30.4338 43.9633 30.2953 43.8249 30.18L41.6329 28.311C41.4637 28.1649 41.2176 28.0803 40.9715 28.0803C40.81 28.0803 40.6561 28.1187 40.5331 28.1879L38.1796 29.5493C38.0488 29.6262 37.9719 29.7339 37.9565 29.8569C37.9411 29.9954 38.0181 30.1338 38.1565 30.2492L40.3485 32.1181C40.5177 32.2643 40.7638 32.3489 41.0099 32.3489H41.0022Z" fill="#47A7D5"/>
<path d="M24.7738 57.9221C24.7738 58.3067 24.5046 58.4682 24.1662 58.2682C23.8278 58.0682 23.5586 57.6068 23.5586 57.2222C23.5586 56.8376 23.8278 56.6761 24.1662 56.8761C24.4969 57.0684 24.7738 57.5375 24.7738 57.9221Z" fill="#DBDBDB"/>
<path d="M45.0555 46.2164C45.0555 46.6009 44.7863 46.7624 44.4479 46.5625C44.1095 46.3625 43.8403 45.901 43.8403 45.5165C43.8403 45.1319 44.1095 44.9704 44.4479 45.1704C44.7787 45.3626 45.0555 45.8318 45.0555 46.2164Z" fill="#DBDBDB"/>
</g>
<defs>
<filter id="filter0_d_3382_180071" x="0" y="0" width="75.29" height="73.0824" filterUnits="userSpaceOnUse" color-interpolation-filters="sRGB">
<feFlood flood-opacity="0" result="BackgroundImageFix"/>
<feColorMatrix in="SourceAlpha" type="matrix" values="0 0 0 0 0 0 0 0 0 0 0 0 0 0 0 0 0 0 127 0" result="hardAlpha"/>
<feOffset dy="4"/>
<feGaussianBlur stdDeviation="2"/>
<feComposite in2="hardAlpha" operator="out"/>
<feColorMatrix type="matrix" values="0 0 0 0 0 0 0 0 0 0 0 0 0 0 0 0 0 0 0.25 0"/>
<feBlend mode="normal" in2="BackgroundImageFix" result="effect1_dropShadow_3382_180071"/>
<feBlend mode="normal" in="SourceGraphic" in2="effect1_dropShadow_3382_180071" result="shape"/>
</filter>
<linearGradient id="paint0_linear_3382_180071" x1="48.2166" y1="43.6632" x2="49.1318" y2="43.6632" gradientUnits="userSpaceOnUse">
<stop stop-color="#27262A"/>
<stop offset="0.6" stop-color="#2F2E33"/>
<stop offset="1" stop-color="#37373D"/>
</linearGradient>
<linearGradient id="paint1_linear_3382_180071" x1="45.8477" y1="19.4823" x2="48.4165" y2="19.4823" gradientUnits="userSpaceOnUse">
<stop stop-color="#27262A"/>
<stop offset="0.6" stop-color="#2F2E33"/>
<stop offset="1" stop-color="#37373D"/>
</linearGradient>
<linearGradient id="paint2_linear_3382_180071" x1="45.2861" y1="45.3629" x2="46.1937" y2="45.3629" gradientUnits="userSpaceOnUse">
<stop stop-color="#27262A"/>
<stop offset="0.6" stop-color="#2F2E33"/>
<stop offset="1" stop-color="#37373D"/>
</linearGradient>
<linearGradient id="paint3_linear_3382_180071" x1="28.0117" y1="55.3306" x2="28.9193" y2="55.3306" gradientUnits="userSpaceOnUse">
<stop stop-color="#27262A"/>
<stop offset="0.6" stop-color="#2F2E33"/>
<stop offset="1" stop-color="#37373D"/>
</linearGradient>
<linearGradient id="paint4_linear_3382_180071" x1="25.6431" y1="31.1494" x2="28.2119" y2="31.1494" gradientUnits="userSpaceOnUse">
<stop stop-color="#27262A"/>
<stop offset="0.6" stop-color="#2F2E33"/>
<stop offset="1" stop-color="#37373D"/>
</linearGradient>
<linearGradient id="paint5_linear_3382_180071" x1="25.0815" y1="57.0224" x2="25.9891" y2="57.0224" gradientUnits="userSpaceOnUse">
<stop stop-color="#27262A"/>
<stop offset="0.6" stop-color="#2F2E33"/>
<stop offset="1" stop-color="#37373D"/>
</linearGradient>
</defs>
</svg>
