<svg width="76" height="98" viewBox="0 0 76 98" fill="none" xmlns="http://www.w3.org/2000/svg">
<g filter="url(#filter0_d_3380_169771)">
<path d="M28.2636 83.2402C22.9621 83.2402 18.4057 81.5164 14.6895 78.1034C7.95876 71.9271 4.07798 59.9902 4.04333 45.342L4.00002 30.7804C3.98269 23.8331 16.1275 13.6547 27.4233 7.1319C35.4707 2.48882 45.4932 -1.65183 49.4779 0.661043L51.6695 1.93443C52.6917 2.63608 53.6013 3.45033 53.6879 5.70257C53.6879 5.71124 53.7139 13.5421 53.7139 13.5421C53.7139 16.5133 53.7312 19.3286 53.7312 20.2555C53.7312 20.3248 53.7312 20.3681 53.7312 20.4114C53.7312 20.5154 53.7312 20.576 53.7312 20.576C53.0209 60.9604 31.7632 82.9544 30.4119 83.1363C29.6842 83.1969 28.9652 83.2316 28.2636 83.2316V83.2402ZM46.5154 0.418495C42.366 0.418495 35.4534 2.95659 27.6225 7.47839C16.422 13.9492 4.3725 23.9977 4.38983 30.7891L4.43314 45.3507C4.47645 59.8863 8.31392 71.7278 14.958 77.8262C19.09 81.6117 24.2788 83.2749 30.3772 82.7725C31.0615 82.6339 36.7181 76.83 42.1408 66.3917C47.0784 56.8717 53.0295 41.1407 53.35 20.2901C53.35 19.8917 53.35 19.3373 53.35 18.4537L53.3154 5.73723C53.2374 3.65824 52.4751 2.96525 51.4789 2.28092L49.296 1.01618C48.6117 0.617707 47.6761 0.42714 46.5327 0.42714L46.5154 0.418495Z" fill="#FFFCFC"/>
<path d="M57.482 26.9865V25.5312V24.076V22.6206V21.1654V19.7101V18.2548V16.7995V15.3442V13.8889V12.4336C57.482 13.1872 56.4685 14.296 54.762 15.2835L54.8053 29.8451C54.84 48.2615 48.2392 72.8542 35.7479 85.5014C35.7479 87.4158 35.3841 88.8625 34.8297 89.4255C48.4644 75.453 57.1529 51.5273 57.5253 26.9952C57.5253 27.1251 57.482 27.2811 57.4214 27.4283C57.482 27.2724 57.5253 27.1251 57.5253 26.9952L57.482 26.9865Z" fill="#F7E9E8"/>
<path d="M35.5227 21.1568C24.6514 27.4804 15.9543 35.8396 16.3614 37.4249C16.3787 42.2758 16.3874 47.1355 16.4047 51.9865C16.474 70.3769 23.1874 87.2946 35.7133 85.4929L35.5314 21.1568H35.5227Z" fill="#84C1C1"/>
<path d="M54.7187 15.2749C55.1085 13.2305 46.3941 14.9284 35.5227 21.1567L35.7046 85.4927C48.1959 72.8542 54.7967 48.2528 54.762 29.8365C54.7447 24.9855 54.736 20.1258 54.7187 15.2749Z" fill="#90D1D1"/>
<path d="M16.396 51.9863L16.3527 37.4247C14.0485 38.7587 11.3458 39.3564 10.3323 38.7674L10.3756 53.329C10.4189 68.1851 14.5509 82.4781 23.4992 87.6756C28.125 90.1877 31.2781 89.9279 34.336 89.668C35.1329 89.5554 35.7133 87.8922 35.7046 85.4927C23.1787 87.2945 16.4653 70.3767 16.396 51.9863Z" fill="url(#paint0_linear_3380_169771)"/>
<path d="M55.5243 8.8127C51.9814 6.7597 42.8252 9.9908 33.6689 15.2836L35.5314 21.1567C46.4028 14.9284 55.1172 13.2392 54.7274 15.2749C56.4339 14.2874 57.4474 13.1786 57.4474 12.4336C57.3694 10.2594 56.5292 9.51437 55.533 8.82138L55.5243 8.8127Z" fill="#F7E9E8"/>
<path d="M33.6603 15.2835C21.9833 22.0229 10.315 32.0974 10.3323 38.7588C11.3545 39.3478 14.0485 38.7588 16.3527 37.4161C15.9456 35.8395 24.6513 27.4716 35.5141 21.148L35.2888 14.3567L33.6603 15.2749V15.2835Z" fill="#E9DBDA"/>
<path d="M10.3755 53.3206L10.3322 38.759L8.14062 37.4856L8.18394 52.0472C8.22725 66.9033 12.3592 81.1964 21.3076 86.3938L23.4992 87.6672C14.5508 82.461 10.4189 68.1767 10.3755 53.3206Z" fill="#B0A2A2"/>
<path d="M53.324 7.54798C49.7811 5.49498 40.6249 8.72607 31.4686 14.0188C19.7916 20.7582 8.12332 30.8327 8.14064 37.4941L10.3322 38.7675C10.3149 32.1061 21.9833 22.0316 33.6602 15.2922C42.8165 10.0081 51.9727 6.76836 55.5156 8.82136L53.324 7.54798Z" fill="#FFFCFC"/>
<path d="M53.4801 38.4818L52.172 39.0362L51.5743 38.0227L51.0026 39.7206L49.6946 40.7081L50.6475 41.2105L50.4482 42.8304L51.609 41.4357L52.7871 41.4617L52.5445 40.093L53.4801 38.4818Z" fill="#FFFCFC"/>
<path d="M47.5203 54.8192L46.9399 53.7796L46.3509 55.4775L45.0428 56.439L45.9784 56.9675L45.7445 58.6046L46.9139 57.2273L48.0834 57.288L47.8668 55.902L48.8197 54.3081L47.5203 54.8192Z" fill="#FFFCFC"/>
<path d="M45.6058 32.7558L46.7753 31.3785L47.9447 31.4218L47.7281 30.0445L48.6723 28.4506L47.373 28.9703L46.7926 27.9395L46.2035 29.6373L44.8955 30.5989L45.8397 31.1186L45.6058 32.7558Z" fill="#FFFCFC"/>
<path d="M34.414 33.9511L35.5748 32.5738L36.7529 32.6084L36.519 31.2398L37.4632 29.6372L36.1552 30.1656L35.5662 29.1521L34.9858 30.8413L33.6777 31.8202L34.6306 32.3313L34.414 33.9511Z" fill="#FFFCFC"/>
<path d="M36.2677 67.1285L35.67 66.1063L35.0896 67.8041L33.7816 68.7743L34.7345 69.2941L34.5179 70.9226L35.6787 69.5366L36.8568 69.5713L36.6229 68.2026L37.5671 66.5914L36.2677 67.1285Z" fill="#FFFCFC"/>
<path d="M23.222 45.6977L24.3828 44.303L25.5609 44.329L25.3183 42.969L26.2625 41.3578L24.9545 41.9035L24.3568 40.89L23.7764 42.5879L22.4771 43.5754L23.4299 44.0778L23.222 45.6977Z" fill="#FFFCFC"/>
<path d="M24.9458 67.8302L24.3395 66.8254L23.7764 68.5319L22.4771 69.5194L23.4299 70.0132L23.2307 71.633L24.3914 70.2297L25.5695 70.247L25.327 68.887L26.2539 67.2845L24.9458 67.8302Z" fill="#FFFCFC"/>
<path d="M20.2162 57.4959L19.6358 56.4651L19.0555 58.1543L17.7388 59.1158L18.683 59.6442L18.4578 61.2728L19.6272 59.9041L20.7966 59.9474L20.5714 58.5701L21.5243 56.9675L20.2162 57.4959Z" fill="#FFFCFC"/>
<path d="M35.5834 36.6367C29.3291 40.2489 24.2702 49.024 24.2875 56.2052C24.3048 63.3863 29.407 66.2969 35.6527 62.6847C36.8308 62.009 37.9655 61.1427 39.031 60.1379C39.083 60.1032 39.135 60.0513 39.1783 59.9906C43.6914 55.6681 46.9658 48.8854 46.9485 43.1162C46.9312 35.935 41.829 33.0331 35.5834 36.6367ZM35.3408 57.3139L31.1569 59.7308C30.7151 58.1455 30.3426 55.9539 30.3079 53.0347L35.3148 50.1414L35.3322 57.3226L35.3408 57.3139ZM35.3148 49.4484L30.3079 52.3417C30.3339 49.3791 30.7064 46.7544 31.1482 44.6754L35.2975 42.2846L35.3148 49.4571V49.4484ZM32.6814 39.5039C33.5217 38.7157 34.3793 38.066 35.2802 37.5116V41.5916L31.3214 43.8871C31.9625 41.1671 32.6641 39.5299 32.6814 39.5039ZM31.8412 40.2749C31.538 41.0892 31.0962 42.4492 30.6804 44.2596L27.6226 46.0268C28.766 43.8958 30.204 41.9207 31.8412 40.2749ZM27.1201 46.997L30.5072 45.0392C30.074 47.1355 29.7275 49.7343 29.7016 52.6882L24.8852 55.4688C24.9459 52.7315 25.7688 49.7689 27.1115 46.997H27.1201ZM24.8852 56.1532L29.7016 53.3725C29.7275 56.2831 30.0827 58.4747 30.5158 60.0946L27.1115 62.061C25.7688 60.8309 24.9545 58.8212 24.8852 56.1618V56.1532ZM27.6052 62.4594L30.6891 60.6836C31.1049 62.0176 31.5553 62.8839 31.8672 63.3777C30.2126 63.6115 28.7573 63.291 27.6052 62.4681V62.4594ZM32.7248 63.2044C32.6121 63.0745 31.9451 62.2082 31.3214 60.3111L35.3322 57.9983V62.1476C34.4399 62.65 33.5564 62.9878 32.7248 63.2044ZM46.3248 43.0902L41.7337 45.7409C41.6904 42.8303 41.3352 40.6387 40.8848 39.0448L44.0553 37.217C45.4153 38.4298 46.2469 40.4308 46.3248 43.0902ZM43.5442 36.8272L40.7115 38.4644C40.3131 37.217 39.8886 36.4028 39.5854 35.909C41.11 35.7357 42.4614 36.0649 43.5442 36.8272ZM35.8692 37.1737C36.8567 36.6367 37.8183 36.2642 38.7192 36.0563C38.8318 36.1949 39.4728 37.0265 40.0705 38.8369L35.8779 41.2537V37.1737H35.8692ZM35.8692 41.9381L40.2351 39.4173C40.6942 40.9852 41.0754 43.1681 41.1187 46.0874L35.8865 49.1106L35.8692 41.9381ZM35.8952 49.7949L41.1273 46.7717C41.11 49.7256 40.7548 52.333 40.3217 54.4293L35.9212 56.9761L35.9039 49.7949H35.8952ZM38.8145 59.6095C37.9049 60.4671 36.9347 61.2034 35.9299 61.8098V57.6604L40.1485 55.2176C39.6027 57.5825 38.9964 59.159 38.8145 59.6095ZM39.6807 58.7432C39.9926 57.8857 40.4084 56.5516 40.7895 54.8451L43.6481 53.1906C42.5653 55.2263 41.214 57.132 39.6807 58.7432ZM44.1159 52.2377L40.9541 54.0655C41.3872 51.9519 41.725 49.3618 41.7337 46.4252L46.3248 43.7745C46.2728 46.5032 45.4672 49.4571 44.1419 52.2291H44.1245L44.1159 52.2377Z" fill="#FFFCFC"/>
<path opacity="0.3" d="M26.2539 67.2844L25.3183 68.8956L25.5609 70.2556L24.3828 70.2383L23.222 71.6416L23.4212 70.0217L22.4597 69.528L23.7591 68.5404L24.3221 66.8426L24.9285 67.8475L26.2365 67.293L26.2539 67.2844ZM18.449 61.2813L19.6184 59.904L20.7878 59.9473L20.5713 58.5786L21.5241 56.9761L20.2161 57.4958L19.6357 56.465L19.0554 58.1542L17.7473 59.1244L18.6915 59.6528L18.4663 61.2813H18.449ZM35.6526 69.5626V66.1756L35.0809 67.8128L33.7729 68.783L34.7257 69.3027L34.5092 70.9313L35.6526 69.5713V69.5626ZM35.6353 62.6846C29.3897 66.2795 24.2961 63.3776 24.2788 56.1964C24.2615 49.0239 29.3117 40.2575 35.5573 36.6366L35.6353 62.676V62.6846ZM35.3148 50.1327L30.3079 53.026C30.3339 55.9539 30.7064 58.1368 31.1568 59.7221L35.3408 57.3052L35.3234 50.1241L35.3148 50.1327ZM35.2888 42.2759L31.1395 44.6667C30.6977 46.7544 30.3252 49.3704 30.2992 52.333L35.3061 49.4397L35.2888 42.2672V42.2759ZM31.3214 43.8784L35.2888 41.5829V37.5029C34.3792 38.0486 33.513 38.707 32.6901 39.4519C32.6641 39.5212 31.9537 41.1584 31.3214 43.8784ZM27.6225 46.0094L30.6804 44.2423C31.0962 42.4318 31.5466 41.0718 31.8411 40.2575C30.2039 41.9034 28.766 43.8698 27.6225 46.0094ZM24.8938 55.4601L29.7102 52.6795C29.7362 49.7256 30.0913 47.1269 30.5158 45.0305L27.1288 46.9882C25.7774 49.7602 24.9632 52.7228 24.9025 55.4601H24.8938ZM27.1201 62.0523L30.5244 60.0859C30.0913 58.466 29.7362 56.2744 29.7102 53.3638L24.8938 56.1445C24.9631 58.8038 25.7774 60.8135 27.1201 62.0436V62.0523ZM31.8758 63.369C31.5639 62.8752 31.1048 62.0176 30.6977 60.6749L27.6139 62.4507C28.766 63.2737 30.2299 63.6028 31.8758 63.3603V63.369ZM32.7334 63.2044C33.5736 62.9965 34.4485 62.65 35.3581 62.1475V57.9982L31.3301 60.3111C31.9451 62.2082 32.6208 63.0744 32.7334 63.2044ZM35.5573 32.5999V29.2129L34.9856 30.8414L33.6776 31.8203L34.6304 32.3314L34.4139 33.9599L35.5573 32.6086V32.5999ZM24.9545 41.8947L24.3568 40.8812L23.785 42.5791L22.4857 43.5666L23.4386 44.069L23.2307 45.6889L24.3914 44.3029L25.5695 44.3202L25.327 42.9602L26.2625 41.349L24.9545 41.8947Z" fill="#84C1C1"/>
<g style="mix-blend-mode:multiply" opacity="0.6">
<path d="M57.4387 12.4248C57.3781 10.8742 56.9276 10.0512 56.3213 9.45354L43.241 17.0072C40.3737 18.6617 38.0608 22.6724 38.0695 25.9642C38.0781 29.2559 40.4083 30.5899 43.2756 28.9354L57.4734 20.7407C57.4734 19.9871 57.4561 13.1957 57.4474 12.4248H57.4387Z" fill="#84C1C1"/>
</g>
<path d="M68.1629 0.89527C67.262 0.375522 66.0232 0.444817 64.6545 1.24176L66.3437 2.22062C67.7124 1.43234 68.9598 1.35438 69.852 1.87413L68.1629 0.89527Z" fill="#FFFCFC"/>
<path d="M64.6459 1.24167L46.0649 11.9658L47.7541 12.9447L66.3351 2.22053L64.6459 1.24167Z" fill="#FFFCFC"/>
<path d="M47.7541 12.9448L46.0649 11.9659C43.3363 13.5425 41.136 17.3539 41.1447 20.4898C41.1447 22.049 41.6991 23.1405 42.5826 23.6602L44.2718 24.6391C43.3883 24.128 42.8339 23.0279 42.8339 21.4686C42.8252 18.3415 45.0255 14.5213 47.7541 12.9448Z" fill="#FFFCFC"/>
<path d="M66.335 2.22055L47.7454 12.9533C45.0167 14.5299 42.8164 18.3414 42.8251 21.4772C42.8338 24.613 45.0514 25.8777 47.78 24.3011L66.3697 13.5684C69.0983 11.9918 71.2986 8.18033 71.2899 5.04452C71.2813 1.91737 69.0637 0.652645 66.335 2.22055Z" fill="#282147"/>
</g>
<defs>
<filter id="filter0_d_3380_169771" x="0" y="0" width="75.2899" height="97.8271" filterUnits="userSpaceOnUse" color-interpolation-filters="sRGB">
<feFlood flood-opacity="0" result="BackgroundImageFix"/>
<feColorMatrix in="SourceAlpha" type="matrix" values="0 0 0 0 0 0 0 0 0 0 0 0 0 0 0 0 0 0 127 0" result="hardAlpha"/>
<feOffset dy="4"/>
<feGaussianBlur stdDeviation="2"/>
<feComposite in2="hardAlpha" operator="out"/>
<feColorMatrix type="matrix" values="0 0 0 0 0 0 0 0 0 0 0 0 0 0 0 0 0 0 0.25 0"/>
<feBlend mode="normal" in2="BackgroundImageFix" result="effect1_dropShadow_3380_169771"/>
<feBlend mode="normal" in="SourceGraphic" in2="effect1_dropShadow_3380_169771" result="shape"/>
</filter>
<linearGradient id="paint0_linear_3380_169771" x1="15.3825" y1="97.0224" x2="28.1856" y2="39.6856" gradientUnits="userSpaceOnUse">
<stop stop-color="#C4B6B6"/>
<stop offset="0.59" stop-color="#DCCECE"/>
<stop offset="1" stop-color="#E9DBDA"/>
</linearGradient>
</defs>
</svg>
