<svg width="68" height="73" viewBox="0 0 68 73" fill="none" xmlns="http://www.w3.org/2000/svg">
<path d="M35.165 64.0066L0.300049 43.8744V51.9879L35.165 72.1201V64.0066Z" fill="#B0A2A2"/>
<path d="M67.5901 53.3953L35.165 72.1198V64.0064L67.5901 45.2818V53.3953Z" fill="#EEDFDE"/>
<path d="M35.165 64.0067L0.300049 43.8745L32.7179 25.1572L67.59 45.2821L35.165 64.0067Z" fill="#FFFCFC"/>
<path d="M34.934 62.5558L48.6634 42.2865L32.7179 25.1572L0.300049 43.8745L32.653 62.5558H34.934Z" fill="#B0A2A2"/>
<path d="M34.9341 55.9221L1.40454 36.5623V43.196L34.9341 62.5558V55.9221Z" fill="#1C1736"/>
<path d="M64.9696 45.217L34.9338 62.5556V55.9219L64.9696 38.5833V45.217Z" fill="#282147"/>
<path d="M34.9341 55.9219L1.40454 36.5621L31.4331 19.2235L64.9699 38.5833L34.9341 55.9219Z" fill="#FFFCFC"/>
<path d="M35.165 51.5982L0.300049 31.4661V39.5796L35.165 59.7117V51.5982Z" fill="#B0A2A2"/>
<path d="M67.5901 40.9943L35.165 59.7117V51.5982L67.5901 32.8809V40.9943Z" fill="#EEDFDE"/>
<path d="M35.165 51.598L0.300049 31.4659L32.7179 12.7486L67.59 32.8807L35.165 51.598Z" fill="#FFFCFC"/>
<path d="M34.934 50.1471L48.6634 29.8779L32.7179 12.7486L0.300049 31.4659L32.653 50.1471H34.934Z" fill="#B0A2A2"/>
<path d="M34.9341 43.5133L1.40454 24.1535V30.7872L34.9341 50.147V43.5133Z" fill="#1C1736"/>
<path d="M64.9696 32.8082L34.9338 50.1468V43.5131L64.9696 26.1745V32.8082Z" fill="#282147"/>
<path d="M34.9341 43.5133L1.40454 24.1535L31.4331 6.81488L64.9699 26.1747L34.9341 43.5133Z" fill="#FFFCFC"/>
<path d="M35.165 39.1895L0.300049 19.0573V27.1708L35.165 47.3029V39.1895Z" fill="#B0A2A2"/>
<path d="M67.5901 28.5856L35.165 47.3029V39.1894L67.5901 20.4721V28.5856Z" fill="#EEDFDE"/>
<path d="M35.165 39.1893L0.300049 19.0572L32.7179 0.339844L67.59 20.472L35.165 39.1893Z" fill="#FFFCFC"/>
<path d="M24.7056 10.9147L9.51807 19.6779L28.784 30.8015H34.6453L24.7056 10.9147Z" fill="#B0A2A2"/>
<path d="M34.6453 26.124L14.542 14.5168V19.1944L34.6453 30.8016V26.124Z" fill="#B0A2A2"/>
<path d="M53.3409 20.0101L34.6453 30.8016V26.1241L53.3409 15.3254V20.0101Z" fill="#EEDFDE"/>
<path d="M34.6453 26.1241L14.542 14.517L33.2377 3.7182L53.3409 15.3254L34.6453 26.1241Z" fill="#FFFCFC"/>
<path d="M19.7031 14.5168L33.2376 6.69925L40.7087 11.0159L27.1742 18.8262L19.7031 14.5168Z" fill="#322A58"/>
<path d="M42.3255 37.0816L38.9473 39.0305C37.8068 39.6874 36.8828 41.1455 36.8828 42.2861C36.8828 43.4266 37.8068 43.8164 38.9473 43.1595L42.3255 41.2105C43.466 40.5536 44.39 39.0955 44.39 37.955C44.39 36.8145 43.466 36.4247 42.3255 37.0816Z" fill="#282147"/>
<path d="M63.9808 24.5794L47.7322 33.9634C46.5917 34.6202 45.6677 36.0783 45.6677 37.2189C45.6677 38.3594 46.5917 38.7492 47.7322 38.0923L63.9808 28.7084C65.1213 28.0515 66.0453 26.5934 66.0453 25.4529C66.0453 24.3123 65.1213 23.9226 63.9808 24.5794Z" fill="#282147"/>
<path d="M43.0764 39.0882L38.1968 41.9034V41.1527L43.0764 38.3375V39.0882Z" fill="#4A83FF"/>
<path d="M53.976 32.4256C53.976 32.5988 53.8317 32.8226 53.6584 32.9237C53.4852 33.0247 53.3408 32.9669 53.3408 32.7937C53.3408 32.6205 53.4852 32.3967 53.6584 32.2956C53.8317 32.1946 53.976 32.2523 53.976 32.4256Z" fill="#4A83FF"/>
<path opacity="0.3" d="M55.2827 31.6678C55.2827 31.841 55.1383 32.0648 54.9651 32.1658C54.7918 32.2669 54.6475 32.2091 54.6475 32.0359C54.6475 31.8627 54.7918 31.6389 54.9651 31.5378C55.1383 31.4368 55.2827 31.4945 55.2827 31.6678Z" fill="#4A83FF"/>
<path opacity="0.3" d="M56.5964 30.917C56.5964 31.0903 56.452 31.3141 56.2788 31.4151C56.1056 31.5162 55.9612 31.4584 55.9612 31.2852C55.9612 31.1119 56.1056 30.8881 56.2788 30.7871C56.452 30.686 56.5964 30.7438 56.5964 30.917Z" fill="#4A83FF"/>
<path opacity="0.3" d="M57.9028 30.1592C57.9028 30.3325 57.7584 30.5563 57.5852 30.6573C57.4119 30.7584 57.2676 30.7006 57.2676 30.5274C57.2676 30.3541 57.4119 30.1304 57.5852 30.0293C57.7584 29.9283 57.9028 29.986 57.9028 30.1592Z" fill="#4A83FF"/>
<path d="M59.2168 29.4011C59.2168 29.5743 59.0724 29.7981 58.8992 29.8992C58.7259 30.0002 58.5815 29.9425 58.5815 29.7692C58.5815 29.596 58.7259 29.3722 58.8992 29.2712C59.0724 29.1701 59.2168 29.2278 59.2168 29.4011Z" fill="#4A83FF"/>
<path d="M60.5232 28.6433C60.5232 28.8165 60.3788 29.0403 60.2056 29.1414C60.0323 29.2424 59.8879 29.1847 59.8879 29.0115C59.8879 28.8382 60.0323 28.6144 60.2056 28.5134C60.3788 28.4123 60.5232 28.4701 60.5232 28.6433Z" fill="#4A83FF"/>
<path opacity="0.3" d="M61.8371 27.8926C61.8371 28.0658 61.6927 28.2896 61.5195 28.3906C61.3463 28.4917 61.2019 28.4339 61.2019 28.2607C61.2019 28.0874 61.3463 27.8637 61.5195 27.7626C61.6927 27.6616 61.8371 27.7193 61.8371 27.8926Z" fill="#4A83FF"/>
<path opacity="0.3" d="M63.1435 27.1344C63.1435 27.3076 62.9992 27.5314 62.8259 27.6325C62.6527 27.7335 62.5083 27.6758 62.5083 27.5025C62.5083 27.3293 62.6527 27.1055 62.8259 27.0045C62.9992 26.9034 63.1435 26.9612 63.1435 27.1344Z" fill="#4A83FF"/>
<path d="M64.4499 26.3766C64.4499 26.5499 64.3056 26.7736 64.1323 26.8747C63.9591 26.9757 63.8147 26.918 63.8147 26.7448C63.8147 26.5715 63.9591 26.3477 64.1323 26.2467C64.3056 26.1456 64.4499 26.2034 64.4499 26.3766Z" fill="#4A83FF"/>
<path d="M42.3255 49.4322L38.9473 51.3811C37.8068 52.038 36.8828 53.4961 36.8828 54.6367C36.8828 55.7772 37.8068 56.167 38.9473 55.5101L42.3255 53.5611C43.466 52.9042 44.39 51.4461 44.39 50.3056C44.39 49.1651 43.466 48.7753 42.3255 49.4322Z" fill="#282147"/>
<path d="M63.9808 36.93L47.7322 46.314C46.5917 46.9708 45.6677 48.429 45.6677 49.5695C45.6677 50.71 46.5917 51.0998 47.7322 50.4429L63.9808 41.059C65.1213 40.4021 66.0453 38.944 66.0453 37.8034C66.0453 36.6629 65.1213 36.2731 63.9808 36.93Z" fill="#282147"/>
<path d="M43.0764 51.4391L38.1968 54.2542V53.4963L43.0764 50.6811V51.4391Z" fill="#95DBDB"/>
<path d="M53.976 44.7762C53.976 44.9495 53.8317 45.1733 53.6584 45.2743C53.4852 45.3754 53.3408 45.3176 53.3408 45.1444C53.3408 44.9711 53.4852 44.7474 53.6584 44.6463C53.8317 44.5453 53.976 44.603 53.976 44.7762Z" fill="#95DBDB"/>
<path opacity="0.3" d="M55.2827 44.0185C55.2827 44.1917 55.1383 44.4155 54.9651 44.5165C54.7918 44.6176 54.6475 44.5598 54.6475 44.3866C54.6475 44.2133 54.7918 43.9896 54.9651 43.8885C55.1383 43.7875 55.2827 43.8452 55.2827 44.0185Z" fill="#95DBDB"/>
<path d="M56.5964 43.2603C56.5964 43.4336 56.452 43.6573 56.2788 43.7584C56.1056 43.8594 55.9612 43.8017 55.9612 43.6285C55.9612 43.4552 56.1056 43.2314 56.2788 43.1304C56.452 43.0293 56.5964 43.0871 56.5964 43.2603Z" fill="#95DBDB"/>
<path opacity="0.3" d="M57.9028 42.5096C57.9028 42.6828 57.7584 42.9066 57.5852 43.0077C57.4119 43.1087 57.2676 43.051 57.2676 42.8777C57.2676 42.7045 57.4119 42.4807 57.5852 42.3796C57.7584 42.2786 57.9028 42.3364 57.9028 42.5096Z" fill="#95DBDB"/>
<path d="M59.2168 41.7518C59.2168 41.925 59.0724 42.1488 58.8992 42.2498C58.7259 42.3509 58.5815 42.2932 58.5815 42.1199C58.5815 41.9467 58.7259 41.7229 58.8992 41.6218C59.0724 41.5208 59.2168 41.5785 59.2168 41.7518Z" fill="#95DBDB"/>
<path d="M60.5232 40.994C60.5232 41.1672 60.3788 41.391 60.2056 41.4921C60.0323 41.5931 59.8879 41.5354 59.8879 41.3621C59.8879 41.1889 60.0323 40.9651 60.2056 40.8641C60.3788 40.763 60.5232 40.8207 60.5232 40.994Z" fill="#95DBDB"/>
<path d="M61.8371 40.2358C61.8371 40.4091 61.6927 40.6329 61.5195 40.7339C61.3463 40.835 61.2019 40.7772 61.2019 40.604C61.2019 40.4307 61.3463 40.207 61.5195 40.1059C61.6927 40.0049 61.8371 40.0626 61.8371 40.2358Z" fill="#95DBDB"/>
<path opacity="0.3" d="M63.1435 39.4781C63.1435 39.6513 62.9992 39.8751 62.8259 39.9761C62.6527 40.0772 62.5083 40.0194 62.5083 39.8462C62.5083 39.673 62.6527 39.4492 62.8259 39.3481C62.9992 39.2471 63.1435 39.3048 63.1435 39.4781Z" fill="#95DBDB"/>
<path d="M64.4499 38.7273C64.4499 38.9005 64.3056 39.1243 64.1323 39.2254C63.9591 39.3264 63.8147 39.2687 63.8147 39.0954C63.8147 38.9222 63.9591 38.6984 64.1323 38.5974C64.3056 38.4963 64.4499 38.5541 64.4499 38.7273Z" fill="#95DBDB"/>
<path d="M42.3255 61.8333L38.9473 63.7822C37.8068 64.4391 36.8828 65.8972 36.8828 67.0377C36.8828 68.1782 37.8068 68.568 38.9473 67.9112L42.3255 65.9622C43.466 65.3053 44.39 63.8472 44.39 62.7067C44.39 61.5662 43.466 61.1764 42.3255 61.8333Z" fill="#282147"/>
<path d="M63.9808 49.3382L47.7322 58.7221C46.5917 59.379 45.6677 60.8371 45.6677 61.9776C45.6677 63.1181 46.5917 63.5079 47.7322 62.851L63.9808 53.4671C65.1213 52.8102 66.0453 51.3521 66.0453 50.2116C66.0453 49.0711 65.1213 48.6813 63.9808 49.3382Z" fill="#282147"/>
<path d="M43.0764 63.8402L38.1968 66.6626V65.9047L43.0764 63.0895V63.8402Z" fill="#FF78D6"/>
<path d="M53.976 57.1846C53.976 57.3578 53.8317 57.5816 53.6584 57.6827C53.4852 57.7837 53.3408 57.726 53.3408 57.5527C53.3408 57.3795 53.4852 57.1557 53.6584 57.0547C53.8317 56.9536 53.976 57.0114 53.976 57.1846Z" fill="#FF78D6"/>
<path opacity="0.3" d="M55.2827 56.4268C55.2827 56.6 55.1383 56.8238 54.9651 56.9249C54.7918 57.0259 54.6475 56.9682 54.6475 56.7949C54.6475 56.6217 54.7918 56.3979 54.9651 56.2969C55.1383 56.1958 55.2827 56.2536 55.2827 56.4268Z" fill="#FF78D6"/>
<path d="M56.5964 55.6686C56.5964 55.8419 56.452 56.0657 56.2788 56.1667C56.1056 56.2678 55.9612 56.21 55.9612 56.0368C55.9612 55.8635 56.1056 55.6398 56.2788 55.5387C56.452 55.4377 56.5964 55.4954 56.5964 55.6686Z" fill="#FF78D6"/>
<path opacity="0.3" d="M57.9028 54.9109C57.9028 55.0841 57.7584 55.3079 57.5852 55.4089C57.4119 55.51 57.2676 55.4522 57.2676 55.279C57.2676 55.1058 57.4119 54.882 57.5852 54.7809C57.7584 54.6799 57.9028 54.7376 57.9028 54.9109Z" fill="#FF78D6"/>
<path d="M59.2168 54.1601C59.2168 54.3334 59.0724 54.5571 58.8992 54.6582C58.7259 54.7593 58.5815 54.7015 58.5815 54.5283C58.5815 54.355 58.7259 54.1313 58.8992 54.0302C59.0724 53.9291 59.2168 53.9869 59.2168 54.1601Z" fill="#FF78D6"/>
<path d="M60.5232 53.4023C60.5232 53.5756 60.3788 53.7993 60.2056 53.9004C60.0323 54.0014 59.8879 53.9437 59.8879 53.7704C59.8879 53.5972 60.0323 53.3734 60.2056 53.2724C60.3788 53.1713 60.5232 53.2291 60.5232 53.4023Z" fill="#FF78D6"/>
<path opacity="0.3" d="M61.8371 52.6442C61.8371 52.8174 61.6927 53.0412 61.5195 53.1423C61.3463 53.2433 61.2019 53.1856 61.2019 53.0123C61.2019 52.8391 61.3463 52.6153 61.5195 52.5143C61.6927 52.4132 61.8371 52.471 61.8371 52.6442Z" fill="#FF78D6"/>
<path opacity="0.3" d="M63.1435 51.8864C63.1435 52.0596 62.9992 52.2834 62.8259 52.3845C62.6527 52.4855 62.5083 52.4278 62.5083 52.2545C62.5083 52.0813 62.6527 51.8575 62.8259 51.7565C62.9992 51.6554 63.1435 51.7131 63.1435 51.8864Z" fill="#FF78D6"/>
<path d="M64.4499 51.1356C64.4499 51.3089 64.3056 51.5327 64.1323 51.6337C63.9591 51.7348 63.8147 51.677 63.8147 51.5038C63.8147 51.3306 63.9591 51.1068 64.1323 51.0057C64.3056 50.9047 64.4499 50.9624 64.4499 51.1356Z" fill="#FF78D6"/>
<path d="M3.20894 26.7086L2.79028 26.4704V22.5869L3.20894 22.8251V26.7086ZM4.1329 23.3592L3.71424 23.121V27.0045L4.1329 27.2427V23.3592ZM5.05687 23.8934L4.63819 23.6552V27.5387L5.05687 27.7769V23.8934ZM5.98083 24.4275L5.56215 24.1893V28.0728L5.98083 28.311V24.4275ZM6.90478 24.9617L6.4861 24.7235V28.607L6.90478 28.8452V24.9617ZM7.82874 25.4959L7.41006 25.2577V29.1412L7.82874 29.3794V25.4959ZM10.5934 27.0911L10.1747 26.8529V30.7364L10.5934 30.9746V27.0911ZM11.5173 27.6253L11.0987 27.3871V31.2706L11.5173 31.5088V27.6253Z" fill="#8D8181"/>
<path d="M3.20894 39.0306L2.79028 38.7924V34.9089L3.20894 35.1471V39.0306ZM4.1329 35.6813L3.71424 35.4431V39.3266L4.1329 39.5648V35.6813ZM5.05687 36.2154L4.63819 35.9772V39.8607L5.05687 40.0989V36.2154ZM5.98083 36.7496L5.56215 36.5114V40.3949L5.98083 40.6331V36.7496ZM6.90478 37.2837L6.4861 37.0455V40.9291L6.90478 41.1673V37.2837ZM7.82874 37.8179L7.41006 37.5797V41.4632L7.82874 41.7014V37.8179ZM10.5934 39.4132L10.1747 39.175V43.0585L10.5934 43.2967V39.4132ZM11.5173 39.9473L11.0987 39.7091V43.5926L11.5173 43.8308V39.9473Z" fill="#8D8181"/>
<path d="M3.20894 51.4535L2.79028 51.2153V47.3318L3.20894 47.57V51.4535ZM4.1329 48.1041L3.71424 47.8659V51.7494L4.1329 51.9876V48.1041ZM5.05687 48.6383L4.63819 48.4001V52.2836L5.05687 52.5218V48.6383ZM5.98083 49.1724L5.56215 48.9342V52.8178L5.98083 53.0559V49.1724ZM6.90478 49.7066L6.4861 49.4684V53.3519L6.90478 53.5901V49.7066ZM7.82874 50.2408L7.41006 50.0026V53.8861L7.82874 54.1243V50.2408ZM10.5934 51.836L10.1747 51.5978V55.4813L10.5934 55.7195V51.836ZM11.5173 52.3702L11.0987 52.132V56.0155L11.5173 56.2537V52.3702Z" fill="#8D8181"/>
</svg>
