<svg width="15" height="16" viewBox="0 0 15 16" fill="none" xmlns="http://www.w3.org/2000/svg">
<path d="M7.48102 1.93939C4.13556 1.93939 1.42041 4.65454 1.42041 8C1.42041 11.3455 4.13556 14.0606 7.48102 14.0606C10.8265 14.0606 13.5416 11.3455 13.5416 8C13.5416 4.65454 10.8265 1.93939 7.48102 1.93939ZM4.66283 11.9394C5.45677 11.3697 6.42647 11.0303 7.48102 11.0303C8.53556 11.0303 9.50526 11.3697 10.2992 11.9394C9.50526 12.5091 8.53556 12.8485 7.48102 12.8485C6.42647 12.8485 5.45677 12.5091 4.66283 11.9394ZM11.2022 11.103C10.178 10.303 8.88708 9.81818 7.48102 9.81818C6.07496 9.81818 4.78405 10.303 3.7598 11.103C3.05677 10.2606 2.63253 9.18182 2.63253 8C2.63253 5.32121 4.80223 3.15151 7.48102 3.15151C10.1598 3.15151 12.3295 5.32121 12.3295 8C12.3295 9.18182 11.9053 10.2606 11.2022 11.103Z" fill="black"/>
<path d="M7.48102 4.36363C6.31132 4.36363 5.3598 5.31515 5.3598 6.48485C5.3598 7.65454 6.31132 8.60606 7.48102 8.60606C8.65071 8.60606 9.60223 7.65454 9.60223 6.48485C9.60223 5.31515 8.65071 4.36363 7.48102 4.36363ZM7.48102 7.39394C6.97799 7.39394 6.57193 6.98788 6.57193 6.48485C6.57193 5.98182 6.97799 5.57576 7.48102 5.57576C7.98405 5.57576 8.39011 5.98182 8.39011 6.48485C8.39011 6.98788 7.98405 7.39394 7.48102 7.39394Z" fill="black"/>
</svg>
