<svg width="19" height="20" viewBox="0 0 19 20" fill="none" xmlns="http://www.w3.org/2000/svg">
<path d="M11.3636 3.18182H3.78786C2.95452 3.18182 2.28028 3.86364 2.28028 4.69698L2.27271 15.303C2.27271 16.1364 2.94695 16.8182 3.78028 16.8182H14.3939C15.2273 16.8182 15.9091 16.1364 15.9091 15.303V7.72728L11.3636 3.18182ZM3.78786 15.303V4.69698H10.606V8.48485H14.3939V15.303H3.78786ZM6.81816 6.9697C6.81816 7.38637 6.47725 7.72728 6.06058 7.72728C5.64392 7.72728 5.30301 7.38637 5.30301 6.9697C5.30301 6.55304 5.64392 6.21213 6.06058 6.21213C6.47725 6.21213 6.81816 6.55304 6.81816 6.9697ZM6.81816 10C6.81816 10.4167 6.47725 10.7576 6.06058 10.7576C5.64392 10.7576 5.30301 10.4167 5.30301 10C5.30301 9.58334 5.64392 9.24243 6.06058 9.24243C6.47725 9.24243 6.81816 9.58334 6.81816 10ZM6.81816 13.0303C6.81816 13.447 6.47725 13.7879 6.06058 13.7879C5.64392 13.7879 5.30301 13.447 5.30301 13.0303C5.30301 12.6136 5.64392 12.2727 6.06058 12.2727C6.47725 12.2727 6.81816 12.6136 6.81816 13.0303Z" fill="url(#paint0_linear_3914_531)"/>
<defs>
<linearGradient id="paint0_linear_3914_531" x1="2.27271" y1="16.8182" x2="17.5911" y2="14.5521" gradientUnits="userSpaceOnUse">
<stop stop-color="#A6CA3B"/>
<stop offset="1" stop-color="#4E93E4"/>
</linearGradient>
</defs>
</svg>
