<svg width="12" height="12" viewBox="0 0 12 12" fill="none" xmlns="http://www.w3.org/2000/svg">
<path d="M2.8125 5.3125C2.29687 5.3125 1.875 5.73438 1.875 6.25C1.875 6.76563 2.29687 7.1875 2.8125 7.1875C3.32813 7.1875 3.75 6.76563 3.75 6.25C3.75 5.73438 3.32813 5.3125 2.8125 5.3125ZM8.4375 5.3125C7.92187 5.3125 7.5 5.73438 7.5 6.25C7.5 6.76563 7.92187 7.1875 8.4375 7.1875C8.95313 7.1875 9.375 6.76563 9.375 6.25C9.375 5.73438 8.95313 5.3125 8.4375 5.3125ZM5.625 5.3125C5.10937 5.3125 4.6875 5.73438 4.6875 6.25C4.6875 6.76563 5.10937 7.1875 5.625 7.1875C6.14063 7.1875 6.5625 6.76563 6.5625 6.25C6.5625 5.73438 6.14063 5.3125 5.625 5.3125Z" fill="black"/>
</svg>
