<svg width="12" height="12" viewBox="0 0 12 12" fill="none" xmlns="http://www.w3.org/2000/svg">
<path d="M6.1031 9.96719V10.9141C7.04529 10.8203 7.9031 10.4453 8.59685 9.87813L7.93123 9.20781C7.41091 9.61094 6.78748 9.88281 6.1031 9.96719Z" fill="black"/>
<path d="M1.88904 6.25C1.88904 4.35156 3.30935 2.77656 5.14685 2.53281V1.58594C2.78904 1.83438 0.951538 3.83125 0.951538 6.25C0.951538 8.66875 2.78904 10.6656 5.14685 10.9141V9.96719C3.30935 9.72344 1.88904 8.14844 1.88904 6.25Z" fill="black"/>
<path d="M9.35154 5.78125H10.2984C10.2047 4.83906 9.82966 3.98125 9.26248 3.2875L8.59216 3.95781C8.99529 4.47344 9.26716 5.09688 9.35154 5.78125Z" fill="black"/>
<path d="M8.59685 2.62188C7.9031 2.05469 7.0406 1.67969 6.1031 1.58594V2.53281C6.78748 2.61719 7.41091 2.88906 7.93123 3.29219L8.59685 2.62188Z" fill="black"/>
<path d="M8.59216 8.54688L9.26248 9.2125C9.82966 8.51875 10.2047 7.66094 10.2984 6.71875H9.35154C9.26716 7.40313 8.99529 8.02656 8.59216 8.54688Z" fill="black"/>
<path d="M7.49998 5.82813C7.49998 4.66094 6.60935 3.90625 5.62498 3.90625C4.6406 3.90625 3.74998 4.66094 3.74998 5.82813C3.74998 6.60625 4.37341 7.52969 5.62498 8.59375C6.87654 7.52969 7.49998 6.60625 7.49998 5.82813ZM5.62498 6.25C5.34841 6.25 5.12341 6.025 5.12341 5.74844C5.12341 5.47188 5.34841 5.24688 5.62498 5.24688C5.90154 5.24688 6.12654 5.47188 6.12654 5.74844C6.12654 6.025 5.90154 6.25 5.62498 6.25Z" fill="black"/>
</svg>
