<svg width="19" height="20" viewBox="0 0 19 20" fill="none" xmlns="http://www.w3.org/2000/svg">
<path d="M7.77433 8.14395H9.89554L7.77433 10.7197V12.0833H11.5622V10.7197H9.441L11.5622 8.14395V6.78031H7.77433V8.14395ZM14.2137 12.8409V9.05304C14.2137 6.72728 12.9789 4.78031 10.8046 4.26516V3.75001C10.8046 3.12122 10.2971 2.61365 9.66827 2.61365C9.03948 2.61365 8.53191 3.12122 8.53191 3.75001V4.26516C6.36524 4.78031 5.12282 6.71971 5.12282 9.05304V12.8409L3.60767 14.3561V15.1136H15.7289V14.3561L14.2137 12.8409ZM12.6986 13.5985H6.63797V9.05304C6.63797 7.17425 7.78191 5.64395 9.66827 5.64395C11.5546 5.64395 12.6986 7.17425 12.6986 9.05304V13.5985ZM9.66827 17.3864C10.5016 17.3864 11.1834 16.7046 11.1834 15.8712H8.15312C8.15312 16.7046 8.83494 17.3864 9.66827 17.3864Z" fill="url(#paint0_linear_3914_857)"/>
<defs>
<linearGradient id="paint0_linear_3914_857" x1="3.60767" y1="17.3864" x2="17.32" y2="15.7219" gradientUnits="userSpaceOnUse">
<stop stop-color="#A6CA3B"/>
<stop offset="1" stop-color="#4E93E4"/>
</linearGradient>
</defs>
</svg>
