<svg width="45" height="44" viewBox="0 0 45 44" fill="none" xmlns="http://www.w3.org/2000/svg">
<path d="M30.1952 35.475C29.733 34.8633 29.4515 34.1342 29.3826 33.3706C29.3137 32.607 29.4601 31.8393 29.8054 31.1548C30.1462 30.4681 30.6724 29.8906 31.3246 29.4877C31.9767 29.0848 32.7286 28.8725 33.4952 28.875H33.5V8.25C33.5 7.88533 33.3551 7.53559 33.0973 7.27773C32.8394 7.01987 32.4897 6.875 32.125 6.875H12.875C12.5103 6.875 12.1606 7.01987 11.9027 7.27773C11.6449 7.53559 11.5 7.88533 11.5 8.25V37.125C11.5 37.4897 11.6449 37.8394 11.9027 38.0973C12.1606 38.3551 12.5103 38.5 12.875 38.5H32.125C32.2323 38.5 32.3354 38.4849 32.4351 38.4615L30.1952 35.475Z" fill="#F0F0F0"/>
<path d="M30.75 29.9276V26.125H14.25V30.25H30.4221C30.5251 30.1364 30.6346 30.0287 30.75 29.9276ZM29.6101 31.625H14.25V35.75H30.4014L30.1952 35.475C29.7857 34.9323 29.5178 34.2961 29.4157 33.624C29.3135 32.9519 29.3804 32.2649 29.6101 31.625Z" fill="#3CC8B4"/>
<path d="M14.25 37.125V8.25C14.25 7.88533 14.3949 7.53559 14.6527 7.27773C14.9106 7.01987 15.2603 6.875 15.625 6.875H12.875C12.5103 6.875 12.1606 7.01987 11.9027 7.27773C11.6449 7.53559 11.5 7.88533 11.5 8.25V37.125C11.5 37.4897 11.6449 37.8394 11.9027 38.0973C12.1606 38.3551 12.5103 38.5 12.875 38.5H15.625C15.2603 38.5 14.9106 38.3551 14.6527 38.0973C14.3949 37.8394 14.25 37.4897 14.25 37.125Z" fill="#D2D2D2"/>
<path d="M17 2.75H28V6.875H17V2.75Z" fill="#505050"/>
<path d="M17 2.75H19.75V6.875H17V2.75Z" fill="#3C3C3C"/>
<path d="M14.25 15.125H30.75V19.25H14.25V15.125ZM14.25 20.625H30.75V24.75H14.25V20.625Z" fill="#3CC8B4"/>
<path d="M14.25 15.125H17V19.25H14.25V15.125Z" fill="#1EAA96"/>
<path d="M14.25 9.625H30.75V13.75H14.25V9.625Z" fill="#3CC8B4"/>
<path d="M14.25 9.625H17V13.75H14.25V9.625ZM14.25 20.625H17V24.75H14.25V20.625ZM14.25 26.125H17V30.25H14.25V26.125ZM14.25 31.625H17V35.75H14.25V31.625Z" fill="#1EAA96"/>
<path d="M36.2453 31.625L36.8145 31.0558C37.0699 30.8002 37.3731 30.5975 37.7068 30.4593C38.0405 30.321 38.3982 30.2499 38.7595 30.25H38.9953C41.2613 30.25 42.5552 32.8371 41.1953 34.65L36.2453 41.25L31.2953 34.65C29.9354 32.8371 31.2293 30.25 33.4953 30.25H33.7311C34.4605 30.25 35.1597 30.5394 35.6754 31.0558L36.2453 31.625Z" fill="#FA6450"/>
<path d="M32.6648 34.65C31.4232 32.9945 32.3974 30.6996 34.3004 30.3126C34.1133 30.272 33.9225 30.251 33.7311 30.25H33.4953C31.2293 30.25 29.9354 32.8371 31.2953 34.65L36.2453 41.25L36.93 40.337L32.6648 34.65Z" fill="#DC4632"/>
</svg>
