<svg width="19" height="20" viewBox="0 0 19 20" fill="none" xmlns="http://www.w3.org/2000/svg">
<path d="M10.9401 9.00758L9.37948 8.29546L10.9401 7.58334L11.6522 6.02273L12.3643 7.58334L13.9249 8.29546L12.3643 9.00758L11.6522 10.5682L10.9401 9.00758ZM3.31887 12.0833L4.03099 10.5227L5.5916 9.81061L4.03099 9.09849L3.31887 7.53789L2.60675 9.09849L1.04614 9.81061L2.60675 10.5227L3.31887 12.0833ZM6.72796 8.29546L7.55372 6.4697L9.37948 5.64395L7.55372 4.81819L6.72796 2.99243L5.9022 4.81819L4.07645 5.64395L5.9022 6.4697L6.72796 8.29546ZM3.69766 17.0076L8.24311 12.4546L11.2734 15.4849L17.7128 8.24243L16.6446 7.17425L11.2734 13.2121L8.24311 10.1818L2.56129 15.8712L3.69766 17.0076Z" fill="url(#paint0_linear_3914_2174)"/>
<defs>
<linearGradient id="paint0_linear_3914_2174" x1="1.04614" y1="17.0076" x2="19.6041" y2="13.7428" gradientUnits="userSpaceOnUse">
<stop stop-color="#A6CA3B"/>
<stop offset="1" stop-color="#4E93E4"/>
</linearGradient>
</defs>
</svg>
