<svg width="20" height="20" viewBox="0 0 20 20" fill="none" xmlns="http://www.w3.org/2000/svg">
<path d="M9.95708 17.3864C10.7904 17.3864 11.4722 16.7046 11.4722 15.8712H8.44193C8.44193 16.7046 9.12375 17.3864 9.95708 17.3864ZM14.5025 12.8409V9.05304C14.5025 6.72728 13.2677 4.78031 11.0934 4.26516V3.75001C11.0934 3.12122 10.5859 2.61365 9.95708 2.61365C9.3283 2.61365 8.82072 3.12122 8.82072 3.75001V4.26516C6.65405 4.78031 5.41163 6.71971 5.41163 9.05304V12.8409L3.89648 14.3561V15.1136H16.0177V14.3561L14.5025 12.8409ZM12.9874 13.5985H6.92678V9.05304C6.92678 7.17425 8.07072 5.64395 9.95708 5.64395C11.8434 5.64395 12.9874 7.17425 12.9874 9.05304V13.5985ZM6.6086 3.81062L5.52526 2.72728C3.70708 4.11365 2.51011 6.25001 2.40405 8.67425H3.9192C4.03284 6.66668 5.06314 4.9091 6.6086 3.81062ZM15.995 8.67425H17.5101C17.3965 6.25001 16.1995 4.11365 14.3889 2.72728L13.3131 3.81062C14.8434 4.9091 15.8813 6.66668 15.995 8.67425Z" fill="url(#paint0_linear_3914_357)"/>
<defs>
<linearGradient id="paint0_linear_3914_357" x1="2.40405" y1="17.3864" x2="19.3569" y2="14.8219" gradientUnits="userSpaceOnUse">
<stop stop-color="#A6CA3B"/>
<stop offset="1" stop-color="#4E93E4"/>
</linearGradient>
</defs>
</svg>
