<svg width="16" height="16" viewBox="0 0 16 16" fill="none" xmlns="http://www.w3.org/2000/svg">
<path d="M7.53249 5.86165C6.84702 5.86165 6.28618 5.30081 6.28618 4.61533C6.28618 3.92986 6.84702 3.36902 7.53249 3.36902C8.21797 3.36902 8.77881 3.92986 8.77881 4.61533C8.77881 5.30081 8.21797 5.86165 7.53249 5.86165ZM7.53249 7.10796C8.21797 7.10796 8.77881 7.66881 8.77881 8.35428C8.77881 9.03975 8.21797 9.60059 7.53249 9.60059C6.84702 9.60059 6.28618 9.03975 6.28618 8.35428C6.28618 7.66881 6.84702 7.10796 7.53249 7.10796ZM7.53249 10.8469C8.21797 10.8469 8.77881 11.4077 8.77881 12.0932C8.77881 12.7787 8.21797 13.3395 7.53249 13.3395C6.84702 13.3395 6.28618 12.7787 6.28618 12.0932C6.28618 11.4077 6.84702 10.8469 7.53249 10.8469Z" fill="#E8E7EB"/>
</svg>
