<svg width="21" height="21" viewBox="0 0 21 21" fill="none" xmlns="http://www.w3.org/2000/svg">
<path d="M18.6544 14.6401L19.6044 13.8068L18.7711 12.3651L17.5628 12.7735C17.2961 12.5485 16.9961 12.3735 16.6628 12.2485L16.4128 10.9985H14.7461L14.4961 12.2401C14.1628 12.3651 13.8628 12.5401 13.5961 12.7651L12.3878 12.3568L11.5544 13.7985L12.5044 14.6318C12.4378 15.0485 12.4378 15.2651 12.5044 15.6818L11.5544 16.5151L12.3878 17.9568L13.5961 17.5485C13.8628 17.7735 14.1628 17.9485 14.4961 18.0735L14.7461 19.3318H16.4128L16.6628 18.0901C16.9961 17.9651 17.2961 17.7901 17.5628 17.5651L18.7711 17.9735L19.6044 16.5318L18.6544 15.6985C18.7211 15.2735 18.7211 15.0568 18.6544 14.6401ZM15.5794 16.8318C14.6628 16.8318 13.9128 16.0818 13.9128 15.1651C13.9128 14.2485 14.6628 13.4985 15.5794 13.4985C16.4961 13.4985 17.2461 14.2485 17.2461 15.1651C17.2461 16.0818 16.4961 16.8318 15.5794 16.8318ZM8.91276 5.16512V9.67345L10.8794 11.6401L11.7461 10.1485L10.5794 8.99012V5.16512H8.91276ZM17.2461 9.33179C17.2461 5.19012 13.8878 1.83179 9.74609 1.83179C7.38776 1.83179 5.28776 2.93179 3.91276 4.63179V2.66512H2.24609V7.66512H7.24609V5.99845H4.96276C6.02109 4.49012 7.77109 3.49845 9.74609 3.49845C12.9628 3.49845 15.5794 6.11512 15.5794 9.33179H17.2461ZM8.79609 15.0901C6.30443 14.6818 4.33776 12.6735 3.97943 10.1651H2.29609C2.71276 13.9151 5.88776 16.8318 9.74609 16.8318C9.76276 16.8318 9.78776 16.8318 9.80443 16.8318L8.79609 15.0901Z" fill="black"/>
</svg>
