<svg width="22" height="22" viewBox="0 0 22 22" fill="none" xmlns="http://www.w3.org/2000/svg">
<path d="M14.3764 13.1975H13.6926L13.4502 12.9638C14.2985 11.977 14.8092 10.696 14.8092 9.30241C14.8092 6.19498 12.2903 3.67615 9.1829 3.67615C6.07547 3.67615 3.55664 6.19498 3.55664 9.30241C3.55664 12.4098 6.07547 14.9287 9.1829 14.9287C10.5765 14.9287 11.8575 14.418 12.8443 13.5697L13.078 13.8121V14.4959L17.4059 18.8151L18.6956 17.5254L14.3764 13.1975ZM9.1829 13.1975C7.02761 13.1975 5.2878 11.4577 5.2878 9.30241C5.2878 7.14712 7.02761 5.4073 9.1829 5.4073C11.3382 5.4073 13.078 7.14712 13.078 9.30241C13.078 11.4577 11.3382 13.1975 9.1829 13.1975Z" fill="#00FF64"/>
</svg>
