<svg width="18" height="19" viewBox="0 0 18 19" fill="none" xmlns="http://www.w3.org/2000/svg">
<path d="M14.8645 7.14384L15.8391 4.99983L17.9831 4.02529L15.8391 3.05074L14.8645 0.906738L13.89 3.05074L11.746 4.02529L13.89 4.99983L14.8645 7.14384Z" fill="url(#paint0_linear_3932_7090)"/>
<path d="M14.8645 11.8217L13.89 13.9657L11.746 14.9402L13.89 15.9148L14.8645 18.0588L15.8391 15.9148L17.9831 14.9402L15.8391 13.9657L14.8645 11.8217Z" fill="url(#paint1_linear_3932_7090)"/>
<path d="M9.01724 7.53365L7.06815 3.24565L5.11906 7.53365L0.831055 9.48275L5.11906 11.4318L7.06815 15.7198L9.01724 11.4318L13.3052 9.48275L9.01724 7.53365ZM7.83999 10.2546L7.06815 11.9542L6.29631 10.2546L4.5967 9.48275L6.29631 8.71091L7.06815 7.0113L7.83999 8.71091L9.5396 9.48275L7.83999 10.2546Z" fill="url(#paint2_linear_3932_7090)"/>
<defs>
<linearGradient id="paint0_linear_3932_7090" x1="0.831055" y1="18.0588" x2="20.0988" y2="15.2084" gradientUnits="userSpaceOnUse">
<stop stop-color="#F7EA4E"/>
<stop offset="1" stop-color="#E6944F"/>
</linearGradient>
<linearGradient id="paint1_linear_3932_7090" x1="0.831055" y1="18.0588" x2="20.0988" y2="15.2084" gradientUnits="userSpaceOnUse">
<stop stop-color="#F7EA4E"/>
<stop offset="1" stop-color="#E6944F"/>
</linearGradient>
<linearGradient id="paint2_linear_3932_7090" x1="0.831055" y1="18.0588" x2="20.0988" y2="15.2084" gradientUnits="userSpaceOnUse">
<stop stop-color="#F7EA4E"/>
<stop offset="1" stop-color="#E6944F"/>
</linearGradient>
</defs>
</svg>
