<svg width="30" height="30" viewBox="0 0 30 30" fill="none" xmlns="http://www.w3.org/2000/svg">
<path d="M15.07 2.59021C8.39039 2.59021 2.96924 8.01137 2.96924 14.691C2.96924 21.3706 8.39039 26.7918 15.07 26.7918H24.7507C26.0818 26.7918 27.1708 25.7027 27.1708 24.3716V14.691C27.1708 8.01137 21.7497 2.59021 15.07 2.59021ZM15.07 24.3716C11.5729 24.3716 8.4993 22.5081 6.80519 19.7249L10.3749 16.1552L14.3561 19.5313L19.9104 13.9892V15.9011H22.3305V9.85069H16.2801V12.2708H18.192L14.223 16.2399L10.2297 12.8759L5.76452 17.3532C5.52251 16.5061 5.3894 15.6107 5.3894 14.691C5.3894 9.35455 9.73358 5.01037 15.07 5.01037C20.4065 5.01037 24.7507 9.35455 24.7507 14.691C24.7507 20.0275 20.4065 24.3716 15.07 24.3716ZM24.1456 24.9767C23.4801 24.9767 22.9355 24.4321 22.9355 23.7666C22.9355 23.1011 23.4801 22.5565 24.1456 22.5565C24.8112 22.5565 25.3557 23.1011 25.3557 23.7666C25.3557 24.4321 24.8112 24.9767 24.1456 24.9767Z" fill="url(#paint0_linear_3557_36561)"/>
<defs>
<linearGradient id="paint0_linear_3557_36561" x1="2.96924" y1="26.7918" x2="30.1561" y2="22.7699" gradientUnits="userSpaceOnUse">
<stop stop-color="#A6CA3B"/>
<stop offset="1" stop-color="#4E93E4"/>
</linearGradient>
</defs>
</svg>
