<svg width="16" height="16" viewBox="0 0 16 16" fill="none" xmlns="http://www.w3.org/2000/svg">
<path d="M9.01219 5.23847H7.76587V6.48478H9.01219V5.23847ZM9.01219 7.7311H7.76587V11.47H9.01219V7.7311ZM8.38903 2.12268C11.8289 2.12268 14.6206 4.91443 14.6206 8.35426C14.6206 11.7941 11.8289 14.5858 8.38903 14.5858C4.9492 14.5858 2.15746 11.7941 2.15746 8.35426C2.15746 4.91443 4.9492 2.12268 8.38903 2.12268ZM8.38903 13.3395C11.1372 13.3395 13.3743 11.1024 13.3743 8.35426C13.3743 5.60613 11.1372 3.369 8.38903 3.369C5.64091 3.369 3.40377 5.60613 3.40377 8.35426C3.40377 11.1024 5.64091 13.3395 8.38903 13.3395Z" fill="#E8E7EB"/>
</svg>
