<svg width="22" height="22" viewBox="0 0 22 22" fill="none" xmlns="http://www.w3.org/2000/svg">
<path d="M11.2012 2.21289C6.4232 2.21289 2.54541 6.09068 2.54541 10.8687C2.54541 15.6467 6.4232 19.5245 11.2012 19.5245C15.9792 19.5245 19.857 15.6467 19.857 10.8687C19.857 6.09068 15.9792 2.21289 11.2012 2.21289ZM11.2012 17.7933C7.38399 17.7933 4.27657 14.6859 4.27657 10.8687C4.27657 7.05147 7.38399 3.94405 11.2012 3.94405C15.0184 3.94405 18.1258 7.05147 18.1258 10.8687C18.1258 14.6859 15.0184 17.7933 11.2012 17.7933ZM15.1742 7.04282L9.47004 12.747L7.22819 10.5138L6.00772 11.7343L9.47004 15.1966L16.3947 8.27194L15.1742 7.04282Z" fill="#00FF64"/>
</svg>
