<svg width="37" height="28" viewBox="0 0 37 28" fill="none" xmlns="http://www.w3.org/2000/svg">
<path d="M4.89941 6.49396V22.2145C4.89941 23.4497 6.23586 24.4603 7.90266 24.4603H16.9124V4.24817H7.90266C6.23586 4.24817 4.89941 5.25878 4.89941 6.49396ZM13.9092 22.2145H7.90266V6.49396H13.9092V22.2145Z" fill="url(#paint0_linear_3557_40551)"/>
<path d="M28.9254 4.24817H19.9157V13.2314H31.9286V6.49396C31.9286 5.25878 30.5772 4.24817 28.9254 4.24817ZM28.9254 10.9856H22.9189V6.49396H28.9254V10.9856Z" fill="url(#paint1_linear_3557_40551)"/>
<path d="M19.9157 24.4603H28.9254C30.5772 24.4603 31.9286 23.4497 31.9286 22.2145V15.4771H19.9157V24.4603ZM22.9189 17.7229H28.9254V22.2145H22.9189V17.7229Z" fill="url(#paint2_linear_3557_40551)"/>
<defs>
<linearGradient id="paint0_linear_3557_40551" x1="4.89941" y1="24.4603" x2="34.7586" y2="18.5533" gradientUnits="userSpaceOnUse">
<stop stop-color="#A6CA3B"/>
<stop offset="1" stop-color="#4E93E4"/>
</linearGradient>
<linearGradient id="paint1_linear_3557_40551" x1="4.89941" y1="24.4603" x2="34.7586" y2="18.5533" gradientUnits="userSpaceOnUse">
<stop stop-color="#A6CA3B"/>
<stop offset="1" stop-color="#4E93E4"/>
</linearGradient>
<linearGradient id="paint2_linear_3557_40551" x1="4.89941" y1="24.4603" x2="34.7586" y2="18.5533" gradientUnits="userSpaceOnUse">
<stop stop-color="#A6CA3B"/>
<stop offset="1" stop-color="#4E93E4"/>
</linearGradient>
</defs>
</svg>
