<svg width="57" height="66" viewBox="0 0 57 66" fill="none" xmlns="http://www.w3.org/2000/svg">
<path fillRule="evenodd" clipRule="evenodd" d="M19.1656 9.08554C18.9095 9.08554 18.6592 9.16148 18.4462 9.30377C18.2333 9.44605 18.0673 9.64829 17.9693 9.8849C17.8713 10.1215 17.8457 10.3819 17.8956 10.6331C17.9456 10.8842 18.0689 11.115 18.25 11.2961C18.4311 11.4772 18.6618 11.6005 18.913 11.6505C19.1642 11.7004 19.4246 11.6748 19.6612 11.5768C19.8978 11.4788 20.1 11.3128 20.2423 11.0998C20.3846 10.8869 20.4605 10.6365 20.4605 10.3804C20.46 10.0372 20.3234 9.7081 20.0807 9.46537C19.838 9.22264 19.5089 9.08605 19.1656 9.08554ZM14.8736 13.6381C14.8735 13.3819 14.7975 13.1316 14.6551 12.9187C14.5128 12.7058 14.3105 12.5399 14.0738 12.442C13.8372 12.344 13.5768 12.3185 13.3256 12.3685C13.0744 12.4185 12.8437 12.5419 12.6627 12.7231C12.4816 12.9042 12.3583 13.135 12.3084 13.3862C12.2585 13.6374 12.2842 13.8978 12.3823 14.1344C12.4803 14.371 12.6463 14.5732 12.8593 14.7154C13.0723 14.8577 13.3226 14.9336 13.5787 14.9336C13.9222 14.9333 14.2515 14.7967 14.4943 14.5538C14.7371 14.3108 14.8735 13.9815 14.8736 13.6381ZM9.25525 24.3346C8.99902 24.3343 8.74848 24.4101 8.53532 24.5522C8.32215 24.6944 8.15594 24.8966 8.05773 25.1332C7.95951 25.3699 7.9337 25.6303 7.98356 25.8817C8.03342 26.133 8.15672 26.3639 8.33784 26.5451C8.51896 26.7263 8.74977 26.8497 9.00106 26.8998C9.25235 26.9498 9.51283 26.9241 9.74953 26.826C9.98624 26.728 10.1885 26.5619 10.3308 26.3488C10.4731 26.1357 10.549 25.8852 10.5489 25.629C10.5484 25.286 10.4119 24.9572 10.1695 24.7146C9.92699 24.4719 9.59825 24.3353 9.25525 24.3346ZM12.2837 37.6211C12.2836 37.8772 12.3595 38.1277 12.5017 38.3407C12.644 38.5537 12.8462 38.7198 13.0828 38.8179C13.3194 38.916 13.5798 38.9417 13.8311 38.8918C14.0823 38.8419 14.3131 38.7186 14.4943 38.5375C14.6754 38.3564 14.7988 38.1257 14.8489 37.8744C14.8989 37.6232 14.8732 37.3628 14.7752 37.1261C14.6772 36.8895 14.5113 36.6872 14.2983 36.5449C14.0853 36.4025 13.8349 36.3266 13.5787 36.3266C13.2354 36.3268 12.9061 36.4633 12.6633 36.7061C12.4205 36.9489 12.284 37.2781 12.2837 37.6215V37.6211ZM17.8707 40.8786C17.8707 41.1347 17.9467 41.385 18.089 41.598C18.2313 41.8109 18.4335 41.9769 18.6701 42.0749C18.9067 42.1729 19.1671 42.1986 19.4183 42.1486C19.6694 42.0986 19.9002 41.9753 20.0813 41.7942C20.2624 41.6131 20.3857 41.3824 20.4357 41.1312C20.4856 40.88 20.46 40.6196 20.362 40.383C20.264 40.1464 20.098 39.9442 19.885 39.8019C19.6721 39.6596 19.4217 39.5837 19.1656 39.5837C18.8223 39.5839 18.4931 39.7205 18.2503 39.9632C18.0075 40.206 17.871 40.5352 17.8707 40.8786ZM26.9594 32.0178C28.5213 31.8297 29.9603 31.0758 31.0041 29.8987C32.0479 28.7216 32.6243 27.2028 32.6243 25.6296C32.6243 24.0563 32.0479 22.5376 31.0041 21.3605C29.9603 20.1834 28.5213 19.4295 26.9594 19.2413V32.0178ZM19.9342 13.1055V18.3457H25.4264C25.4463 18.1569 25.5355 17.9821 25.6766 17.8552C25.8178 17.7282 26.0009 17.658 26.1908 17.658C28.3048 17.658 30.3323 18.4978 31.8272 19.9927C33.3221 21.4876 34.1619 23.5151 34.1619 25.6291C34.1619 27.7432 33.3221 29.7707 31.8272 31.2656C30.3323 32.7604 28.3048 33.6002 26.1908 33.6002C26.0011 33.6 25.8182 33.5298 25.6771 33.403C25.536 33.2762 25.4467 33.1018 25.4264 32.9132H19.9342V38.1526C20.5923 38.3382 21.1611 38.7557 21.5354 39.3279C21.9096 39.9001 22.0642 40.5884 21.9706 41.2657C21.8769 41.943 21.5413 42.5636 21.0257 43.0127C20.5102 43.4619 19.8495 43.7093 19.1658 43.7093C18.482 43.7093 17.8213 43.4619 17.3058 43.0127C16.7902 42.5636 16.4546 41.943 16.361 41.2657C16.2673 40.5884 16.4219 39.9001 16.7962 39.3279C17.1705 38.7557 17.7392 38.3382 18.3973 38.1526V32.6378C18.3977 32.3036 18.5305 31.9831 18.7668 31.7467C19.0031 31.5103 19.3235 31.3772 19.6577 31.3766H25.4224V29.6551H14.3476V34.8959C15.0058 35.0815 15.5746 35.499 15.949 36.0713C16.3234 36.6436 16.478 37.332 16.3843 38.0094C16.2906 38.6868 15.955 39.3075 15.4394 39.7567C14.9238 40.2059 14.263 40.4534 13.5791 40.4534C12.8953 40.4534 12.2345 40.2059 11.7189 39.7567C11.2033 39.3075 10.8676 38.6868 10.7739 38.0094C10.6803 37.332 10.8349 36.6436 11.2093 36.0713C11.5836 35.499 12.1524 35.0815 12.8106 34.8959V29.3796C12.8108 29.0454 12.9436 28.7249 13.1798 28.4885C13.416 28.252 13.7364 28.119 14.0706 28.1185H25.4224V26.3981H11.9804C11.7948 27.0565 11.3773 27.6255 10.8049 28C10.2324 28.3744 9.54384 28.5291 8.86626 28.4355C8.18867 28.3418 7.56787 28.0061 7.11852 27.4903C6.66917 26.9746 6.42164 26.3137 6.42164 25.6296C6.42164 24.9456 6.66917 24.2847 7.11852 23.7689C7.56787 23.2532 8.18867 22.9175 8.86626 22.8238C9.54384 22.7301 10.2324 22.8848 10.8049 23.2593C11.3773 23.6338 11.7948 24.2028 11.9804 24.8611H25.4224V23.1406H14.0706C13.7364 23.1401 13.4161 23.007 13.1799 22.7706C12.9437 22.5342 12.8109 22.2137 12.8106 21.8796V16.3639C12.1524 16.1783 11.5836 15.7608 11.2093 15.1885C10.8349 14.6162 10.6803 13.9278 10.7739 13.2504C10.8676 12.573 11.2033 11.9523 11.7189 11.5031C12.2345 11.0539 12.8953 10.8064 13.5791 10.8064C14.263 10.8064 14.9238 11.0539 15.4394 11.5031C15.955 11.9523 16.2906 12.573 16.3843 13.2504C16.478 13.9278 16.3234 14.6162 15.949 15.1885C15.5746 15.7608 15.0058 16.1783 14.3476 16.3639V21.6034H25.4224V19.8824H19.6575C19.3233 19.8819 19.003 19.749 18.7667 19.5127C18.5304 19.2764 18.3975 18.9561 18.397 18.6219V13.1055C17.7388 12.9199 17.1699 12.5024 16.7955 11.93C16.4211 11.3577 16.2664 10.6692 16.3601 9.99172C16.4537 9.31423 16.7894 8.69353 17.3051 8.24426C17.8208 7.79499 18.4816 7.54749 19.1655 7.54749C19.8494 7.54749 20.5103 7.79499 21.0259 8.24426C21.5416 8.69353 21.8773 9.31423 21.9709 9.99172C22.0646 10.6692 21.91 11.3577 21.5356 11.93C21.1611 12.5024 20.5923 12.9199 19.934 13.1055H19.9342ZM44.4207 22.8047V28.4545L41.0961 28.8623C40.9437 28.8809 40.8003 28.9447 40.6845 29.0455C40.5688 29.1463 40.4858 29.2795 40.4464 29.4279C40.1114 30.687 39.6105 31.896 38.957 33.0232C38.8798 33.1557 38.8442 33.3083 38.8546 33.4613C38.8651 33.6143 38.9212 33.7606 39.0156 33.8814L41.0777 36.5232L37.0843 40.5179L34.443 38.4544C34.322 38.36 34.1755 38.3039 34.0224 38.2933C33.8693 38.2828 33.7166 38.3182 33.5837 38.3951C32.4569 39.0496 31.2478 39.5508 29.9884 39.8853C29.8403 39.9249 29.7073 40.0078 29.6067 40.1234C29.506 40.239 29.4422 40.382 29.4234 40.5342L29.0149 43.86H26.9594V36.6259C29.743 36.4311 32.3491 35.1879 34.2521 33.1471C36.1551 31.1062 37.2133 28.4197 37.2133 25.6292C37.2133 22.8388 36.1551 20.1523 34.2521 18.1114C32.3491 16.0706 29.743 14.8274 26.9594 14.6326V7.39961H29.0151L29.4235 10.7248C29.4423 10.877 29.5061 11.02 29.6068 11.1355C29.7075 11.2511 29.8404 11.3339 29.9885 11.3733C31.2477 11.7083 32.4568 12.2094 33.5838 12.8634C33.7166 12.9405 33.8694 12.976 34.0226 12.9655C34.1757 12.9549 34.3222 12.8987 34.4431 12.8041L37.0844 10.742L41.0779 14.736L39.0158 17.3772C38.9214 17.4981 38.8653 17.6444 38.8549 17.7973C38.8444 17.9503 38.88 18.1029 38.9571 18.2354C39.6103 19.3627 40.1111 20.5716 40.4463 21.8306C40.4856 21.979 40.5685 22.1122 40.6843 22.213C40.8001 22.3138 40.9435 22.3776 41.0959 22.3961L44.4205 22.8047H44.4207ZM44.6152 29.9784L41.7886 30.3259C41.4751 31.3691 41.0572 32.3781 40.5413 33.3376L42.2949 35.5829C42.524 35.8771 42.6378 36.2449 42.6149 36.6171C42.592 36.9893 42.4339 37.3403 42.1704 37.6042L38.1653 41.6091C37.9015 41.8727 37.5504 42.0308 37.1782 42.0536C36.806 42.0764 36.4382 41.9624 36.1442 41.733L33.8987 39.9801C32.9393 40.4966 31.9301 40.9146 30.8865 41.2278L30.539 44.0546C30.4936 44.4248 30.3144 44.7655 30.0352 45.0127C29.7559 45.2599 29.3959 45.3965 29.023 45.3966H26.1909C26.0899 45.3968 25.9899 45.377 25.8966 45.3384C25.8033 45.2998 25.7186 45.2432 25.6472 45.1718C25.5758 45.1005 25.5192 45.0157 25.4806 44.9224C25.442 44.8291 25.4223 44.7291 25.4224 44.6281V35.8844C25.4224 35.6806 25.5034 35.4852 25.6475 35.341C25.7916 35.1969 25.9871 35.116 26.1909 35.116C28.7069 35.116 31.1198 34.1165 32.8989 32.3374C34.678 30.5583 35.6775 28.1454 35.6775 25.6294C35.6775 23.1134 34.678 20.7004 32.8989 18.9214C31.1198 17.1423 28.7069 16.1428 26.1909 16.1428C25.9871 16.1428 25.7916 16.0618 25.6475 15.9177C25.5034 15.7736 25.4224 15.5781 25.4224 15.3743V6.63035C25.4224 6.42654 25.5034 6.23107 25.6475 6.08695C25.7916 5.94283 25.9871 5.86187 26.1909 5.86187H29.023C29.396 5.86224 29.7559 5.99893 30.0351 6.24619C30.3143 6.49345 30.4935 6.83424 30.539 7.20441L30.8865 10.0305C31.9302 10.344 32.9394 10.7625 33.8987 11.2796L36.1442 9.52486C36.4383 9.29565 36.806 9.18176 37.1782 9.20459C37.5504 9.22743 37.9014 9.38541 38.1653 9.64884L42.1704 13.6538C42.4339 13.9177 42.5919 14.2687 42.6149 14.6409C42.6378 15.0131 42.524 15.3808 42.2949 15.675L40.5413 17.9213C41.0572 18.8808 41.475 19.8897 41.7886 20.9329L44.6152 21.2804C44.9855 21.3262 45.3263 21.5057 45.5735 21.7851C45.8208 22.0645 45.9575 22.4245 45.9579 22.7976V28.4614C45.9575 28.8345 45.8209 29.1946 45.5736 29.474C45.3263 29.7535 44.9855 29.9329 44.6152 29.9786V29.9784ZM54.2985 45.0976L51.6356 45.3563L51.4162 48.648C51.4046 48.823 51.3335 48.9888 51.2147 49.1178C51.0958 49.2469 50.9364 49.3313 50.763 49.3573L49.6571 49.5205L50.624 51.0085C50.6871 51.1055 50.7274 51.2155 50.7421 51.3303C50.7567 51.445 50.7453 51.5616 50.7085 51.6714C50.6718 51.7811 50.6108 51.8811 50.53 51.964C50.4493 52.0468 50.3508 52.1103 50.2421 52.1498L47.9689 52.9753L48.5569 57.0885C48.5722 57.199 48.5637 57.3115 48.5321 57.4184C48.1556 58.6729 47.4003 59.5527 46.2896 60.0313C44.0067 61.015 40.2839 60.227 34.9199 57.6226C33.727 60.6766 32.9355 63.2381 32.5615 65.246C32.5286 65.4223 32.435 65.5817 32.297 65.6963C32.159 65.8109 31.9852 65.8736 31.8058 65.8736H3.10812C2.94986 65.8736 2.79546 65.8247 2.66602 65.7336C2.53657 65.6426 2.4384 65.5138 2.38491 65.3648C2.33142 65.2159 2.32522 65.054 2.36716 64.9014C2.4091 64.7488 2.49714 64.6129 2.61924 64.5122C4.89613 62.6359 6.88165 57.5149 8.52224 49.2903C3.6871 42.0123 1.05921 33.4917 0.955082 24.7546C0.966404 20.6182 2.01964 16.5512 4.01756 12.9293C6.01547 9.30734 8.89367 6.2471 12.3864 4.03108C20.7682 -1.28659 33.1035 -0.880955 42.3856 5.01641C50.1601 9.95751 54.0035 17.6183 52.9316 26.0345C52.9242 26.0936 52.9096 26.1516 52.8882 26.2073C50.9219 31.4439 51.2923 33.3309 51.719 33.9992C54.7209 37.1104 56.4937 40.0025 56.7144 42.1458C56.7503 42.4984 56.7163 42.8546 56.6143 43.194C56.5122 43.5334 56.3441 43.8493 56.1196 44.1236C55.8952 44.3978 55.6187 44.625 55.3062 44.7922C54.9937 44.9593 54.6512 45.0631 54.2985 45.0976Z" fill="url(#paint0_linear_3522_17344)"/>
<defs>
<linearGradient id="paint0_linear_3522_17344" x1="36.7227" y1="20.6149" x2="71.6925" y2="55.2654" gradientUnits="userSpaceOnUse">
<stop stopColor="#1889D8"/>
<stop offset="1" stopColor="#01FFF0"/>
</linearGradient>
</defs>
</svg>
