<svg width="21" height="21" viewBox="0 0 21 21" fill="none" xmlns="http://www.w3.org/2000/svg">
<path d="M12.7273 11.5422V4.78121C12.7273 3.37831 11.5948 2.24585 10.1919 2.24585C8.789 2.24585 7.65655 3.37831 7.65655 4.78121V11.5422C6.63395 12.3112 5.96631 13.5451 5.96631 14.9226C5.96631 17.2552 7.85937 19.1482 10.1919 19.1482C12.5244 19.1482 14.4175 17.2552 14.4175 14.9226C14.4175 13.5451 13.7499 12.3112 12.7273 11.5422ZM9.34678 4.78121C9.34678 4.31639 9.72709 3.93609 10.1919 3.93609C10.6567 3.93609 11.037 4.31639 11.037 4.78121H10.1919V5.62632H11.037V7.31656H10.1919V8.16168H11.037V9.85192H9.34678V4.78121Z" fill="url(#paint0_linear_3360_155019)"/>
<defs>
<linearGradient id="paint0_linear_3360_155019" x1="5.96631" y1="19.1482" x2="15.6149" y2="18.4345" gradientUnits="userSpaceOnUse">
<stop stop-color="#A6CA3B"/>
<stop offset="1" stop-color="#4E93E4"/>
</linearGradient>
</defs>
</svg>
