<svg width="18" height="13" viewBox="0 0 18 13" fill="none" xmlns="http://www.w3.org/2000/svg">
<path d="M5.10887 10.2801C4.18773 9.36746 3.62153 8.09984 3.62153 6.69701C3.62153 5.29418 4.18773 4.02656 5.10887 3.11388L6.30888 4.31389C5.69197 4.92234 5.31168 5.76742 5.31168 6.69701C5.31168 7.6266 5.69197 8.47168 6.30043 9.08858L5.10887 10.2801ZM12.2751 10.2801C13.1963 9.36746 13.7625 8.09984 13.7625 6.69701C13.7625 5.29418 13.1963 4.02656 12.2751 3.11388L11.0751 4.31389C11.692 4.92234 12.0723 5.76742 12.0723 6.69701C12.0723 7.6266 11.692 8.47168 11.0836 9.08858L12.2751 10.2801ZM8.692 5.00685C7.76241 5.00685 7.00184 5.76742 7.00184 6.69701C7.00184 7.6266 7.76241 8.38717 8.692 8.38717C9.62159 8.38717 10.3822 7.6266 10.3822 6.69701C10.3822 5.76742 9.62159 5.00685 8.692 5.00685ZM15.4526 6.69701C15.4526 8.56464 14.6921 10.2548 13.4667 11.4717L14.6667 12.6717C16.1963 11.1421 17.1428 9.02943 17.1428 6.69701C17.1428 4.36459 16.1963 2.25189 14.6667 0.722301L13.4667 1.92231C14.6921 3.13923 15.4526 4.82939 15.4526 6.69701ZM3.9173 1.92231L2.71729 0.722301C1.1877 2.25189 0.241211 4.36459 0.241211 6.69701C0.241211 9.02943 1.1877 11.1421 2.71729 12.6717L3.9173 11.4717C2.69194 10.2548 1.93137 8.56464 1.93137 6.69701C1.93137 4.82939 2.69194 3.13923 3.9173 1.92231Z" fill="url(#paint0_linear_3943_12197)"/>
<defs>
<linearGradient id="paint0_linear_3943_12197" x1="0.241211" y1="12.6717" x2="18.8293" y2="8.78228" gradientUnits="userSpaceOnUse">
<stop stop-color="#A6CA3B"/>
<stop offset="1" stop-color="#4E93E4"/>
</linearGradient>
</defs>
</svg>
