<svg width="18" height="13" viewBox="0 0 18 13" fill="none" xmlns="http://www.w3.org/2000/svg">
<path d="M6.65676 8.17589C4.67928 8.17589 0.741211 9.16463 0.741211 11.1337V12.6126H12.5723V11.1337C12.5723 9.16463 8.63425 8.17589 6.65676 8.17589ZM2.7187 10.9224C3.42856 10.4322 5.14407 9.86605 6.65676 9.86605C8.16945 9.86605 9.88497 10.4322 10.5948 10.9224H2.7187ZM6.65676 6.697C8.28777 6.697 9.61454 5.37023 9.61454 3.73922C9.61454 2.10822 8.28777 0.781448 6.65676 0.781448C5.02576 0.781448 3.69899 2.10822 3.69899 3.73922C3.69899 5.37023 5.02576 6.697 6.65676 6.697ZM6.65676 2.47161C7.35818 2.47161 7.92438 3.03781 7.92438 3.73922C7.92438 4.44064 7.35818 5.00684 6.65676 5.00684C5.95535 5.00684 5.38915 4.44064 5.38915 3.73922C5.38915 3.03781 5.95535 2.47161 6.65676 2.47161ZM12.6061 8.22659C13.5864 8.93646 14.2625 9.88295 14.2625 11.1337V12.6126H17.6428V11.1337C17.6428 9.42661 14.685 8.45477 12.6061 8.22659ZM11.7272 6.697C13.3582 6.697 14.685 5.37023 14.685 3.73922C14.685 2.10822 13.3582 0.781448 11.7272 0.781448C11.2709 0.781448 10.8484 0.891309 10.4596 1.07723C10.992 1.82935 11.3047 2.75048 11.3047 3.73922C11.3047 4.72797 10.992 5.6491 10.4596 6.40122C10.8484 6.58714 11.2709 6.697 11.7272 6.697Z" fill="url(#paint0_linear_3943_12181)"/>
<defs>
<linearGradient id="paint0_linear_3943_12181" x1="0.741211" y1="12.6126" x2="19.3136" y2="8.68753" gradientUnits="userSpaceOnUse">
<stop stop-color="#A6CA3B"/>
<stop offset="1" stop-color="#4E93E4"/>
</linearGradient>
</defs>
</svg>
