<svg width="16" height="16" viewBox="0 0 16 16" fill="none" xmlns="http://www.w3.org/2000/svg">
<path d="M8.19189 0.0409698C4.13551 0.0409698 0.586182 3.30297 0.586182 7.64668C0.586182 9.43825 1.21154 11.0862 2.25099 12.3876L0.586182 14.0608L1.77774 15.2524L3.44255 13.5876C4.75242 14.627 6.40032 15.2524 8.19189 15.2524C10.1356 15.2524 12.0877 14.5087 13.5666 13.0214C15.0539 11.5425 15.7976 9.59036 15.7976 7.64668V0.0409698H8.19189ZM14.1074 7.64668C14.1074 9.22698 13.4905 10.7143 12.375 11.8298C11.2595 12.9453 9.77219 13.5622 8.19189 13.5622C4.92989 13.5622 2.27634 10.9087 2.27634 7.64668C2.27634 6.04103 2.9017 4.53679 4.05101 3.42974C5.16651 2.33113 6.63695 1.73113 8.19189 1.73113H14.1074V7.64668Z" fill="url(#paint0_linear_3943_9789)"/>
<path d="M5.20031 8.17908L8.62288 8.51711L6.56089 11.3312C6.46793 11.4664 6.47638 11.6524 6.59469 11.7707C6.72145 11.8974 6.93272 11.9059 7.06794 11.7791L11.4285 7.8664C11.7074 7.61288 11.5553 7.14808 11.175 7.11428L7.75245 6.77625L9.81444 3.96214C9.9074 3.82692 9.89895 3.64101 9.78064 3.5227C9.65388 3.39593 9.44261 3.38748 9.3074 3.51424L4.94679 7.42696C4.67636 7.68048 4.82848 8.14528 5.20031 8.17908Z" fill="url(#paint1_linear_3943_9789)"/>
<defs>
<linearGradient id="paint0_linear_3943_9789" x1="0.586182" y1="15.2524" x2="17.6739" y2="12.7245" gradientUnits="userSpaceOnUse">
<stop stop-color="#A6CA3B"/>
<stop offset="1" stop-color="#4E93E4"/>
</linearGradient>
<linearGradient id="paint1_linear_3943_9789" x1="0.586182" y1="15.2524" x2="17.6739" y2="12.7245" gradientUnits="userSpaceOnUse">
<stop stop-color="#A6CA3B"/>
<stop offset="1" stop-color="#4E93E4"/>
</linearGradient>
</defs>
</svg>
