<svg width="18" height="18" viewBox="0 0 18 18" fill="none" xmlns="http://www.w3.org/2000/svg">
<path d="M15.9529 0.245804H2.43096C1.58584 0.245804 0.740723 1.00641 0.740723 1.93604V4.47985C0.740723 5.08833 1.10412 5.61231 1.58584 5.9081V15.4579C1.58584 16.3876 2.51547 17.1482 3.27608 17.1482H15.1077C15.8683 17.1482 16.798 16.3876 16.798 15.4579V5.9081C17.2797 5.61231 17.6431 5.08833 17.6431 4.47985V1.93604C17.6431 1.00641 16.798 0.245804 15.9529 0.245804ZM15.1077 15.4579H3.27608V6.16163H15.1077V15.4579ZM15.9529 4.4714H2.43096V1.93604H15.9529V4.4714Z" fill="url(#paint0_linear_3943_10964)"/>
<path d="M11.7273 8.69699H6.65655V10.3872H11.7273V8.69699Z" fill="url(#paint1_linear_3943_10964)"/>
<defs>
<linearGradient id="paint0_linear_3943_10964" x1="0.740723" y1="17.1482" x2="19.728" y2="14.3393" gradientUnits="userSpaceOnUse">
<stop stop-color="#A6CA3B"/>
<stop offset="1" stop-color="#4E93E4"/>
</linearGradient>
<linearGradient id="paint1_linear_3943_10964" x1="0.740723" y1="17.1482" x2="19.728" y2="14.3393" gradientUnits="userSpaceOnUse">
<stop stop-color="#A6CA3B"/>
<stop offset="1" stop-color="#4E93E4"/>
</linearGradient>
</defs>
</svg>
