<svg width="16" height="16" viewBox="0 0 16 16" fill="none" xmlns="http://www.w3.org/2000/svg">
<path d="M7.69189 15.3027C5.56511 15.3027 3.7658 14.9752 2.29395 14.3203C0.822105 13.6654 0.0861816 12.8661 0.0861816 11.9224V3.47161C0.0861816 2.54202 0.829147 1.74624 2.31508 1.08426C3.80101 0.422283 5.59328 0.0912933 7.69189 0.0912933C9.79051 0.0912933 11.5828 0.422283 13.0687 1.08426C14.5546 1.74624 15.2976 2.54202 15.2976 3.47161V11.9224C15.2976 12.8661 14.5617 13.6654 13.0898 14.3203C11.618 14.9752 9.81867 15.3027 7.69189 15.3027ZM7.69189 5.18289C8.94543 5.18289 10.206 5.00331 11.4736 4.64416C12.7412 4.285 13.4525 3.90119 13.6074 3.49274C13.4525 3.08428 12.7448 2.69695 11.4842 2.33075C10.2236 1.96455 8.95951 1.78145 7.69189 1.78145C6.41019 1.78145 5.15313 1.96103 3.92073 2.32019C2.68832 2.67935 1.97352 3.0702 1.77634 3.49274C1.97352 3.91528 2.68832 4.3026 3.92073 4.65472C5.15313 5.00684 6.41019 5.18289 7.69189 5.18289ZM7.69189 9.38716C8.28345 9.38716 8.85388 9.35899 9.40318 9.30265C9.95248 9.24632 10.4771 9.16533 10.9771 9.05969C11.4771 8.95406 11.949 8.82378 12.3926 8.66884C12.8363 8.51391 13.2412 8.33786 13.6074 8.14067V5.60543C13.2412 5.80262 12.8363 5.97868 12.3926 6.13361C11.949 6.28854 11.4771 6.41882 10.9771 6.52446C10.4771 6.63009 9.95248 6.71108 9.40318 6.76742C8.85388 6.82376 8.28345 6.85193 7.69189 6.85193C7.10034 6.85193 6.52287 6.82376 5.95948 6.76742C5.39609 6.71108 4.8644 6.63009 4.36439 6.52446C3.86439 6.41882 3.39607 6.28854 2.95945 6.13361C2.52283 5.97868 2.12846 5.80262 1.77634 5.60543V8.14067C2.12846 8.33786 2.52283 8.51391 2.95945 8.66884C3.39607 8.82378 3.86439 8.95406 4.36439 9.05969C4.8644 9.16533 5.39609 9.24632 5.95948 9.30265C6.52287 9.35899 7.10034 9.38716 7.69189 9.38716ZM7.69189 13.6126C8.33979 13.6126 8.99824 13.5633 9.66726 13.4647C10.3363 13.3661 10.9525 13.2358 11.5159 13.0738C12.0793 12.9118 12.5511 12.7287 12.9314 12.5245C13.3117 12.3203 13.537 12.1125 13.6074 11.9013V9.83083C13.2412 10.028 12.8363 10.2041 12.3926 10.359C11.949 10.5139 11.4771 10.6442 10.9771 10.7499C10.4771 10.8555 9.95248 10.9365 9.40318 10.9928C8.85388 11.0492 8.28345 11.0773 7.69189 11.0773C7.10034 11.0773 6.52287 11.0492 5.95948 10.9928C5.39609 10.9365 4.8644 10.8555 4.36439 10.7499C3.86439 10.6442 3.39607 10.5139 2.95945 10.359C2.52283 10.2041 2.12846 10.028 1.77634 9.83083V11.9224C1.84676 12.1337 2.0686 12.3379 2.44184 12.5351C2.81508 12.7323 3.2834 12.9118 3.84678 13.0738C4.41017 13.2358 5.02989 13.3661 5.70596 13.4647C6.38202 13.5633 7.044 13.6126 7.69189 13.6126Z" fill="url(#paint0_linear_3943_10382)"/>
<defs>
<linearGradient id="paint0_linear_3943_10382" x1="0.0861816" y1="15.3027" x2="17.1739" y2="12.7748" gradientUnits="userSpaceOnUse">
<stop stop-color="#A6CA3B"/>
<stop offset="1" stop-color="#4E93E4"/>
</linearGradient>
</defs>
</svg>
