<svg width="45" height="40" viewBox="0 0 45 40" fill="none" xmlns="http://www.w3.org/2000/svg">
<path d="M5.11674 33.8592L4.86589 38.9466C4.83985 39.4741 5.2606 39.9161 5.78886 39.9161H9.30181C9.83007 39.9161 10.2508 39.4741 10.2248 38.9466L9.97393 33.8592H5.11674Z" fill="#90BAC4"/>
<path d="M8.16406 33.8592L8.46278 39.9161H9.30136C9.82962 39.9161 10.2504 39.4741 10.2243 38.9466L9.97348 33.8592H8.16406Z" fill="#7DA2B0"/>
<path d="M10.2243 38.9466C10.2508 39.4742 9.82941 39.9159 9.30184 39.9159H5.78888C5.26123 39.9159 4.83979 39.4741 4.86643 38.9466L5.11694 33.8596H9.97378L10.2243 38.9466Z" fill="#FCB44D"/>
<path d="M9.97373 33.8596L10.1092 36.6085H4.98145L5.11688 33.8596H9.97373Z" fill="#FCA62F"/>
<path d="M8.16455 33.8592L8.46293 39.9161H9.30159C9.82976 39.9161 10.2505 39.4741 10.2246 38.9466L9.97396 33.8592H8.16455Z" fill="#FCA62F"/>
<path d="M33.441 33.8592L33.1901 38.9466C33.1641 39.4741 33.5848 39.9161 34.1131 39.9161H37.626C38.1543 39.9161 38.575 39.4741 38.549 38.9466L38.2982 33.8592H33.441Z" fill="#90BAC4"/>
<path d="M36.4883 33.8592L36.787 39.9161H37.6256C38.1538 39.9161 38.5746 39.4741 38.5485 38.9466L38.2977 33.8592H36.4883Z" fill="#7DA2B0"/>
<path d="M38.5489 38.9466C38.5746 39.4742 38.154 39.9159 37.6255 39.9159H34.1135C33.585 39.9159 33.1644 39.4741 33.1901 38.9466L33.4406 33.8596H38.2983L38.5489 38.9466Z" fill="#FCB44D"/>
<path d="M38.4338 36.6085H33.3052L33.4406 33.8596H38.2983L38.4338 36.6085Z" fill="#FCA62F"/>
<path d="M36.4888 33.8592L36.7871 39.9161H37.6258C38.154 39.9161 38.5747 39.4741 38.5488 38.9466L38.2982 33.8592H36.4888Z" fill="#FCA62F"/>
<path d="M42.9153 10.4068V33.61C42.9153 34.6307 42.0876 35.4576 41.0668 35.4576H2.34852C1.32775 35.4576 0.5 34.6307 0.5 33.61V10.4068C0.5 9.38607 1.32775 8.55832 2.34852 8.55832H41.0668C42.0876 8.55823 42.9153 9.38607 42.9153 10.4068Z" fill="#CBE5E7"/>
<path d="M42.9152 10.4068V15.207C41.1765 16.9855 38.7507 18.0913 36.0718 18.0913C30.8042 18.0913 26.5167 13.8187 26.4927 8.55823H41.0667C42.0875 8.55823 42.9152 9.38606 42.9152 10.4068Z" fill="#A9D3D8"/>
<path d="M42.9151 10.4064V33.6099C42.9151 34.631 42.0881 35.458 41.067 35.458H39.2808C40.3009 35.458 41.1289 34.631 41.1289 33.6099V10.4064C41.1289 9.38529 40.3009 8.55823 39.2808 8.55823H41.067C42.0881 8.55823 42.9151 9.38529 42.9151 10.4064Z" fill="#A9D3D8"/>
<path d="M3.27197 19.1147H40.1426V24.9578H3.27197V19.1147ZM3.27197 28.2334V31.8004C3.27197 32.2893 3.66832 32.6857 4.1573 32.6857H39.2573C39.7463 32.6857 40.1426 32.2893 40.1426 31.8004V28.2334H3.27197ZM40.1426 16.0161V12.2155C40.1426 11.7265 39.7463 11.3301 39.2573 11.3301H4.1573C3.66832 11.3301 3.27197 11.7265 3.27197 12.2155V16.0161H40.1426Z" fill="#5591D6"/>
<path d="M40.1426 12.2155V17.1812C38.9067 17.7655 37.5265 18.0913 36.0719 18.0913C31.7693 18.0913 28.1209 15.2414 26.916 11.3301H39.2572C39.7461 11.3301 40.1426 11.7266 40.1426 12.2155Z" fill="#1475CB"/>
<path d="M3.27197 15.5089H40.1426V19.8416H3.27197V15.5089Z" fill="#84AEE1"/>
<path d="M40.1427 15.5089V17.1812C38.9068 17.7655 37.5266 18.0913 36.072 18.0913C33.548 18.0913 31.2488 17.1104 29.5366 15.5089H40.1427Z" fill="#5591D6"/>
<path d="M3.27246 24.1745H40.143V28.5074H3.27246V24.1745Z" fill="#84AEE1"/>
<path d="M33.368 15.762V32.6856H32.04V15.762C32.04 15.6748 32.0571 15.5884 32.0905 15.5079C32.1238 15.4273 32.1727 15.3541 32.2344 15.2924C32.2961 15.2308 32.3693 15.1819 32.4499 15.1485C32.5304 15.1152 32.6168 15.098 32.704 15.0981C32.7912 15.098 32.8776 15.1151 32.9582 15.1485C33.0387 15.1818 33.112 15.2307 33.1736 15.2924C33.2353 15.3541 33.2842 15.4273 33.3176 15.5078C33.3509 15.5884 33.3681 15.6748 33.368 15.762Z" fill="#1475CB"/>
<path d="M33.368 15.762V19.8416H32.04V15.762C32.04 15.6726 32.0577 15.5867 32.0905 15.5089H33.3175C33.3503 15.5867 33.368 15.6726 33.368 15.762ZM32.04 24.1743H33.368V28.507H32.04V24.1743Z" fill="#5591D6"/>
<path d="M24.709 11.3301H26.037V32.6856H24.709V11.3301Z" fill="#1475CB"/>
<path d="M24.709 15.5089H26.037V19.8416H24.709V15.5089ZM24.709 24.1743H26.037V28.507H24.709V24.1743Z" fill="#5591D6"/>
<path d="M17.3784 11.3301H18.7064V32.6856H17.3784V11.3301Z" fill="#1475CB"/>
<path d="M17.3784 15.5089H18.7064V19.8416H17.3784V15.5089ZM17.3784 24.1743H18.7064V28.507H17.3784V24.1743Z" fill="#5591D6"/>
<path d="M10.0474 11.3301H11.3754V32.6856H10.0474V11.3301Z" fill="#1475CB"/>
<path d="M10.0474 15.5089H11.3754V19.8416H10.0474V15.5089ZM10.0474 24.1743H11.3754V28.507H10.0474V24.1743Z" fill="#5591D6"/>
<path d="M36.0715 16.9407C40.7264 16.9407 44.4999 13.1672 44.4999 8.51233C44.4999 3.85745 40.7264 0.0839233 36.0715 0.0839233C31.4166 0.0839233 27.6431 3.85745 27.6431 8.51233C27.6431 13.1672 31.4166 16.9407 36.0715 16.9407Z" fill="#FCA62F"/>
<path d="M36.0717 6.67913C35.8956 6.67913 35.7267 6.60918 35.6022 6.48467C35.4777 6.36015 35.4077 6.19127 35.4077 6.01518V3.32826C35.4077 3.15217 35.4777 2.98329 35.6022 2.85877C35.7267 2.73426 35.8956 2.66431 36.0717 2.66431C36.2478 2.66431 36.4167 2.73426 36.5412 2.85877C36.6657 2.98329 36.7356 3.15217 36.7356 3.32826V6.01518C36.7356 6.19127 36.6657 6.36015 36.5412 6.48467C36.4167 6.60918 36.2478 6.67913 36.0717 6.67913ZM36.0717 14.3604C35.8956 14.3604 35.7267 14.2904 35.6022 14.1659C35.4777 14.0414 35.4077 13.8725 35.4077 13.6964V11.0095C35.4077 10.8334 35.4777 10.6646 35.6022 10.54C35.7267 10.4155 35.8956 10.3456 36.0717 10.3456C36.2478 10.3456 36.4167 10.4155 36.5412 10.54C36.6657 10.6646 36.7356 10.8334 36.7356 11.0095V13.6964C36.7356 13.8725 36.6657 14.0414 36.5412 14.1659C36.4167 14.2904 36.2478 14.3604 36.0717 14.3604ZM41.2558 9.17631H38.5689C38.3928 9.17631 38.2239 9.10635 38.0994 8.98184C37.9749 8.85732 37.9049 8.68844 37.9049 8.51235C37.9049 8.33626 37.9749 8.16738 38.0994 8.04287C38.2239 7.91835 38.3928 7.8484 38.5689 7.8484H41.2558C41.4319 7.8484 41.6007 7.91835 41.7253 8.04287C41.8498 8.16738 41.9197 8.33626 41.9197 8.51235C41.9197 8.68844 41.8498 8.85732 41.7253 8.98184C41.6007 9.10635 41.4319 9.17631 41.2558 9.17631ZM33.5745 9.17631H30.8876C30.7115 9.17631 30.5426 9.10635 30.4181 8.98184C30.2936 8.85732 30.2236 8.68844 30.2236 8.51235C30.2236 8.33626 30.2936 8.16738 30.4181 8.04287C30.5426 7.91835 30.7115 7.8484 30.8876 7.8484H33.5745C33.7506 7.8484 33.9195 7.91835 34.044 8.04287C34.1685 8.16738 34.2385 8.33626 34.2385 8.51235C34.2385 8.68844 34.1685 8.85732 34.044 8.98184C33.9195 9.10635 33.7506 9.17631 33.5745 9.17631Z" fill="#E27910"/>
<path d="M36.0714 11.3509C37.6391 11.3509 38.9099 10.08 38.9099 8.51234C38.9099 6.94467 37.6391 5.67383 36.0714 5.67383C34.5038 5.67383 33.2329 6.94467 33.2329 8.51234C33.2329 10.08 34.5038 11.3509 36.0714 11.3509Z" fill="#FEE265"/>
<path d="M38.9099 8.51235C38.9099 10.0801 37.6393 11.3507 36.0716 11.3507C35.8264 11.3507 35.5877 11.3193 35.3604 11.2609C36.5839 10.9452 37.4882 9.83493 37.4882 8.51235C37.4882 7.18978 36.5838 6.07955 35.3604 5.76382C35.5927 5.70413 35.8317 5.67395 36.0716 5.67401C37.6393 5.67401 38.9099 6.9446 38.9099 8.51235Z" fill="#FDD330"/>
<path d="M39.6621 5.58584C39.5307 5.5859 39.4023 5.54699 39.2931 5.47403C39.1838 5.40108 39.0987 5.29736 39.0484 5.17601C38.9982 5.05465 38.985 4.92112 39.0107 4.7923C39.0364 4.66348 39.0997 4.54516 39.1926 4.45233L39.2679 4.37705C39.3928 4.25472 39.561 4.18663 39.7359 4.18757C39.9108 4.18851 40.0782 4.25839 40.2019 4.38205C40.3256 4.50571 40.3954 4.67316 40.3964 4.84804C40.3973 5.02292 40.3292 5.19111 40.2069 5.31609L40.1316 5.39137C40.07 5.45311 39.9968 5.50208 39.9162 5.53545C39.8357 5.56882 39.7493 5.58595 39.6621 5.58584ZM32.4058 12.8421C32.2745 12.8421 32.1461 12.8032 32.0368 12.7303C31.9276 12.6573 31.8425 12.5536 31.7922 12.4322C31.742 12.3109 31.7288 12.1773 31.7545 12.0485C31.7801 11.9197 31.8434 11.8014 31.9364 11.7085L32.0116 11.6333C32.1366 11.5109 32.3048 11.4429 32.4797 11.4438C32.6546 11.4447 32.822 11.5146 32.9457 11.6383C33.0693 11.7619 33.1392 11.9294 33.1402 12.1043C33.1411 12.2791 33.073 12.4473 32.9507 12.5723L32.8754 12.6476C32.8138 12.7093 32.7406 12.7583 32.66 12.7916C32.5794 12.825 32.4931 12.8422 32.4058 12.8421ZM39.7373 12.8421C39.65 12.8422 39.5637 12.825 39.4831 12.7917C39.4025 12.7583 39.3294 12.7093 39.2678 12.6476L39.1925 12.5723C39.0702 12.4473 39.0021 12.2791 39.003 12.1043C39.004 11.9294 39.0738 11.7619 39.1975 11.6383C39.3212 11.5146 39.4886 11.4447 39.6635 11.4438C39.8384 11.4429 40.0066 11.5109 40.1315 11.6333L40.2068 11.7085C40.2997 11.8014 40.363 11.9197 40.3887 12.0485C40.4144 12.1774 40.4012 12.3109 40.3509 12.4323C40.3007 12.5536 40.2155 12.6573 40.1063 12.7303C39.997 12.8032 39.8686 12.8421 39.7373 12.8421ZM32.4811 5.58584C32.3939 5.58594 32.3075 5.56881 32.227 5.53544C32.1464 5.50207 32.0732 5.4531 32.0116 5.39137L31.9364 5.31609C31.814 5.19111 31.746 5.02292 31.7469 4.84804C31.7478 4.67316 31.8177 4.50571 31.9414 4.38205C32.065 4.25839 32.2325 4.18851 32.4074 4.18757C32.5822 4.18663 32.7504 4.25472 32.8754 4.37705L32.9507 4.45233C33.0436 4.54517 33.1069 4.66349 33.1326 4.79232C33.1582 4.92115 33.1451 5.05469 33.0948 5.17605C33.0445 5.2974 32.9594 5.40112 32.8501 5.47407C32.7409 5.54701 32.6125 5.58591 32.4811 5.58584Z" fill="#E27910"/>
</svg>
