<svg width="44" height="44" viewBox="0 0 44 44" fill="none" xmlns="http://www.w3.org/2000/svg">
<g clip-path="url(#clip0_3425_15480)">
<path d="M16.4999 41.2428L13.6559 40.3575H11.8853V43.1075L13.6559 43.9928H15.8802C16.0446 43.9928 16.2022 43.9275 16.3184 43.8113C16.4346 43.6951 16.4999 43.5375 16.4999 43.3731V41.2428Z" fill="#3B4854"/>
<path d="M11 41.2428V43.3731C11 43.5375 11.0653 43.6951 11.1815 43.8113C11.2977 43.9275 11.4553 43.9928 11.6197 43.9928H13.6559V41.2428L12.3279 40.3575L11 41.2428Z" fill="#2A343E"/>
<path d="M32.9989 41.25L30.1549 40.3647H28.3843V43.1147L30.1549 44H32.3793C32.5436 44 32.7012 43.9347 32.8174 43.8185C32.9337 43.7023 32.9989 43.5447 32.9989 43.3803V41.25Z" fill="#3B4854"/>
<path d="M27.499 41.25V43.3803C27.499 43.4617 27.5151 43.5423 27.5462 43.6175C27.5773 43.6927 27.623 43.761 27.6805 43.8185C27.7381 43.8761 27.8064 43.9217 27.8816 43.9528C27.9568 43.984 28.0373 44 28.1187 44H30.1549V41.25L28.8269 40.3647L27.499 41.25Z" fill="#2A343E"/>
<path d="M35.7497 2.7445V24.0859L34.8643 24.7498L35.7497 25.4138V26.8356L34.8643 27.4996L35.7497 28.1635V29.5862L34.8643 30.2502L35.7497 30.9141V32.336L34.8643 32.9999L35.7497 33.6639V35.0857L34.8643 35.7498L35.7497 36.4137V38.4977C35.7497 40.0134 34.5208 41.2422 33.0052 41.2422H27.499L21.9992 39.4715L16.4998 41.2422H13.6557L11.8798 41.2112C10.3641 41.2112 9.13525 40.0134 9.13525 38.4977V2.7445C9.13525 1.22882 10.3641 0.0141797 11.8798 0.0141797L13.6504 0H33.0052C34.5208 0 35.7497 1.22882 35.7497 2.7445Z" fill="#616D79"/>
<path d="M10.906 38.4984V2.7448C10.906 1.22904 12.1347 0.000305176 13.6505 0.000305176H10.9945C9.47873 0.000305176 8.25 1.22904 8.25 2.7448V24.0863L9.13533 24.7502L8.25 25.4142V26.8361L9.13533 27.4997L8.25 28.1641V29.5861L9.13533 30.2501L8.25 30.9141V32.3361L9.13533 33.0001L8.25 33.6641V35.0861L9.13533 35.75L8.25 36.414V38.4982C8.25 40.014 9.47873 41.2427 10.9945 41.2427H13.6505C12.1347 41.2429 10.906 40.0142 10.906 38.4984Z" fill="#3B4854"/>
<path d="M29.6301 19.2514H16.4044L14.6338 18.3661V3.63551L16.4044 2.75018H29.6301C29.7944 2.75018 29.952 2.81547 30.0682 2.93169C30.1845 3.0479 30.2498 3.20553 30.2498 3.36988V18.6317C30.2498 18.7131 30.2337 18.7937 30.2026 18.8689C30.1715 18.944 30.1258 19.0124 30.0683 19.0699C30.0107 19.1275 29.9424 19.1731 29.8672 19.2042C29.792 19.2354 29.7114 19.2514 29.6301 19.2514Z" fill="#3EDCFF"/>
<path d="M13.7485 3.36988V18.6317C13.7485 18.7131 13.7646 18.7937 13.7957 18.8688C13.8269 18.944 13.8725 19.0123 13.93 19.0699C13.9876 19.1274 14.0559 19.1731 14.1311 19.2042C14.2063 19.2354 14.2869 19.2514 14.3682 19.2514H16.4044V2.75018H14.3682C14.2868 2.75017 14.2063 2.76619 14.1311 2.79733C14.0559 2.82847 13.9876 2.87412 13.93 2.93166C13.8725 2.98921 13.8268 3.05753 13.7957 3.13272C13.7645 3.20791 13.7485 3.2885 13.7485 3.36988Z" fill="#00C1EE"/>
<path d="M27.4999 41.25H19.1559L17.3853 40.3647V27.4894C17.3853 24.4518 18.9624 22.1665 21.9999 22.1665C22.4578 22.1665 22.9026 22.0454 23.3279 22.1509C25.7239 22.7449 27.4999 24.9097 27.4999 27.4894V41.25Z" fill="#3B4854"/>
<path d="M23.328 22.1508C22.8935 22.0433 22.4476 21.9891 22 21.9894C18.9625 21.9894 16.5 24.4519 16.5 27.4894V41.25H19.156V27.4894C19.156 24.9098 20.9321 22.7449 23.328 22.1508Z" fill="#2A343E"/>
<path d="M24.7498 27.5001C24.7498 28.6252 24.0742 29.5925 23.1065 30.0183C22.7679 30.1673 20.1353 29.0189 20.1353 27.5001C20.1353 25.9813 22.7413 24.8271 23.0704 24.9662C24.0573 25.3836 24.7498 26.361 24.7498 27.5001Z" fill="#FFD152"/>
<path d="M21.4632 27.5001C21.4632 26.375 22.1389 25.4077 23.1066 24.9818C22.7579 24.8285 22.381 24.7496 22 24.7501C20.4812 24.7501 19.25 25.9813 19.25 27.5001C19.25 29.0188 20.4812 30.2501 22 30.2501C22.3937 30.2501 22.768 30.1673 23.1066 30.0183C22.139 29.5924 21.4632 28.6252 21.4632 27.5001Z" fill="#FFB540"/>
<path d="M22 35.75C22.7594 35.75 23.375 35.1344 23.375 34.375C23.375 33.6156 22.7594 33 22 33C21.2406 33 20.625 33.6156 20.625 34.375C20.625 35.1344 21.2406 35.75 22 35.75Z" fill="#00C1EE"/>
<path d="M35.7496 24.0859V25.4139H30.25C30.1628 25.414 30.0764 25.3969 29.9958 25.3636C29.9152 25.3302 29.842 25.2813 29.7803 25.2197C29.7186 25.158 29.6697 25.0847 29.6364 25.0041C29.603 24.9235 29.586 24.8371 29.5861 24.7499C29.586 24.6627 29.6032 24.5764 29.6365 24.4958C29.6699 24.4152 29.7188 24.342 29.7804 24.2803C29.8421 24.2187 29.9153 24.1698 29.9959 24.1364C30.0765 24.1031 30.1628 24.0859 30.25 24.086H35.7496V24.0859ZM35.7496 26.8357V28.1637H30.25C30.1628 28.1638 30.0764 28.1467 29.9958 28.1134C29.9152 28.0801 29.842 28.0312 29.7803 27.9695C29.7186 27.9078 29.6697 27.8346 29.6364 27.754C29.603 27.6734 29.586 27.587 29.5861 27.4997C29.586 27.4125 29.6032 27.3262 29.6365 27.2456C29.6699 27.165 29.7188 27.0918 29.7804 27.0302C29.8421 26.9685 29.9153 26.9196 29.9959 26.8862C30.0765 26.8529 30.1628 26.8357 30.25 26.8358H35.7496V26.8357ZM35.7496 29.5863V30.9143H30.25C30.1628 30.9143 30.0765 30.8972 29.9959 30.8639C29.9153 30.8305 29.8421 30.7816 29.7804 30.7199C29.7188 30.6583 29.6699 30.5851 29.6365 30.5045C29.6032 30.4239 29.586 30.3375 29.5861 30.2503C29.586 30.1631 29.603 30.0767 29.6364 29.9961C29.6697 29.9155 29.7186 29.8423 29.7803 29.7806C29.842 29.7189 29.9152 29.67 29.9958 29.6367C30.0764 29.6034 30.1628 29.5863 30.25 29.5864H35.7496V29.5863ZM35.7496 32.3361V33.6641H30.25C29.8826 33.6641 29.5861 33.3667 29.5861 33.0002C29.5861 32.6337 29.8826 32.3362 30.25 32.3362H35.7496V32.3361ZM35.7496 35.086V36.414H30.25C30.1628 36.414 30.0765 36.3968 29.9959 36.3635C29.9153 36.3301 29.8421 36.2812 29.7805 36.2196C29.7188 36.1579 29.6699 36.0847 29.6365 36.0041C29.6032 35.9236 29.586 35.8372 29.5861 35.75C29.586 35.6628 29.6032 35.5764 29.6365 35.4959C29.6699 35.4153 29.7188 35.3421 29.7804 35.2804C29.8421 35.2188 29.9153 35.1698 29.9959 35.1365C30.0765 35.1031 30.1628 35.086 30.25 35.086L35.7496 35.086ZM14.4126 24.7499C14.4126 24.8371 14.3955 24.9235 14.3621 25.0041C14.3288 25.0846 14.2799 25.1578 14.2182 25.2195C14.1566 25.2812 14.0833 25.3301 14.0028 25.3634C13.9222 25.3968 13.8358 25.4139 13.7486 25.4139H10.9057L9.13525 24.7501L10.9057 24.0859H13.7486C13.9247 24.086 14.0936 24.156 14.2181 24.2805C14.3426 24.405 14.4125 24.5738 14.4126 24.7499ZM14.4126 27.4997C14.4126 27.5869 14.3955 27.6732 14.3621 27.7538C14.3288 27.8344 14.2799 27.9076 14.2182 27.9692C14.1566 28.0309 14.0833 28.0798 14.0028 28.1132C13.9222 28.1465 13.8358 28.1637 13.7486 28.1636H10.9057L9.13525 27.5L10.9057 26.8356H13.7486C13.9247 26.8357 14.0936 26.9057 14.2181 27.0302C14.3426 27.1547 14.4125 27.3236 14.4126 27.4997ZM14.4126 30.2503C14.4125 30.4264 14.3425 30.5953 14.218 30.7198C14.0935 30.8443 13.9247 30.9142 13.7486 30.9143H10.9057L9.13525 30.2503L10.9057 29.5864H13.7486C13.8358 29.5863 13.9222 29.6035 14.0028 29.6368C14.0833 29.6702 14.1566 29.7191 14.2182 29.7808C14.2799 29.8424 14.3288 29.9156 14.3621 29.9962C14.3955 30.0768 14.4126 30.1631 14.4126 30.2503ZM14.4126 33.0001C14.4125 33.1762 14.3425 33.345 14.218 33.4695C14.0935 33.594 13.9247 33.664 13.7486 33.664H10.9057L9.13525 33.0001L10.9057 32.3361H13.7486C13.9247 32.3362 14.0935 32.4062 14.218 32.5307C14.3425 32.6552 14.4125 32.824 14.4126 33.0001ZM14.4126 35.7499C14.4125 35.926 14.3425 36.0948 14.218 36.2193C14.0935 36.3438 13.9247 36.4138 13.7486 36.4139H10.9057L9.13525 35.75L10.9057 35.0859H13.7486C13.9247 35.086 14.0936 35.156 14.2181 35.2805C14.3426 35.405 14.4125 35.5738 14.4126 35.7499Z" fill="#3B4854"/>
<path d="M8.25 24.0861H10.906V25.4141H8.25V24.0861ZM8.25 26.836H10.906V28.164H8.25V26.836ZM8.25 29.586H10.906V30.914H8.25V29.586ZM8.25 32.336H10.906V33.664H8.25V32.336ZM8.25 35.086H10.906V36.414H8.25V35.086Z" fill="#2A343E"/>
<path d="M21.5068 6.32241L18.1164 11.9729C18.0102 12.1499 18.1377 12.3752 18.3441 12.3752H21.3798C21.4612 12.3751 21.5417 12.3912 21.6169 12.4223C21.6921 12.4534 21.7604 12.4991 21.818 12.5566C21.8755 12.6141 21.9212 12.6825 21.9523 12.7576C21.9834 12.8328 21.9995 12.9134 21.9995 12.9948L22 15.5415C22.0001 15.8109 22.3547 15.9091 22.4934 15.6781L25.8837 10.0273C25.9899 9.85023 25.8624 9.62498 25.6559 9.62498H22.6198C22.5384 9.62498 22.4578 9.60895 22.3826 9.57781C22.3074 9.54666 22.2391 9.501 22.1815 9.44345C22.124 9.3859 22.0784 9.31757 22.0472 9.24238C22.0161 9.16718 22.0001 9.08659 22.0001 9.0052L22.0002 6.45888C22.0002 6.18972 21.6454 6.09141 21.5068 6.32241Z" fill="#FFD152"/>
</g>
<defs>
<clipPath id="clip0_3425_15480">
<rect width="44" height="44" fill="white"/>
</clipPath>
</defs>
</svg>
