<svg width="79" height="81" viewBox="0 0 79 81" fill="none" xmlns="http://www.w3.org/2000/svg">
<path d="M3.03361 18.2435H75.6269C76.34 18.2435 77.0239 18.5267 77.5281 19.031C78.0323 19.5352 78.3156 20.219 78.3156 20.9321V66.639H0.344971V20.9321C0.344971 20.219 0.628237 19.5352 1.13246 19.031C1.63667 18.5267 2.32054 18.2435 3.03361 18.2435Z" fill="#5AC6AA"/>
<path d="M0.344971 66.639H78.3156V74.7049H0.344971V66.639Z" fill="#394D5C"/>
<path d="M7.06641 74.7049H20.5096V80.0822H7.06641V74.7049ZM58.1506 74.7049H71.5938V80.0822H58.1506V74.7049Z" fill="#7D8D9C"/>
<path d="M12.4441 23.6208H33.9532V66.639H12.4441V23.6208Z" fill="#72EDC5"/>
<path d="M17.8213 28.998H28.5759V39.7526H17.8213V28.998Z" fill="#F4F4E6"/>
<path d="M33.9526 23.6208H42.0186V66.639H33.9526V23.6208Z" fill="#388E75"/>
<path d="M42.0186 23.6208H68.905V66.639H42.0186V23.6208Z" fill="#72EDC5"/>
<path d="M7.06641 27.6537H12.4437V33.031H7.06641V27.6537ZM7.06641 54.5401H12.4437V59.9174H7.06641V54.5401Z" fill="#388E75"/>
<path d="M54.1178 28.998H60.8394L56.8064 35.7197H63.528L54.1178 47.8185V41.0969H47.3962L54.1178 28.998ZM16.4768 43.7856H29.92V46.4742H16.4768V43.7856ZM16.4768 49.1629H21.8541V51.8515H16.4768V49.1629ZM24.5427 49.1629H29.92V51.8515H24.5427V49.1629Z" fill="#FCF05A"/>
<path d="M63.528 62.606H59.495V59.9174H62.1837V53.1958H64.8723V61.2617C64.8723 61.6183 64.7307 61.9602 64.4786 62.2123C64.2265 62.4644 63.8845 62.606 63.528 62.606ZM54.1178 59.9174H56.8064V62.606H54.1178V59.9174ZM48.7405 59.9174H51.4291V62.606H48.7405V59.9174Z" fill="#F4F4E6"/>
<path d="M43.363 7.48891H67.5608V12.8662H43.363V7.48891Z" fill="#7D8D9C"/>
<path d="M46.0518 12.8662H51.429V18.2435H46.0518V12.8662ZM59.495 12.8662H64.8722V18.2435H59.495V12.8662Z" fill="#394D5C"/>
<path d="M70.2494 11.5219H67.5608V8.83323H70.2494C70.606 8.83323 70.9479 8.69159 71.2 8.43948C71.4521 8.18738 71.5938 7.84544 71.5938 7.48891V0.767303H74.2824V7.48891C74.2824 8.55851 73.8575 9.58432 73.1012 10.3406C72.3448 11.097 71.319 11.5219 70.2494 11.5219Z" fill="#32B1CC"/>
</svg>
