<svg width="65" height="77" viewBox="0 0 65 77" fill="none" xmlns="http://www.w3.org/2000/svg">
<path d="M26.9531 51.9389C26.9531 48.9733 29.3649 46.5616 32.3304 46.5616V43.873H43.085V46.5616C44.6982 46.5616 46.1312 47.2902 47.118 48.4195C47.6177 47.8388 48.2365 47.3724 48.9323 47.0518C49.6282 46.7313 50.3848 46.5641 51.1509 46.5616V43.873H56.5282V25.0525H2.75537V70.7594H26.9531V51.9389Z" fill="#F0F0F0"/>
<path d="M26.9528 51.9389C26.9528 48.9733 29.3645 46.5616 32.3301 46.5616V43.873H43.0847V46.5616C44.6979 46.5616 46.1309 47.2902 47.1176 48.4195C47.6174 47.8388 48.2362 47.3724 48.932 47.0518C49.6278 46.7313 50.3845 46.5641 51.1506 46.5616V35.807H8.13233V70.7594H26.9528V51.9389ZM18.9124 19.6752H0.0664062V25.0525H29.6415C25.2576 25.0525 21.3685 22.9325 18.9124 19.6752Z" fill="#64C8F0"/>
<path d="M0.0664062 19.6752H5.44369V25.0525H0.0664062V19.6752Z" fill="#46AAD2"/>
<path d="M40.3706 19.6752C37.9145 22.9325 34.0254 25.0525 29.6416 25.0525H59.2167V19.6752H40.3706Z" fill="#64C8F0"/>
<path d="M24.2644 30.4297H35.019V33.1184H24.2644V30.4297Z" fill="#505050"/>
<path d="M8.13232 35.8071H10.821V70.7594H8.13232V35.8071Z" fill="#46AAD2"/>
<path d="M8.13232 41.1844H51.1506V43.873H8.13232V41.1844ZM8.13232 35.8071H51.1506V38.4957H8.13232V35.8071Z" fill="#288CB4"/>
<path d="M2.75537 25.0525H8.13265V70.7594H2.75537V25.0525Z" fill="#D2D2D2"/>
<path d="M29.6415 22.3639C26.7892 22.3639 24.0538 21.2308 22.0369 19.2139C20.02 17.1971 18.887 14.4616 18.887 11.6093C18.887 8.75701 20.02 6.02155 22.0369 4.00468C24.0538 1.9878 26.7892 0.854736 29.6415 0.854736C32.4938 0.854736 35.2293 1.9878 37.2462 4.00468C39.263 6.02155 40.3961 8.75701 40.3961 11.6093C40.3961 14.4616 39.263 17.1971 37.2462 19.2139C35.2293 21.2308 32.4938 22.3639 29.6415 22.3639Z" fill="#FAB400"/>
<path d="M21.5756 11.6093C21.5756 6.12582 25.6825 1.61024 30.9858 0.947494C30.5401 0.888668 30.0911 0.857689 29.6415 0.854736C26.7892 0.854736 24.0538 1.9878 22.0369 4.00468C20.02 6.02155 18.887 8.75701 18.887 11.6093C18.887 14.4616 20.02 17.1971 22.0369 19.2139C24.0538 21.2308 26.7892 22.3639 29.6415 22.3639C30.0973 22.3639 30.5449 22.3262 30.9858 22.2711C25.6825 21.6084 21.5756 17.0928 21.5756 11.6093Z" fill="#DC9600"/>
<path d="M29.6416 3.54337L25.6086 12.9536H29.6416V19.6752L33.6746 10.265H29.6416V3.54337ZM51.1507 76.1367H61.9053C62.6184 76.1367 63.3022 75.8534 63.8065 75.3492C64.3107 74.845 64.5939 74.1611 64.5939 73.448V51.9389C64.5939 51.2258 64.3107 50.542 63.8065 50.0377C63.3022 49.5335 62.6184 49.2503 61.9053 49.2503H51.1507C50.4377 49.2503 49.7538 49.5335 49.2496 50.0377C48.7454 50.542 48.4621 51.2258 48.4621 51.9389V73.448C48.4621 74.1611 48.7454 74.845 49.2496 75.3492C49.7538 75.8534 50.4377 76.1367 51.1507 76.1367Z" fill="#F0F0F0"/>
<path d="M51.1506 73.448V51.9389C51.1506 51.2258 51.4338 50.5419 51.938 50.0377C52.4423 49.5335 53.1261 49.2502 53.8392 49.2502H51.1506C50.4375 49.2502 49.7536 49.5335 49.2494 50.0377C48.7452 50.5419 48.4619 51.2258 48.4619 51.9389V73.448C48.4619 74.1611 48.7452 74.845 49.2494 75.3492C49.7536 75.8534 50.4375 76.1367 51.1506 76.1367H53.8392C53.1261 76.1367 52.4423 75.8534 51.938 75.3492C51.4338 74.845 51.1506 74.1611 51.1506 73.448Z" fill="#D2D2D2"/>
<path d="M51.1506 51.9389H61.9052V57.3162H51.1506V51.9389ZM51.1506 60.0048H61.9052V65.3821H51.1506V60.0048ZM51.1506 68.0707H61.9052V73.448H51.1506V68.0707Z" fill="#3CC8B4"/>
<path d="M51.1506 51.9389H53.8393V57.3162H51.1506V51.9389ZM51.1506 60.0048H53.8393V65.3821H51.1506V60.0048ZM51.1506 68.0707H53.8393V73.448H51.1506V68.0707Z" fill="#1EAA96"/>
<path d="M53.8389 46.5616H59.2161V49.2503H53.8389V46.5616Z" fill="#505050"/>
<path d="M32.3302 76.1367H43.0848C43.7979 76.1367 44.4817 75.8534 44.986 75.3492C45.4902 74.845 45.7734 74.1611 45.7734 73.448V51.9389C45.7734 51.2258 45.4902 50.5419 44.986 50.0377C44.4817 49.5335 43.7979 49.2502 43.0848 49.2502H32.3302C31.6172 49.2502 30.9333 49.5335 30.4291 50.0377C29.9249 50.5419 29.6416 51.2258 29.6416 51.9389V73.448C29.6416 74.1611 29.9249 74.845 30.4291 75.3492C30.9333 75.8534 31.6172 76.1367 32.3302 76.1367Z" fill="#F0F0F0"/>
<path d="M32.3302 73.448V51.9389C32.3302 51.2258 32.6135 50.5419 33.1177 50.0377C33.6219 49.5335 34.3058 49.2502 35.0189 49.2502H32.3302C31.6172 49.2502 30.9333 49.5335 30.4291 50.0377C29.9249 50.5419 29.6416 51.2258 29.6416 51.9389V73.448C29.6416 74.1611 29.9249 74.845 30.4291 75.3492C30.9333 75.8534 31.6172 76.1367 32.3302 76.1367H35.0189C34.3058 76.1367 33.6219 75.8534 33.1177 75.3492C32.6135 74.845 32.3302 74.1611 32.3302 73.448Z" fill="#D2D2D2"/>
<path d="M32.3303 51.9389H43.0849V57.3162H32.3303V51.9389ZM32.3303 60.0048H43.0849V65.3821H32.3303V60.0048ZM32.3303 68.0707H43.0849V73.448H32.3303V68.0707Z" fill="#3CC8B4"/>
<path d="M32.3303 51.9389H35.019V57.3162H32.3303V51.9389ZM32.3303 60.0048H35.019V65.3821H32.3303V60.0048ZM32.3303 68.0707H35.019V73.448H32.3303V68.0707Z" fill="#1EAA96"/>
<path d="M32.3301 46.5616H8.13232V49.2503H27.7003C28.6332 47.6505 30.3486 46.5616 32.3301 46.5616ZM51.1506 46.5616H43.0847C44.6978 46.5616 46.1309 47.2903 47.1176 48.4195C47.6174 47.8388 48.2362 47.3724 48.932 47.0518C49.6278 46.7313 50.3845 46.5641 51.1506 46.5616ZM8.13232 51.9389H26.9528V54.6276H8.13232V51.9389ZM8.13232 57.3162H26.9528V60.0049H8.13232V57.3162ZM8.13232 62.6935H26.9528V65.3821H8.13232V62.6935ZM8.13232 68.0708H26.9528V70.7594H8.13232V68.0708Z" fill="#288CB4"/>
<path d="M35.0186 46.5616H40.3958V49.2503H35.0186V46.5616Z" fill="#505050"/>
</svg>
