<svg width="67" height="71" viewBox="0 0 67 71" fill="none" xmlns="http://www.w3.org/2000/svg">
<path fill-rule="evenodd" clip-rule="evenodd" d="M58.2806 27.9549H8.3794V64.9506C8.37906 65.0637 8.40108 65.1757 8.4442 65.2802C8.48731 65.3848 8.55067 65.4798 8.63063 65.5597C8.71059 65.6397 8.80557 65.703 8.91011 65.7462C9.01465 65.7893 9.12668 65.8113 9.23976 65.811H57.4202C57.5333 65.8113 57.6453 65.7893 57.7499 65.7462C57.8544 65.703 57.9494 65.6397 58.0293 65.5597C58.1093 65.4798 58.1727 65.3848 58.2158 65.2802C58.2589 65.1757 58.2809 65.0637 58.2806 64.9506V27.9549Z" fill="#607D8C"/>
<path fill-rule="evenodd" clip-rule="evenodd" d="M58.2806 64.9506V27.9549H8.3794V28.8152H56.5598V63.2299C56.5602 63.3429 56.5382 63.455 56.495 63.5595C56.4519 63.664 56.3886 63.759 56.3086 63.839C56.2286 63.9189 56.1337 63.9823 56.0291 64.0254C55.9246 64.0685 55.8126 64.0906 55.6995 64.0902H8.3794V64.9506C8.37906 65.0637 8.40108 65.1757 8.4442 65.2802C8.48731 65.3848 8.55067 65.4798 8.63063 65.5597C8.71059 65.6397 8.80557 65.703 8.91011 65.7462C9.01465 65.7893 9.12668 65.8113 9.23976 65.811H57.4202C57.5333 65.8113 57.6453 65.7893 57.7499 65.7462C57.8544 65.703 57.9494 65.6397 58.0293 65.5597C58.1093 65.4798 58.1727 65.3848 58.2158 65.2802C58.2589 65.1757 58.2809 65.0637 58.2806 64.9506ZM53.9787 34.8378C53.9787 34.6096 53.8881 34.3908 53.7268 34.2294C53.5654 34.0681 53.3466 33.9774 53.1184 33.9774H15.2623C15.0341 33.9774 14.8153 34.0681 14.6539 34.2294C14.4926 34.3908 14.402 34.6096 14.402 34.8378V60.6488C14.402 60.8769 14.4926 61.0958 14.6539 61.2571C14.8153 61.4185 15.0341 61.5091 15.2623 61.5091H53.1184C53.3466 61.5091 53.5654 61.4185 53.7268 61.2571C53.8881 61.0958 53.9787 60.8769 53.9787 60.6488V34.8378Z" fill="#455B65"/>
<path fill-rule="evenodd" clip-rule="evenodd" d="M53.1188 33.9774C53.1188 33.7492 53.0281 33.5304 52.8668 33.3691C52.7054 33.2077 52.4866 33.1171 52.2584 33.1171H14.4024C14.1742 33.1171 13.9553 33.2077 13.794 33.3691C13.6326 33.5304 13.542 33.7492 13.542 33.9774V59.7884C13.542 60.0166 13.6326 60.2354 13.794 60.3968C13.9553 60.5581 14.1742 60.6488 14.4024 60.6488H52.2584C52.4866 60.6488 52.7054 60.5581 52.8668 60.3968C53.0281 60.2354 53.1188 60.0166 53.1188 59.7884V33.9774Z" fill="#E0E1E0"/>
<path fill-rule="evenodd" clip-rule="evenodd" d="M52.2584 33.1171V58.928C52.2584 59.1562 52.1678 59.375 52.0064 59.5364C51.8451 59.6977 51.6262 59.7884 51.3981 59.7884H13.542C13.542 60.0166 13.6326 60.2354 13.794 60.3968C13.9553 60.5581 14.1742 60.6488 14.4024 60.6488H52.2584C52.4866 60.6488 52.7054 60.5581 52.8668 60.3968C53.0281 60.2354 53.1188 60.0166 53.1188 59.7884V33.9774C53.1188 33.7492 53.0281 33.5304 52.8668 33.3691C52.7054 33.2077 52.4866 33.1171 52.2584 33.1171ZM34.9522 38.3102C34.9567 38.2705 34.9472 38.2304 34.9253 38.1969C34.9035 38.1634 34.8706 38.1385 34.8324 38.1266C34.7943 38.1147 34.7531 38.1164 34.7161 38.1316C34.679 38.1467 34.6484 38.1743 34.6295 38.2096L28.5055 49.692C28.4703 49.7575 28.4528 49.831 28.4545 49.9053C28.4563 49.9796 28.4773 50.0522 28.5156 50.1159C28.5538 50.1797 28.608 50.2324 28.6727 50.2689C28.7374 50.3055 28.8106 50.3246 28.8849 50.3244H33.2297C33.3507 50.3244 33.4703 50.3499 33.5808 50.3992C33.6912 50.4486 33.79 50.5207 33.8707 50.6108C33.9514 50.7009 34.0122 50.807 34.0491 50.9222C34.086 51.0374 34.0982 51.1591 34.0849 51.2794L33.4293 57.1763C33.4248 57.2161 33.4343 57.2561 33.4562 57.2897C33.478 57.3232 33.5109 57.348 33.5491 57.3599C33.5873 57.3719 33.6284 57.3701 33.6654 57.355C33.7025 57.3398 33.7331 57.3122 33.752 57.277L39.8761 45.7945C39.9112 45.7291 39.9288 45.6556 39.927 45.5812C39.9252 45.5069 39.9042 45.4344 39.8659 45.3706C39.8277 45.3069 39.7735 45.2542 39.7088 45.2176C39.6441 45.1811 39.571 45.162 39.4966 45.1622H35.1518C35.0308 45.1622 34.9112 45.1367 34.8007 45.0873C34.6903 45.038 34.5915 44.9659 34.5108 44.8758C34.4301 44.7856 34.3693 44.6795 34.3324 44.5643C34.2955 44.4491 34.2833 44.3274 34.2966 44.2072L34.9522 38.3102Z" fill="#BDBDBD"/>
<path fill-rule="evenodd" clip-rule="evenodd" d="M60.862 25.3738C60.862 25.1456 60.7713 24.9268 60.61 24.7654C60.4486 24.6041 60.2298 24.5134 60.0016 24.5134H6.65895C6.43077 24.5134 6.21193 24.6041 6.05058 24.7654C5.88923 24.9268 5.79858 25.1456 5.79858 25.3738V27.0945C5.79858 27.3227 5.88923 27.5415 6.05058 27.7029C6.21193 27.8642 6.43077 27.9549 6.65895 27.9549H60.0016C60.2298 27.9549 60.4486 27.8642 60.61 27.7029C60.7713 27.5415 60.862 27.3227 60.862 27.0945V25.3738Z" fill="#90A4AE"/>
<path fill-rule="evenodd" clip-rule="evenodd" d="M59.1412 24.5134V25.3738C59.1412 25.602 59.0506 25.8208 58.8892 25.9821C58.7279 26.1435 58.509 26.2341 58.2809 26.2341H5.79858V27.0945C5.79858 27.3227 5.88923 27.5415 6.05058 27.7029C6.21193 27.8642 6.43077 27.9549 6.65895 27.9549H60.0016C60.2298 27.9549 60.4486 27.8642 60.61 27.7029C60.7713 27.5415 60.862 27.3227 60.862 27.0945V25.3738C60.862 25.1456 60.7713 24.9268 60.61 24.7654C60.4486 24.6041 60.2298 24.5134 60.0016 24.5134H59.1412Z" fill="#78919D"/>
<path fill-rule="evenodd" clip-rule="evenodd" d="M23.006 65.8109H12.6816V70.1128C12.6813 70.2258 12.7033 70.3379 12.7464 70.4424C12.7896 70.5469 12.8529 70.6419 12.9329 70.7219C13.0128 70.8019 13.1078 70.8652 13.2124 70.9083C13.3169 70.9514 13.4289 70.9735 13.542 70.9731H22.1457C22.2587 70.9735 22.3708 70.9514 22.4753 70.9083C22.5799 70.8652 22.6748 70.8019 22.7548 70.7219C22.8348 70.6419 22.8981 70.5469 22.9412 70.4424C22.9843 70.3379 23.0064 70.2258 23.006 70.1128V65.8109ZM53.9792 65.8109H43.6548V70.1128C43.6544 70.2258 43.6765 70.3379 43.7196 70.4424C43.7627 70.5469 43.8261 70.6419 43.906 70.7219C43.986 70.8019 44.081 70.8652 44.1855 70.9083C44.29 70.9514 44.4021 70.9735 44.5152 70.9731H53.1188C53.2319 70.9735 53.3439 70.9514 53.4485 70.9083C53.553 70.8652 53.648 70.8019 53.7279 70.7219C53.8079 70.6419 53.8713 70.5469 53.9144 70.4424C53.9575 70.3379 53.9795 70.2258 53.9792 70.1128V65.8109Z" fill="#90A4AE"/>
<path fill-rule="evenodd" clip-rule="evenodd" d="M23.006 70.1128V65.8109H12.6816V66.6713H21.2853V68.392C21.2856 68.5051 21.2636 68.6171 21.2205 68.7217C21.1774 68.8262 21.114 68.9212 21.0341 69.0012C20.9541 69.0811 20.8591 69.1445 20.7546 69.1876C20.65 69.2307 20.538 69.2527 20.4249 69.2524H12.6816V70.1128C12.6813 70.2258 12.7033 70.3379 12.7464 70.4424C12.7896 70.5469 12.8529 70.6419 12.9329 70.7219C13.0128 70.8019 13.1078 70.8652 13.2124 70.9083C13.3169 70.9514 13.4289 70.9735 13.542 70.9731H22.1457C22.2587 70.9735 22.3708 70.9514 22.4753 70.9083C22.5799 70.8652 22.6748 70.8019 22.7548 70.7219C22.8348 70.6419 22.8981 70.5469 22.9412 70.4424C22.9843 70.3379 23.0064 70.2258 23.006 70.1128ZM53.9792 70.1128V65.8109H43.6548V66.6713H52.2584V68.392C52.2588 68.5051 52.2368 68.6171 52.1936 68.7217C52.1505 68.8262 52.0872 68.9212 52.0072 69.0012C51.9272 69.0811 51.8323 69.1445 51.7277 69.1876C51.6232 69.2307 51.5112 69.2527 51.3981 69.2524H43.6548V70.1128C43.6544 70.2258 43.6765 70.3379 43.7196 70.4424C43.7627 70.5469 43.8261 70.6419 43.906 70.7219C43.986 70.8019 44.081 70.8652 44.1855 70.9083C44.29 70.9514 44.4021 70.9735 44.5152 70.9731H53.1188C53.2319 70.9735 53.3439 70.9514 53.4485 70.9083C53.553 70.8652 53.648 70.8019 53.7279 70.7219C53.8079 70.6419 53.8713 70.5469 53.9144 70.4424C53.9575 70.3379 53.9795 70.2258 53.9792 70.1128Z" fill="#78919D"/>
<path fill-rule="evenodd" clip-rule="evenodd" d="M8.37952 30.536H1.4966C1.26841 30.536 1.04958 30.6266 0.888226 30.788C0.726876 30.9493 0.63623 31.1682 0.63623 31.3963V62.3695C0.63623 62.5977 0.726876 62.8165 0.888226 62.9779C1.04958 63.1392 1.26841 63.2299 1.4966 63.2299H8.37952V30.536ZM66.024 31.3963C66.024 31.1682 65.9333 30.9493 65.772 30.788C65.6106 30.6266 65.3918 30.536 65.1636 30.536H58.2807V63.2299H65.1636C65.3918 63.2299 65.6106 63.1392 65.772 62.9779C65.9333 62.8165 66.024 62.5977 66.024 62.3695V31.3963Z" fill="#90A4AE"/>
<path fill-rule="evenodd" clip-rule="evenodd" d="M6.65879 30.536V61.5091H0.63623V62.3695C0.63623 62.5977 0.726876 62.8165 0.888226 62.9779C1.04958 63.1392 1.26841 63.2299 1.4966 63.2299H8.37952V30.536H6.65879ZM58.2807 30.536V63.2299H65.1636C65.3918 63.2299 65.6106 63.1392 65.772 62.9779C65.9333 62.8165 66.024 62.5977 66.024 62.3695V31.3963C66.024 31.1682 65.9333 30.9493 65.772 30.788C65.6106 30.6266 65.3918 30.536 65.1636 30.536H64.3033V60.6488C64.3033 60.8769 64.2126 61.0958 64.0513 61.2571C63.8899 61.4185 63.6711 61.5091 63.4429 61.5091H59.1411V30.536H58.2807Z" fill="#78919D"/>
<path fill-rule="evenodd" clip-rule="evenodd" d="M35.9115 2.14392C35.9115 1.68755 35.7302 1.24988 35.4075 0.927178C35.0848 0.604478 34.6471 0.423187 34.1908 0.423187H32.47C32.0137 0.423187 31.576 0.604478 31.2533 0.927178C30.9306 1.24988 30.7493 1.68755 30.7493 2.14392V24.5134H35.9115V2.14392ZM18.7042 2.14392C18.7042 1.68755 18.5229 1.24988 18.2002 0.927178C17.8775 0.604478 17.4398 0.423187 16.9835 0.423187H15.2627C14.8064 0.423187 14.3687 0.604478 14.046 0.927178C13.7233 1.24988 13.542 1.68755 13.542 2.14392V24.5134H18.7042V2.14392ZM53.1188 2.14392C53.1188 1.68755 52.9375 1.24988 52.6148 0.927178C52.2921 0.604478 51.8544 0.423187 51.3981 0.423187H49.6773C49.221 0.423187 48.7833 0.604478 48.4606 0.927178C48.1379 1.24988 47.9566 1.68755 47.9566 2.14392V24.5134H53.1188V2.14392Z" fill="#E0E1E0"/>
<path fill-rule="evenodd" clip-rule="evenodd" d="M51.3981 17.6305H48.515C48.3279 17.6306 48.1412 17.6458 47.9566 17.6761V21.8867C48.1407 21.9168 48.3274 21.9323 48.515 21.9323H51.3981V24.5134H53.1188V2.14392C53.1188 1.68755 52.9375 1.24988 52.6148 0.927178C52.2921 0.604478 51.8544 0.423187 51.3981 0.423187V17.6305ZM16.9835 17.6305H14.1004C13.9133 17.6306 13.7266 17.6458 13.542 17.6761V21.8867C13.7261 21.9168 13.9128 21.9323 14.1004 21.9323H16.9835V24.5134H18.7042V2.14392C18.7042 1.68755 18.5229 1.24988 18.2002 0.927178C17.8775 0.604478 17.4398 0.423187 16.9835 0.423187V17.6305ZM34.1908 17.6305H31.3077C31.1206 17.6306 30.9339 17.6458 30.7493 17.6761V21.8867C30.9334 21.9168 31.1201 21.9323 31.3077 21.9323H34.1908V24.5134H35.9115V2.14392C35.9115 1.68755 35.7302 1.24988 35.4075 0.927178C35.0848 0.604478 34.6471 0.423187 34.1908 0.423187V17.6305Z" fill="#BDBDBD"/>
<path fill-rule="evenodd" clip-rule="evenodd" d="M39.3528 18.5606C39.3527 18.2897 39.2675 18.0256 39.109 17.8059C38.9506 17.5862 38.727 17.4219 38.47 17.3363L37.3016 16.9465C36.9507 16.8296 36.5832 16.7701 36.2133 16.7701H30.4471C30.0772 16.7701 29.7097 16.8296 29.3588 16.9465L28.1904 17.3363C27.9334 17.4219 27.7098 17.5862 27.5514 17.8059C27.3929 18.0256 27.3077 18.2897 27.3076 18.5606V19.2815C27.3077 19.5524 27.3929 19.8165 27.5514 20.0362C27.7098 20.2559 27.9334 20.4202 28.1904 20.5058L29.3588 20.8956C29.7097 21.0125 30.0772 21.072 30.4471 21.072H36.2133C36.5832 21.072 36.9507 21.0125 37.3016 20.8956L38.47 20.5058C38.727 20.4202 38.9506 20.2559 39.109 20.0362C39.2675 19.8165 39.3527 19.5524 39.3528 19.2815V18.5606ZM22.1455 18.5606C22.1454 18.2897 22.0602 18.0256 21.9017 17.8059C21.7433 17.5862 21.5197 17.4219 21.2627 17.3363L20.0943 16.9465C19.7434 16.8296 19.3759 16.7701 19.006 16.7701H13.2398C12.8699 16.7701 12.5024 16.8296 12.1515 16.9465L10.9831 17.3363C10.7261 17.4219 10.5025 17.5862 10.3441 17.8059C10.1856 18.0256 10.1004 18.2897 10.1003 18.5606V19.2815C10.1004 19.5524 10.1856 19.8165 10.3441 20.0362C10.5025 20.2559 10.7261 20.4202 10.9831 20.5058L12.1515 20.8956C12.5024 21.0125 12.8699 21.072 13.2398 21.072H19.006C19.3759 21.072 19.7434 21.0125 20.0943 20.8956L21.2627 20.5058C21.5197 20.4202 21.7433 20.2559 21.9017 20.0362C22.0602 19.8165 22.1454 19.5524 22.1455 19.2815V18.5606ZM56.5601 18.5606C56.56 18.2897 56.4748 18.0256 56.3163 17.8059C56.1579 17.5862 55.9343 17.4219 55.6773 17.3363L54.5089 16.9465C54.158 16.8296 53.7905 16.7701 53.4206 16.7701H47.6544C47.2845 16.7701 46.917 16.8296 46.5661 16.9465L45.3977 17.3363C45.1407 17.4219 44.9171 17.5862 44.7587 17.8059C44.6002 18.0256 44.515 18.2897 44.5149 18.5606V19.2815C44.515 19.5524 44.6002 19.8165 44.7587 20.0362C44.9171 20.2559 45.1407 20.4202 45.3977 20.5058L46.5661 20.8956C46.917 21.0125 47.2845 21.072 47.6544 21.072H53.4206C53.7905 21.072 54.158 21.0125 54.5089 20.8956L55.6773 20.5058C55.9343 20.4202 56.1579 20.2559 56.3163 20.0362C56.4748 19.8165 56.56 19.5524 56.5601 19.2815V18.5606Z" fill="#89D4E2"/>
<path fill-rule="evenodd" clip-rule="evenodd" d="M38.4365 17.3251C38.4734 17.4447 38.4924 17.5711 38.4924 17.7002V18.4212C38.4923 18.6921 38.4071 18.9561 38.2486 19.1758C38.0902 19.3956 37.8667 19.5599 37.6096 19.6455L36.4413 20.0352C36.0903 20.1521 35.7228 20.2117 35.3529 20.2116H29.5867C29.2168 20.2117 28.8493 20.1521 28.4984 20.0352L27.3636 19.6567C27.4823 20.0498 27.786 20.3708 28.1904 20.5058L29.3587 20.8956C29.7097 21.0125 30.0772 21.072 30.4471 21.072H36.2133C36.5832 21.072 36.9507 21.0125 37.3016 20.8956L38.47 20.5058C38.727 20.4202 38.9506 20.2559 39.109 20.0362C39.2674 19.8165 39.3527 19.5524 39.3527 19.2815V18.5605C39.3527 18.2897 39.2674 18.0256 39.109 17.8059C38.9506 17.5862 38.727 17.4219 38.47 17.3363L38.4365 17.3251ZM21.2291 17.3251C21.2661 17.4447 21.2851 17.5711 21.2851 17.7002V18.4212C21.285 18.6921 21.1998 18.9561 21.0413 19.1758C20.8829 19.3956 20.6594 19.5599 20.4023 19.6455L19.234 20.0352C18.883 20.1521 18.5155 20.2117 18.1456 20.2116H12.3794C12.0095 20.2117 11.642 20.1521 11.2911 20.0352L10.1562 19.6567C10.275 20.0498 10.5787 20.3708 10.9831 20.5058L12.1514 20.8956C12.5024 21.0125 12.8699 21.072 13.2398 21.072H19.006C19.3759 21.072 19.7434 21.0125 20.0943 20.8956L21.2627 20.5058C21.5197 20.4202 21.7433 20.2559 21.9017 20.0362C22.0601 19.8165 22.1454 19.5524 22.1454 19.2815V18.5605C22.1454 18.2897 22.0601 18.0256 21.9017 17.8059C21.7433 17.5862 21.5197 17.4219 21.2627 17.3363L21.2291 17.3251ZM55.6438 17.3251C55.6807 17.4447 55.6997 17.5711 55.6997 17.7002V18.4212C55.6997 18.6921 55.6144 18.9561 55.456 19.1758C55.2975 19.3956 55.074 19.5599 54.8169 19.6455L53.6486 20.0352C53.2976 20.1521 52.9301 20.2117 52.5602 20.2116H46.794C46.4241 20.2117 46.0566 20.1521 45.7057 20.0352L44.5709 19.6567C44.6896 20.0498 44.9933 20.3708 45.3977 20.5058L46.566 20.8956C46.917 21.0125 47.2845 21.072 47.6544 21.072H53.4206C53.7905 21.072 54.158 21.0125 54.5089 20.8956L55.6773 20.5058C55.9343 20.4202 56.1579 20.2559 56.3163 20.0362C56.4748 19.8165 56.56 19.5524 56.56 19.2815V18.5605C56.56 18.2897 56.4748 18.0256 56.3163 17.8059C56.1579 17.5862 55.9343 17.4219 55.6773 17.3363L55.6438 17.3251Z" fill="#59C7DA"/>
<path fill-rule="evenodd" clip-rule="evenodd" d="M39.3528 14.2587C39.3527 13.9878 39.2675 13.7238 39.109 13.5041C38.9506 13.2843 38.727 13.12 38.47 13.0344L37.3016 12.6447C36.9507 12.5278 36.5832 12.4682 36.2133 12.4683H30.4471C30.0772 12.4682 29.7097 12.5278 29.3588 12.6447L28.1904 13.0344C27.9334 13.12 27.7098 13.2843 27.5514 13.5041C27.3929 13.7238 27.3077 13.9878 27.3076 14.2587V14.9797C27.3077 15.2506 27.3929 15.5146 27.5514 15.7344C27.7098 15.9541 27.9334 16.1184 28.1904 16.204L29.3588 16.5938C29.7097 16.7107 30.0772 16.7702 30.4471 16.7701H36.2133C36.5832 16.7702 36.9507 16.7107 37.3016 16.5938L38.47 16.204C38.727 16.1184 38.9506 15.9541 39.109 15.7344C39.2675 15.5146 39.3527 15.2506 39.3528 14.9797V14.2587ZM22.1455 14.2587C22.1454 13.9878 22.0602 13.7238 21.9017 13.5041C21.7433 13.2843 21.5197 13.12 21.2627 13.0344L20.0943 12.6447C19.7434 12.5278 19.3759 12.4682 19.006 12.4683H13.2398C12.8699 12.4682 12.5024 12.5278 12.1515 12.6447L10.9831 13.0344C10.7261 13.12 10.5025 13.2843 10.3441 13.5041C10.1856 13.7238 10.1004 13.9878 10.1003 14.2587V14.9797C10.1004 15.2506 10.1856 15.5146 10.3441 15.7344C10.5025 15.9541 10.7261 16.1184 10.9831 16.204L12.1515 16.5938C12.5024 16.7107 12.8699 16.7702 13.2398 16.7701H19.006C19.3759 16.7702 19.7434 16.7107 20.0943 16.5938L21.2627 16.204C21.5197 16.1184 21.7433 15.9541 21.9017 15.7344C22.0602 15.5146 22.1454 15.2506 22.1455 14.9797V14.2587ZM56.5601 14.2587C56.56 13.9878 56.4748 13.7238 56.3163 13.5041C56.1579 13.2843 55.9343 13.12 55.6773 13.0344L54.5089 12.6447C54.158 12.5278 53.7905 12.4682 53.4206 12.4683H47.6544C47.2845 12.4682 46.917 12.5278 46.5661 12.6447L45.3977 13.0344C45.1407 13.12 44.9171 13.2843 44.7587 13.5041C44.6002 13.7238 44.515 13.9878 44.5149 14.2587V14.9797C44.515 15.2506 44.6002 15.5146 44.7587 15.7344C44.9171 15.9541 45.1407 16.1184 45.3977 16.204L46.5661 16.5938C46.917 16.7107 47.2845 16.7702 47.6544 16.7701H53.4206C53.7905 16.7702 54.158 16.7107 54.5089 16.5938L55.6773 16.204C55.9343 16.1184 56.1579 15.9541 56.3163 15.7344C56.4748 15.5146 56.56 15.2506 56.5601 14.9797V14.2587Z" fill="#89D4E2"/>
<path fill-rule="evenodd" clip-rule="evenodd" d="M38.4365 13.0232C38.4734 13.1428 38.4924 13.2693 38.4924 13.3984V14.1194C38.4923 14.3902 38.4071 14.6543 38.2486 14.874C38.0902 15.0937 37.8667 15.258 37.6096 15.3437L36.4413 15.7334C36.0903 15.8503 35.7228 15.9099 35.3529 15.9098H29.5867C29.2168 15.9099 28.8493 15.8503 28.4984 15.7334L27.3636 15.3548C27.4823 15.748 27.786 16.0689 28.1904 16.204L29.3587 16.5938C29.7097 16.7107 30.0772 16.7702 30.4471 16.7701H36.2133C36.5832 16.7702 36.9507 16.7107 37.3016 16.5938L38.47 16.204C38.727 16.1184 38.9506 15.9541 39.109 15.7344C39.2674 15.5146 39.3527 15.2506 39.3527 14.9797V14.2587C39.3527 13.9878 39.2674 13.7238 39.109 13.5041C38.9506 13.2843 38.727 13.12 38.47 13.0344L38.4365 13.0232ZM21.2291 13.0232C21.2661 13.1428 21.2851 13.2693 21.2851 13.3984V14.1194C21.285 14.3902 21.1998 14.6543 21.0413 14.874C20.8829 15.0937 20.6594 15.258 20.4023 15.3437L19.234 15.7334C18.883 15.8503 18.5155 15.9099 18.1456 15.9098H12.3794C12.0095 15.9099 11.642 15.8503 11.2911 15.7334L10.1562 15.3548C10.275 15.748 10.5787 16.0689 10.9831 16.204L12.1514 16.5938C12.5024 16.7107 12.8699 16.7702 13.2398 16.7701H19.006C19.3759 16.7702 19.7434 16.7107 20.0943 16.5938L21.2627 16.204C21.5197 16.1184 21.7433 15.9541 21.9017 15.7344C22.0601 15.5146 22.1454 15.2506 22.1454 14.9797V14.2587C22.1454 13.9878 22.0601 13.7238 21.9017 13.5041C21.7433 13.2843 21.5197 13.12 21.2627 13.0344L21.2291 13.0232ZM55.6438 13.0232C55.6807 13.1428 55.6997 13.2693 55.6997 13.3984V14.1194C55.6997 14.3902 55.6144 14.6543 55.456 14.874C55.2975 15.0937 55.074 15.258 54.8169 15.3437L53.6486 15.7334C53.2976 15.8503 52.9301 15.9099 52.5602 15.9098H46.794C46.4241 15.9099 46.0566 15.8503 45.7057 15.7334L44.5709 15.3548C44.6896 15.748 44.9933 16.0689 45.3977 16.204L46.566 16.5938C46.917 16.7107 47.2845 16.7702 47.6544 16.7701H53.4206C53.7905 16.7702 54.158 16.7107 54.5089 16.5938L55.6773 16.204C55.9343 16.1184 56.1579 15.9541 56.3163 15.7344C56.4748 15.5146 56.56 15.2506 56.56 14.9797V14.2587C56.56 13.9878 56.4748 13.7238 56.3163 13.5041C56.1579 13.2843 55.9343 13.12 55.6773 13.0344L55.6438 13.0232Z" fill="#59C7DA"/>
<path fill-rule="evenodd" clip-rule="evenodd" d="M39.3528 9.9569C39.3527 9.686 39.2675 9.42199 39.109 9.20225C38.9506 8.98251 38.727 8.81821 38.47 8.7326L37.3016 8.34286C36.9507 8.22595 36.5832 8.1664 36.2133 8.16648H30.4471C30.0772 8.1664 29.7097 8.22595 29.3588 8.34286L28.1904 8.7326C27.9334 8.81821 27.7098 8.98251 27.5514 9.20225C27.3929 9.42199 27.3077 9.686 27.3076 9.9569V10.6779C27.3077 10.9488 27.3929 11.2128 27.5514 11.4325C27.7098 11.6523 27.9334 11.8166 28.1904 11.9022L29.3588 12.2919C29.7097 12.4088 30.0772 12.4684 30.4471 12.4683H36.2133C36.5832 12.4684 36.9507 12.4088 37.3016 12.2919L38.47 11.9022C38.727 11.8166 38.9506 11.6523 39.109 11.4325C39.2675 11.2128 39.3527 10.9488 39.3528 10.6779V9.9569ZM22.1455 9.9569C22.1454 9.686 22.0602 9.42199 21.9017 9.20225C21.7433 8.98251 21.5197 8.81821 21.2627 8.7326L20.0943 8.34286C19.7434 8.22595 19.3759 8.1664 19.006 8.16648H13.2398C12.8699 8.1664 12.5024 8.22595 12.1515 8.34286L10.9831 8.7326C10.7261 8.81821 10.5025 8.98251 10.3441 9.20225C10.1856 9.42199 10.1004 9.686 10.1003 9.9569V10.6779C10.1004 10.9488 10.1856 11.2128 10.3441 11.4325C10.5025 11.6523 10.7261 11.8166 10.9831 11.9022L12.1515 12.2919C12.5024 12.4088 12.8699 12.4684 13.2398 12.4683H19.006C19.3759 12.4684 19.7434 12.4088 20.0943 12.2919L21.2627 11.9022C21.5197 11.8166 21.7433 11.6523 21.9017 11.4325C22.0602 11.2128 22.1454 10.9488 22.1455 10.6779V9.9569ZM56.5601 9.9569C56.56 9.686 56.4748 9.42199 56.3163 9.20225C56.1579 8.98251 55.9343 8.81821 55.6773 8.7326L54.5089 8.34286C54.158 8.22595 53.7905 8.1664 53.4206 8.16648H47.6544C47.2845 8.1664 46.917 8.22595 46.5661 8.34286L45.3977 8.7326C45.1407 8.81821 44.9171 8.98251 44.7587 9.20225C44.6002 9.42199 44.515 9.686 44.5149 9.9569V10.6779C44.515 10.9488 44.6002 11.2128 44.7587 11.4325C44.9171 11.6523 45.1407 11.8166 45.3977 11.9022L46.5661 12.2919C46.917 12.4088 47.2845 12.4684 47.6544 12.4683H53.4206C53.7905 12.4684 54.158 12.4088 54.5089 12.2919L55.6773 11.9022C55.9343 11.8166 56.1579 11.6523 56.3163 11.4325C56.4748 11.2128 56.56 10.9488 56.5601 10.6779V9.9569Z" fill="#89D4E2"/>
<path fill-rule="evenodd" clip-rule="evenodd" d="M38.4365 8.72141C38.4734 8.841 38.4924 8.96748 38.4924 9.09653V9.81752C38.4923 10.0884 38.4071 10.3524 38.2486 10.5722C38.0902 10.7919 37.8667 10.9562 37.6096 11.0418L36.4413 11.4316C36.0903 11.5485 35.7228 11.608 35.3529 11.6079H29.5867C29.2168 11.608 28.8493 11.5485 28.4984 11.4316L27.3636 11.053C27.4823 11.4462 27.786 11.7671 28.1904 11.9022L29.3587 12.2919C29.7097 12.4088 30.0772 12.4684 30.4471 12.4683H36.2133C36.5832 12.4684 36.9507 12.4088 37.3016 12.2919L38.47 11.9022C38.727 11.8166 38.9506 11.6523 39.109 11.4325C39.2674 11.2128 39.3527 10.9488 39.3527 10.6779V9.9569C39.3527 9.686 39.2674 9.42198 39.109 9.20225C38.9506 8.98251 38.727 8.8182 38.47 8.7326L38.4365 8.72141ZM21.2291 8.72141C21.2661 8.841 21.2851 8.96748 21.2851 9.09653V9.81752C21.285 10.0884 21.1998 10.3524 21.0413 10.5722C20.8829 10.7919 20.6594 10.9562 20.4023 11.0418L19.234 11.4316C18.883 11.5485 18.5155 11.608 18.1456 11.6079H12.3794C12.0095 11.608 11.642 11.5485 11.2911 11.4316L10.1562 11.053C10.275 11.4462 10.5787 11.7671 10.9831 11.9022L12.1514 12.2919C12.5024 12.4088 12.8699 12.4684 13.2398 12.4683H19.006C19.3759 12.4684 19.7434 12.4088 20.0943 12.2919L21.2627 11.9022C21.5197 11.8166 21.7433 11.6523 21.9017 11.4325C22.0601 11.2128 22.1454 10.9488 22.1454 10.6779V9.9569C22.1454 9.686 22.0601 9.42198 21.9017 9.20225C21.7433 8.98251 21.5197 8.8182 21.2627 8.7326L21.2291 8.72141ZM55.6438 8.72141C55.6807 8.841 55.6997 8.96748 55.6997 9.09653V9.81752C55.6997 10.0884 55.6144 10.3524 55.456 10.5722C55.2975 10.7919 55.074 10.9562 54.8169 11.0418L53.6486 11.4316C53.2976 11.5485 52.9301 11.608 52.5602 11.6079H46.794C46.4241 11.608 46.0566 11.5485 45.7057 11.4316L44.5709 11.053C44.6896 11.4462 44.9933 11.7671 45.3977 11.9022L46.566 12.2919C46.917 12.4088 47.2845 12.4684 47.6544 12.4683H53.4206C53.7905 12.4684 54.158 12.4088 54.5089 12.2919L55.6773 11.9022C55.9343 11.8166 56.1579 11.6523 56.3163 11.4325C56.4748 11.2128 56.56 10.9488 56.56 10.6779V9.9569C56.56 9.686 56.4748 9.42198 56.3163 9.20225C56.1579 8.98251 55.9343 8.8182 55.6773 8.7326L55.6438 8.72141Z" fill="#59C7DA"/>
<path fill-rule="evenodd" clip-rule="evenodd" d="M39.3528 5.65507C39.3527 5.38418 39.2675 5.12016 39.109 4.90042C38.9506 4.68069 38.727 4.51638 38.47 4.43077L37.3016 4.04103C36.9507 3.92413 36.5832 3.86457 36.2133 3.86465H30.4471C30.0772 3.86457 29.7097 3.92413 29.3588 4.04103L28.1904 4.43077C27.9334 4.51638 27.7098 4.68069 27.5514 4.90042C27.3929 5.12016 27.3077 5.38418 27.3076 5.65507V6.37606C27.3077 6.64696 27.3929 6.91098 27.5514 7.13071C27.7098 7.35045 27.9334 7.51476 28.1904 7.60036L29.3588 7.99011C29.7097 8.10701 30.0772 8.16656 30.4471 8.16648H36.2133C36.5832 8.16656 36.9507 8.10701 37.3016 7.99011L38.47 7.60036C38.727 7.51476 38.9506 7.35045 39.109 7.13071C39.2675 6.91098 39.3527 6.64696 39.3528 6.37606V5.65507ZM22.1455 5.65507C22.1454 5.38418 22.0602 5.12016 21.9017 4.90042C21.7433 4.68069 21.5197 4.51638 21.2627 4.43077L20.0943 4.04103C19.7434 3.92413 19.3759 3.86457 19.006 3.86465H13.2398C12.8699 3.86457 12.5024 3.92413 12.1515 4.04103L10.9831 4.43077C10.7261 4.51638 10.5025 4.68069 10.3441 4.90042C10.1856 5.12016 10.1004 5.38418 10.1003 5.65507V6.37606C10.1004 6.64696 10.1856 6.91098 10.3441 7.13071C10.5025 7.35045 10.7261 7.51476 10.9831 7.60036L12.1515 7.99011C12.5024 8.10701 12.8699 8.16656 13.2398 8.16648H19.006C19.3759 8.16656 19.7434 8.10701 20.0943 7.99011L21.2627 7.60036C21.5197 7.51476 21.7433 7.35045 21.9017 7.13071C22.0602 6.91098 22.1454 6.64696 22.1455 6.37606V5.65507ZM56.5601 5.65507C56.56 5.38418 56.4748 5.12016 56.3163 4.90042C56.1579 4.68069 55.9343 4.51638 55.6773 4.43077L54.5089 4.04103C54.158 3.92413 53.7905 3.86457 53.4206 3.86465H47.6544C47.2845 3.86457 46.917 3.92413 46.5661 4.04103L45.3977 4.43077C45.1407 4.51638 44.9171 4.68069 44.7587 4.90042C44.6002 5.12016 44.515 5.38418 44.5149 5.65507V6.37606C44.515 6.64696 44.6002 6.91098 44.7587 7.13071C44.9171 7.35045 45.1407 7.51476 45.3977 7.60036L46.5661 7.99011C46.917 8.10701 47.2845 8.16656 47.6544 8.16648H53.4206C53.7905 8.16656 54.158 8.10701 54.5089 7.99011L55.6773 7.60036C55.9343 7.51476 56.1579 7.35045 56.3163 7.13071C56.4748 6.91098 56.56 6.64696 56.5601 6.37606V5.65507Z" fill="#89D4E2"/>
<path fill-rule="evenodd" clip-rule="evenodd" d="M38.4365 4.41959C38.4734 4.53918 38.4924 4.66566 38.4924 4.79471V5.5157C38.4923 5.78659 38.4071 6.05061 38.2486 6.27035C38.0902 6.49009 37.8667 6.65439 37.6096 6.74L36.4413 7.12974C36.0903 7.24665 35.7228 7.3062 35.3529 7.30612H29.5867C29.2168 7.3062 28.8493 7.24665 28.4984 7.12974L27.3636 6.75118C27.4823 7.14437 27.786 7.46529 28.1904 7.60036L29.3587 7.99011C29.7097 8.10701 30.0772 8.16657 30.4471 8.16648H36.2133C36.5832 8.16657 36.9507 8.10701 37.3016 7.99011L38.47 7.60036C38.727 7.51476 38.9506 7.35045 39.109 7.13072C39.2674 6.91098 39.3527 6.64696 39.3527 6.37606V5.65508C39.3527 5.38418 39.2674 5.12016 39.109 4.90043C38.9506 4.68069 38.727 4.51638 38.47 4.43078L38.4365 4.41959ZM21.2291 4.41959C21.2661 4.53918 21.2851 4.66566 21.2851 4.79471V5.5157C21.285 5.78659 21.1998 6.05061 21.0413 6.27035C20.8829 6.49009 20.6594 6.65439 20.4023 6.74L19.234 7.12974C18.883 7.24665 18.5155 7.3062 18.1456 7.30612H12.3794C12.0095 7.3062 11.642 7.24665 11.2911 7.12974L10.1562 6.75118C10.275 7.14437 10.5787 7.46529 10.9831 7.60036L12.1514 7.99011C12.5024 8.10701 12.8699 8.16657 13.2398 8.16648H19.006C19.3759 8.16657 19.7434 8.10701 20.0943 7.99011L21.2627 7.60036C21.5197 7.51476 21.7433 7.35045 21.9017 7.13072C22.0601 6.91098 22.1454 6.64696 22.1454 6.37606V5.65508C22.1454 5.38418 22.0601 5.12016 21.9017 4.90043C21.7433 4.68069 21.5197 4.51638 21.2627 4.43078L21.2291 4.41959ZM55.6438 4.41959C55.6807 4.53918 55.6997 4.66566 55.6997 4.79471V5.5157C55.6997 5.78659 55.6144 6.05061 55.456 6.27035C55.2975 6.49009 55.074 6.65439 54.8169 6.74L53.6486 7.12974C53.2976 7.24665 52.9301 7.3062 52.5602 7.30612H46.794C46.4241 7.3062 46.0566 7.24665 45.7057 7.12974L44.5709 6.75118C44.6896 7.14437 44.9933 7.46529 45.3977 7.60036L46.566 7.99011C46.917 8.10701 47.2845 8.16657 47.6544 8.16648H53.4206C53.7905 8.16657 54.158 8.10701 54.5089 7.99011L55.6773 7.60036C55.9343 7.51476 56.1579 7.35045 56.3163 7.13072C56.4748 6.91098 56.56 6.64696 56.56 6.37606V5.65508C56.56 5.38418 56.4748 5.12016 56.3163 4.90043C56.1579 4.68069 55.9343 4.51638 55.6773 4.43078L55.6438 4.41959Z" fill="#59C7DA"/>
<path fill-rule="evenodd" clip-rule="evenodd" d="M34.0913 37.4499C34.0958 37.4101 34.0863 37.37 34.0644 37.3365C34.0426 37.303 34.0097 37.2781 33.9715 37.2662C33.9334 37.2543 33.8922 37.2561 33.8552 37.2712C33.8181 37.2864 33.7875 37.3139 33.7686 37.3492L27.6446 48.8316C27.6094 48.8971 27.5919 48.9706 27.5936 49.0449C27.5954 49.1193 27.6164 49.1918 27.6547 49.2556C27.6929 49.3193 27.7471 49.372 27.8118 49.4086C27.8765 49.4451 27.9496 49.4642 28.024 49.464H32.3688C32.4898 49.464 32.6094 49.4895 32.7199 49.5388C32.8303 49.5882 32.9291 49.6603 33.0098 49.7504C33.0905 49.8405 33.1513 49.9467 33.1882 50.0619C33.2251 50.1771 33.2373 50.2988 33.224 50.419L32.5684 56.3159C32.5639 56.3557 32.5734 56.3958 32.5953 56.4293C32.6171 56.4628 32.65 56.4877 32.6882 56.4996C32.7263 56.5115 32.7675 56.5097 32.8045 56.4946C32.8416 56.4794 32.8722 56.4519 32.8911 56.4166L39.0151 44.9342C39.0503 44.8687 39.0678 44.7952 39.0661 44.7209C39.0643 44.6466 39.0433 44.574 39.005 44.5102C38.9668 44.4465 38.9126 44.3938 38.8479 44.3573C38.7832 44.3207 38.7101 44.3016 38.6357 44.3018H34.2909C34.1699 44.3018 34.0503 44.2763 33.9398 44.227C33.8294 44.1776 33.7306 44.1055 33.6499 44.0154C33.5692 43.9253 33.5084 43.8192 33.4715 43.7039C33.4346 43.5887 33.4224 43.467 33.4357 43.3468L34.0913 37.4499Z" fill="#FBEC38"/>
<path fill-rule="evenodd" clip-rule="evenodd" d="M38.0335 44.3018L32.8171 54.0824L32.5684 56.3159C32.5639 56.3557 32.5734 56.3958 32.5953 56.4293C32.6171 56.4628 32.65 56.4877 32.6882 56.4996C32.7263 56.5115 32.7675 56.5097 32.8045 56.4946C32.8416 56.4794 32.8722 56.4519 32.8911 56.4166L39.0151 44.9342C39.0503 44.8687 39.0678 44.7952 39.0661 44.7209C39.0643 44.6466 39.0433 44.574 39.005 44.5102C38.9668 44.4465 38.9126 44.3938 38.8479 44.3573C38.7832 44.3207 38.7101 44.3016 38.6357 44.3018H38.0335ZM27.7659 48.6036L27.6446 48.8316C27.6094 48.8971 27.5919 48.9706 27.5936 49.0449C27.5954 49.1193 27.6164 49.1918 27.6547 49.2556C27.6929 49.3193 27.7471 49.372 27.8118 49.4086C27.8765 49.4451 27.9496 49.4642 28.024 49.464H32.3688C32.4898 49.464 32.6094 49.4895 32.7199 49.5388C32.8303 49.5882 32.9291 49.6603 33.0098 49.7504C33.0905 49.8405 33.1513 49.9467 33.1882 50.0619C33.2251 50.1771 33.2373 50.2988 33.224 50.419L33.3298 49.464C33.3298 49.2358 33.2392 49.017 33.0779 48.8556C32.9165 48.6943 32.6977 48.6036 32.4695 48.6036H27.7659ZM32.9823 38.823L32.4746 43.3468C32.4613 43.467 32.4735 43.5887 32.5104 43.7039C32.5474 43.8192 32.6081 43.9253 32.6889 44.0154C32.7696 44.1055 32.8684 44.1776 32.9788 44.227C33.0893 44.2763 33.2089 44.3018 33.3298 44.3018H34.2909C34.1699 44.3018 34.0503 44.2763 33.9398 44.227C33.8294 44.1776 33.7306 44.1055 33.6499 44.0154C33.5692 43.9253 33.5084 43.8192 33.4715 43.7039C33.4346 43.5887 33.4224 43.467 33.4357 43.3468L34.0913 37.4499C34.0958 37.4101 34.0863 37.37 34.0644 37.3365C34.0426 37.303 34.0097 37.2781 33.9715 37.2662C33.9334 37.2543 33.8922 37.2561 33.8552 37.2712C33.8181 37.2864 33.7875 37.3139 33.7686 37.3492L32.9823 38.823Z" fill="#FCD935"/>
</svg>
