<svg width="55" height="87" viewBox="0 0 55 87" fill="none" xmlns="http://www.w3.org/2000/svg">
<path d="M16.7582 81.3812L11.1657 79.6403H7.68384V85.048L11.1657 86.7889H15.5396C15.8628 86.7889 16.1727 86.6605 16.4013 86.432C16.6298 86.2034 16.7582 85.8935 16.7582 85.5703V81.3812Z" fill="#3B4854"/>
<path d="M5.94263 81.3812V85.5703C5.94263 85.8935 6.07101 86.2034 6.29954 86.432C6.52806 86.6605 6.83801 86.7889 7.1612 86.7889H11.1652V81.3812L8.55383 79.6403L5.94263 81.3812Z" fill="#2A343E"/>
<path d="M49.2018 81.3954L43.6093 79.6545H40.1274V85.0621L43.6093 86.803H47.9832C48.3064 86.803 48.6163 86.6747 48.8449 86.4461C49.0734 86.2176 49.2018 85.9077 49.2018 85.5845V81.3954Z" fill="#3B4854"/>
<path d="M38.3867 81.3954V85.5845C38.3867 85.7445 38.4182 85.9029 38.4795 86.0508C38.5407 86.1986 38.6305 86.333 38.7436 86.4461C38.8568 86.5593 38.9911 86.649 39.139 86.7103C39.2868 86.7715 39.4453 86.803 39.6053 86.803H43.6093V81.3954L40.9979 79.6545L38.3867 81.3954Z" fill="#2A343E"/>
<path d="M54.6107 5.67793V47.6438L52.8697 48.9494L54.6107 50.255V53.0509L52.8697 54.3565L54.6107 55.6621V58.4597L52.8697 59.7653L54.6107 61.0709V63.8668L52.8697 65.1724L54.6107 66.478V69.2739L52.8697 70.5798L54.6107 71.8853V75.9832C54.6107 78.9637 52.1943 81.3801 49.2138 81.3801H38.3864L27.5715 77.8982L16.7577 81.3801H11.165L7.67268 81.319C4.69224 81.319 2.27588 78.9637 2.27588 75.9832V5.67793C2.27588 2.69749 4.69224 0.309011 7.67268 0.309011L11.1545 0.281128H49.2138C52.1943 0.281128 54.6107 2.69749 54.6107 5.67793Z" fill="#616D79"/>
<path d="M5.7579 75.9847V5.67853C5.7579 2.69791 8.17409 0.281723 11.1547 0.281723H5.93196C2.95135 0.281723 0.535156 2.69791 0.535156 5.67853V47.6445L2.27607 48.9501L0.535156 50.2557V53.0518L2.27607 54.3567L0.535156 55.6632V58.4594L2.27607 59.7652L0.535156 61.0708V63.867L2.27607 65.1728L0.535156 66.4784V69.2747L2.27607 70.5803L0.535156 71.8859V75.9843C0.535156 78.9649 2.95135 81.3811 5.93196 81.3811H11.1547C8.17409 81.3815 5.7579 78.9653 5.7579 75.9847Z" fill="#3B4854"/>
<path d="M42.5774 38.1372H16.5705L13.0886 36.3963V7.43002L16.5705 5.6891H42.5774C42.9006 5.6891 43.2105 5.81749 43.4391 6.04601C43.6676 6.27454 43.796 6.58449 43.796 6.90768V36.9186C43.796 37.0786 43.7645 37.2371 43.7032 37.385C43.642 37.5328 43.5523 37.6672 43.4391 37.7803C43.3259 37.8935 43.1916 37.9832 43.0437 38.0445C42.8959 38.1057 42.7374 38.1372 42.5774 38.1372Z" fill="#3EDCFF"/>
<path d="M11.3479 6.90768V36.9186C11.3479 37.0786 11.3794 37.2371 11.4407 37.3849C11.5019 37.5328 11.5917 37.6671 11.7048 37.7803C11.818 37.8934 11.9523 37.9832 12.1001 38.0444C12.248 38.1057 12.4065 38.1372 12.5665 38.1372H16.5705V5.6891H12.5665C12.4064 5.68908 12.248 5.72058 12.1001 5.78182C11.9523 5.84305 11.8179 5.93281 11.7048 6.04596C11.5916 6.15912 11.5018 6.29347 11.4406 6.44132C11.3794 6.58918 11.3479 6.74764 11.3479 6.90768Z" fill="#00C1EE"/>
<path d="M38.3879 81.3954H21.9801L18.4983 79.6545V54.3364C18.4983 48.3633 21.5996 43.8694 27.5726 43.8694C28.473 43.8694 29.3477 43.6313 30.184 43.8387C34.8955 45.0067 38.3879 49.2637 38.3879 54.3364V81.3954Z" fill="#3B4854"/>
<path d="M30.1844 43.8387C29.3301 43.6273 28.4532 43.5207 27.5731 43.5213C21.6 43.5213 16.7578 48.3635 16.7578 54.3366V81.3954H21.9806V54.3364C21.9806 49.2639 25.473 45.0069 30.1844 43.8387Z" fill="#2A343E"/>
<path d="M32.9807 54.3575C32.9807 56.5699 31.6521 58.472 29.7493 59.3094C29.0834 59.6024 23.9065 57.3441 23.9065 54.3575C23.9065 51.371 29.0311 49.1013 29.6781 49.3749C31.6188 50.1957 32.9807 52.1176 32.9807 54.3575Z" fill="#FFD152"/>
<path d="M26.5179 54.3575C26.5179 52.1451 27.8465 50.2431 29.7494 49.4056C29.0637 49.1041 28.3225 48.9489 27.5734 48.9499C24.5869 48.9499 22.1658 51.371 22.1658 54.3575C22.1658 57.344 24.5869 59.7651 27.5734 59.7651C28.3475 59.7651 29.0836 59.6024 29.7494 59.3093C27.8466 58.4718 26.5179 56.5699 26.5179 54.3575Z" fill="#FFB540"/>
<path d="M27.5732 70.5802C29.0665 70.5802 30.277 69.3697 30.277 67.8764C30.277 66.3831 29.0665 65.1726 27.5732 65.1726C26.0799 65.1726 24.8694 66.3831 24.8694 67.8764C24.8694 69.3697 26.0799 70.5802 27.5732 70.5802Z" fill="#00C1EE"/>
<path d="M54.6107 47.6438V50.2551H43.7963C43.6248 50.2554 43.4549 50.2218 43.2964 50.1562C43.1379 50.0907 42.9939 49.9945 42.8726 49.8732C42.7514 49.752 42.6552 49.6079 42.5897 49.4494C42.5241 49.2909 42.4905 49.1211 42.4907 48.9495C42.4907 48.7781 42.5244 48.6083 42.5899 48.4498C42.6555 48.2914 42.7517 48.1474 42.8729 48.0261C42.9942 47.9049 43.1382 47.8087 43.2966 47.7431C43.455 47.6776 43.6249 47.6439 43.7963 47.6439H54.6107V47.6438ZM54.6107 53.0511V55.6624H43.7963C43.6248 55.6627 43.4549 55.629 43.2964 55.5635C43.1379 55.498 42.9939 55.4018 42.8726 55.2805C42.7514 55.1592 42.6552 55.0152 42.5897 54.8567C42.5241 54.6982 42.4905 54.5283 42.4907 54.3568C42.4907 54.1854 42.5244 54.0155 42.5899 53.8571C42.6555 53.6986 42.7517 53.5547 42.8729 53.4334C42.9942 53.3122 43.1382 53.216 43.2966 53.1504C43.455 53.0848 43.6249 53.0511 43.7963 53.0512H54.6107V53.0511ZM54.6107 58.4599V61.0712H43.7963C43.6249 61.0713 43.455 61.0376 43.2966 60.972C43.1382 60.9065 42.9942 60.8103 42.8729 60.689C42.7517 60.5678 42.6555 60.4238 42.5899 60.2654C42.5244 60.1069 42.4907 59.9371 42.4907 59.7656C42.4905 59.5941 42.5241 59.4242 42.5897 59.2657C42.6552 59.1072 42.7514 58.9632 42.8726 58.8419C42.9939 58.7207 43.1379 58.6245 43.2964 58.559C43.4549 58.4934 43.6248 58.4598 43.7963 58.46H54.6107V58.4599ZM54.6107 63.8671V66.4785H43.7963C43.0739 66.4785 42.4907 65.8936 42.4907 65.1729C42.4907 64.4522 43.0739 63.8673 43.7963 63.8673H54.6107V63.8671ZM54.6107 69.2744V71.8858H43.7963C43.6249 71.8859 43.4551 71.8521 43.2966 71.7865C43.1382 71.721 42.9942 71.6248 42.873 71.5035C42.7517 71.3823 42.6556 71.2383 42.59 71.0799C42.5244 70.9215 42.4907 70.7517 42.4907 70.5802C42.4907 70.4087 42.5244 70.2389 42.5899 70.0805C42.6555 69.922 42.7517 69.778 42.8729 69.6568C42.9942 69.5355 43.1382 69.4394 43.2966 69.3738C43.455 69.3082 43.6249 69.2745 43.7963 69.2746L54.6107 69.2744ZM12.6535 48.9495C12.6536 49.121 12.6199 49.2908 12.5543 49.4493C12.4887 49.6077 12.3926 49.7517 12.2713 49.8729C12.1501 49.9942 12.0061 50.0904 11.8477 50.1559C11.6892 50.2215 11.5194 50.2552 11.3479 50.2551H5.75762L2.27612 48.9499L5.75762 47.6438H11.3479C11.6942 47.644 12.0262 47.7816 12.271 48.0264C12.5158 48.2713 12.6534 48.6033 12.6535 48.9495ZM12.6535 54.3567C12.6536 54.5281 12.6199 54.698 12.5543 54.8564C12.4887 55.0148 12.3926 55.1588 12.2713 55.2801C12.1501 55.4013 12.0061 55.4975 11.8477 55.5631C11.6892 55.6286 11.5194 55.6623 11.3479 55.6623H5.75762L2.27612 54.3573L5.75762 53.0509H11.3479C11.6942 53.0511 12.0262 53.1887 12.271 53.4335C12.5158 53.6784 12.6534 54.0104 12.6535 54.3567ZM12.6535 59.7656C12.6534 60.1119 12.5158 60.4439 12.271 60.6887C12.0261 60.9335 11.6941 61.0711 11.3479 61.0712H5.75762L2.27612 59.7656L5.75762 58.46H11.3479C11.5194 58.4599 11.6892 58.4936 11.8477 58.5592C12.0061 58.6248 12.1501 58.721 12.2713 58.8422C12.3926 58.9635 12.4887 59.1074 12.5543 59.2659C12.6199 59.4243 12.6536 59.5942 12.6535 59.7656ZM12.6535 65.1727C12.6534 65.519 12.5158 65.851 12.271 66.0958C12.0261 66.3406 11.6941 66.4782 11.3479 66.4783H5.75762L2.27612 65.1727L5.75762 63.8671H11.3479C11.6941 63.8673 12.0261 64.0049 12.2709 64.2497C12.5157 64.4945 12.6533 64.8265 12.6535 65.1727ZM12.6535 70.58C12.6534 70.9262 12.5158 71.2583 12.271 71.5031C12.0261 71.7479 11.6941 71.8855 11.3479 71.8856H5.75762L2.27612 70.5802L5.75762 69.2743H11.3479C11.6942 69.2744 12.0262 69.4121 12.271 69.6569C12.5158 69.9018 12.6534 70.2338 12.6535 70.58Z" fill="#3B4854"/>
<path d="M0.535156 47.6443H5.7579V50.2557H0.535156V47.6443ZM0.535156 53.0517H5.7579V55.6631H0.535156V53.0517ZM0.535156 58.4593H5.7579V61.0707H0.535156V58.4593ZM0.535156 63.867H5.7579V66.4783H0.535156V63.867ZM0.535156 69.2746H5.7579V71.886H0.535156V69.2746Z" fill="#2A343E"/>
<path d="M26.6032 12.7136L19.9363 23.8247C19.7274 24.1729 19.9782 24.6158 20.3841 24.6158H26.3535C26.5135 24.6158 26.6719 24.6472 26.8198 24.7085C26.9676 24.7697 27.102 24.8594 27.2151 24.9726C27.3283 25.0857 27.418 25.22 27.4793 25.3679C27.5405 25.5157 27.572 25.6742 27.572 25.8342L27.5731 30.8421C27.5732 31.3717 28.2706 31.5649 28.5432 31.1107L35.21 19.9988C35.4188 19.6507 35.1681 19.2078 34.7621 19.2078H28.7918C28.6318 19.2078 28.4733 19.1763 28.3254 19.115C28.1776 19.0538 28.0432 18.964 27.9301 18.8508C27.8169 18.7377 27.7272 18.6033 27.6659 18.4555C27.6047 18.3076 27.5732 18.1491 27.5732 17.9891L27.5734 12.982C27.5734 12.4527 26.8758 12.2594 26.6032 12.7136Z" fill="#FFD152"/>
</svg>
